<svg xmlns="http://www.w3.org/2000/svg" xmlns:xlink="http://www.w3.org/1999/xlink" version="1.1" id="Layer_1" x="0px" y="0px" viewBox="0 0 1280 241.1" style="enable-background:new 0 0 1280 241.1;" xml:space="preserve">
<style type="text/css">
	.st0{fill:#FFFFFF;}
	.st1{fill:#FFBE00;}
	.st2{opacity:0.2;fill:#1A1A1A;}
	.st3{fill:#F4AE00;}
	.st4{opacity:0.1;fill:#1A1A1A;}
	.st5{fill:#EE3F25;}
	.st6{fill:#4AB648;}
	.st7{fill:#FFFFFF;stroke:#999999;stroke-miterlimit:10;}
	.st8{fill:#E49127;}
	.st9{fill:#F09F2D;}
	.st10{fill:#F5C651;}
	.st11{fill:#F7CD71;}
	.st12{fill:#ECB946;}
	.st13{fill:#4AB648;stroke:#FFFFFF;stroke-width:3;stroke-linecap:round;stroke-linejoin:round;stroke-miterlimit:10;}
	.st14{fill:#1A1A1A;}
</style>
<g id="XMLID_112_">
	<path id="XMLID_123_" class="st0" d="M0,228.6L0,241l1280,0l0-12.4c-198.9-76.9-414.6-119-640-119S198.9,151.7,0,228.6z"/>
	<path id="XMLID_122_" class="st1" d="M1280,205.2C1115.9,141.7,940.3,101.9,757.3,90c-9.8-0.6-18.3-7.3-20.9-16.7   C724.7,31,686,0,640,0c-46,0-84.7,31-96.4,73.2c-2.6,9.5-11.1,16.1-20.9,16.7c-183,12-358.6,51.7-522.7,115.2v30.5   c128.1-49.6,263.3-84.7,403.5-103.4c62.8-8.4,125.8,9.5,176.3,47.6c16.7,12.6,37.6,20.1,60.1,20.1c22.6,0,43.4-7.5,60.1-20.1   c50.6-38.1,113.6-56,176.3-47.6c140.2,18.7,275.4,53.8,403.5,103.4V205.2z"/>
	<path id="XMLID_120_" class="st2" d="M700.1,179.9C683.4,192.5,662.6,200,640,200c-22.6,0-43.4-7.5-60.1-20.1   c-50.6-38.1-113.6-56-176.3-47.6C263.3,151,128.1,186.1,0,235.7v5.3c128.1-49.6,263.3-84.7,403.5-103.4   c62.8-8.4,125.8,9.5,176.3,47.6c16.7,12.6,37.6,20.1,60.1,20.1c22.6,0,43.4-7.5,60.1-20.1c50.6-38.1,113.6-56,176.3-47.6   c140.2,18.7,275.4,53.8,403.5,103.4v-5.3c-128.1-49.6-263.3-84.7-403.5-103.4C813.7,123.9,750.7,141.8,700.1,179.9z"/>
	<circle id="XMLID_116_" class="st3" cx="640" cy="30.3" r="15.6"/>
	<path id="XMLID_114_" class="st4" d="M628.2,35.1c0-8.6,7-15.6,15.6-15.6c3.8,0,7.3,1.4,10,3.6c-2.6-5-7.8-8.4-13.9-8.4   c-8.6,0-15.6,7-15.6,15.6c0,4.8,2.2,9.1,5.6,12C628.9,40.1,628.2,37.7,628.2,35.1z"/>
</g>
</svg>