<?xml version="1.0" encoding="utf-8"?>
<!-- Generator: Adobe Illustrator 19.0.0, SVG Export Plug-In . SVG Version: 6.00 Build 0)  -->
<svg version="1.1" id="Layer_1" xmlns="http://www.w3.org/2000/svg" xmlns:xlink="http://www.w3.org/1999/xlink" x="0px" y="0px"
	 viewBox="0 0 1280 241.1" style="enable-background:new 0 0 1280 241.1;" xml:space="preserve">
<style type="text/css">
	.st0{fill:#FFFFFF;}
	.st1{fill:#FFBE00;}
	.st2{opacity:0.2;fill:#1A1A1A;}
	.st3{fill:#F4AE00;}
	.st4{opacity:0.1;fill:#1A1A1A;}
	.st5{fill:#EE3F25;}
	.st6{fill:#4AB648;}
	.st7{fill:#FFFFFF;stroke:#999999;stroke-miterlimit:10;}
	.st8{fill:#E49127;}
	.st9{fill:#F09F2D;}
	.st10{fill:#F5C651;}
	.st11{fill:#F7CD71;}
	.st12{fill:#ECB946;}
	.st13{fill:#4AB648;stroke:#FFFFFF;stroke-width:3;stroke-linecap:round;stroke-linejoin:round;stroke-miterlimit:10;}
	.st14{fill:#1A1A1A;}
</style>
<g id="XMLID_112_">
	<path id="XMLID_123_" class="st0" d="M2677.8,228.6v199l1280,0v-199c-198.9-76.9-414.6-119-640-119S2876.7,151.7,2677.8,228.6z"/>
	<path id="XMLID_122_" class="st1" d="M3957.8,205.2c-164.1-63.5-339.7-103.2-522.7-115.2c-9.8-0.6-18.3-7.3-20.9-16.7
		C3402.5,31,3363.8,0,3317.8,0s-84.7,31-96.4,73.2c-2.6,9.5-11.1,16.1-20.9,16.7c-183,12-358.6,51.7-522.7,115.2v30.5
		c128.1-49.6,263.3-84.7,403.5-103.4c62.8-8.4,125.8,9.5,176.3,47.6c16.7,12.6,37.6,20.1,60.1,20.1c22.6,0,43.4-7.5,60.1-20.1
		c50.6-38.1,113.6-56,176.3-47.6c140.2,18.7,275.4,53.8,403.5,103.4V205.2z"/>
	<path id="XMLID_120_" class="st2" d="M3377.9,179.9c-16.7,12.6-37.6,20.1-60.1,20.1c-22.6,0-43.4-7.5-60.1-20.1
		c-50.6-38.1-113.6-56-176.3-47.6c-140.2,18.7-275.4,53.8-403.5,103.4v5.3c128.1-49.6,263.3-84.7,403.5-103.4
		c62.8-8.4,125.8,9.5,176.3,47.6c16.7,12.6,37.6,20.1,60.1,20.1c22.6,0,43.4-7.5,60.1-20.1c50.6-38.1,113.6-56,176.3-47.6
		c140.2,18.7,275.4,53.8,403.5,103.4v-5.3c-128.1-49.6-263.3-84.7-403.5-103.4C3491.5,123.9,3428.5,141.8,3377.9,179.9z"/>
	<circle id="XMLID_116_" class="st3" cx="3317.8" cy="30.3" r="15.6"/>
	<path id="XMLID_114_" class="st4" d="M3306.1,35.1c0-8.6,7-15.6,15.6-15.6c3.8,0,7.3,1.4,10,3.6c-2.6-5-7.8-8.4-13.9-8.4
		c-8.6,0-15.6,7-15.6,15.6c0,4.8,2.2,9.1,5.6,12C3306.7,40.1,3306.1,37.7,3306.1,35.1z"/>
</g>
<g id="XMLID_416_">
	<path id="XMLID_41_" class="st0" d="M723.3,111.5c0.4-3.2,0.6-6.5,0.6-9.8c0-46.3-37.6-83.9-83.9-83.9s-83.9,37.6-83.9,83.9
		c0,3.3,0.2,6.6,0.6,9.8c-195.3,9-382.5,49.7-556.7,117.1l0,12.5l1280,0l0-12.5C1105.8,161.2,918.6,120.5,723.3,111.5z"/>
	<path id="XMLID_1017_" class="st2" d="M700.1,180c-16.7,12.6-37.6,20.1-60.1,20.1c-22.6,0-43.4-7.5-60.1-20.1
		c-50.6-38.1-113.6-56-176.3-47.6C263.3,151.1,128.1,186.2,0,235.7v5.3c128.1-49.6,263.3-84.7,403.5-103.4
		c62.8-8.4,125.8,9.5,176.3,47.6c16.7,12.6,37.6,20.1,60.1,20.1c22.6,0,43.4-7.5,60.1-20.1c50.6-38.1,113.6-56,176.3-47.6
		c140.2,18.7,275.4,53.8,403.5,103.4v-5.3c-128.1-49.6-263.3-84.7-403.5-103.4C813.7,124,750.7,141.9,700.1,180z"/>
	<path id="XMLID_117_" class="st5" d="M757.3,90c-9.8-0.6-18.3-7.3-20.9-16.7C724.7,31,686,0,640,0c-46,0-84.7,31-96.4,73.2
		c-2.6,9.5-11.1,16.1-20.9,16.7c-183,12-358.6,51.7-522.7,115.2v30.5c128.1-49.6,263.3-84.7,403.5-103.4
		c62.8-8.4,125.8,9.5,176.3,47.6c16.7,12.6,37.6,20.1,60.1,20.1c22.6,0,43.4-7.5,60.1-20.1c50.6-38.1,113.6-56,176.3-47.6
		c140.2,18.7,275.4,53.8,403.5,103.4v-30.5C1115.9,141.7,940.3,101.9,757.3,90z M640,23c14.5,0,28,3.9,39.7,10.7
		c3.4,2,4.1,6.7,1.3,9.5l-36.7,36.7c-2.4,2.4-6.2,2.4-8.6,0l-36.7-36.7c-2.8-2.8-2.2-7.5,1.3-9.5C612,26.9,625.5,23,640,23z
		 M581.6,60.7l36.7,36.7c2.4,2.4,2.4,6.2,0,8.6l-36.7,36.7c-2.8,2.8-7.5,2.2-9.5-1.3c-6.8-11.6-10.7-25.2-10.7-39.7
		c0-14.5,3.9-28,10.7-39.7C574.1,58.5,578.8,57.9,581.6,60.7z M599.1,160l36.7-36.7c2.4-2.4,6.2-2.4,8.6,0l36.7,36.7
		c2.8,2.8,2.2,7.5-1.3,9.5c-11.6,6.8-25.2,10.7-39.7,10.7c-14.5,0-28-3.9-39.7-10.7C596.9,167.5,596.2,162.8,599.1,160z
		 M698.4,142.6l-36.7-36.7c-2.4-2.4-2.4-6.2,0-8.6l36.7-36.7c2.8-2.8,7.5-2.2,9.5,1.3c6.8,11.6,10.7,25.2,10.7,39.7
		s-3.9,28-10.7,39.7C705.9,144.8,701.2,145.4,698.4,142.6z"/>
</g>
<path id="XMLID_190_" class="st0" d="M-1342.3,228v199l1280,0V228c-198.9-76.9-414.6-119-640-119S-1143.5,151.1-1342.3,228z"/>
<path id="XMLID_188_" class="st6" d="M-62.3,205.7C-226.4,142.3-402,102.5-585.1,90.6c-9.8-0.6-18.3-7.3-20.9-16.7
	c-11.7-42.2-50.4-73.2-96.4-73.2c-46,0-84.7,31-96.4,73.2c-2.6,9.5-11.1,16.1-20.9,16.7c-183,12-358.6,51.7-522.7,115.2v30.5
	c128.1-49.6,263.3-84.7,403.5-103.4c62.8-8.4,125.8,9.5,176.3,47.6c16.7,12.6,37.6,20.1,60.1,20.1s43.4-7.5,60.1-20.1
	c50.6-38.1,113.6-56,176.3-47.6c140.2,18.7,275.4,53.8,403.5,103.4V205.7z"/>
<path id="XMLID_187_" class="st2" d="M-642.2,180.5c-16.7,12.6-37.6,20.1-60.1,20.1c-22.6,0-43.4-7.5-60.1-20.1
	c-50.6-38.1-113.6-56-176.3-47.6c-140.2,18.7-275.4,53.8-403.5,103.4v5.3c128.1-49.6,263.3-84.7,403.5-103.4
	c62.8-8.4,125.8,9.5,176.3,47.6c16.7,12.6,37.6,20.1,60.1,20.1c22.6,0,43.4-7.5,60.1-20.1c50.6-38.1,113.6-56,176.3-47.6
	c140.2,18.7,275.4,53.8,403.5,103.4v-5.3c-128.1-49.6-263.3-84.7-403.5-103.4C-528.6,124.5-591.7,142.4-642.2,180.5z"/>
<circle id="XMLID_186_" class="st7" cx="-702.3" cy="100.9" r="82.6"/>
<g id="XMLID_1_">
	<g id="XMLID_4145_">
		<path id="XMLID_4172_" class="st8" d="M-698.1,109.6c0,5.6-13.5,10.1-30.3,10.1l0,0c-16.7,0-30.3-4.5-30.3-10.1v-9.5
			c0-5.6,13.5-10.1,30.3-10.1l0,0c16.7,0,30.3,4.5,30.3,10.1V109.6z"/>
		<path id="XMLID_4171_" class="st9" d="M-698.1,108.5c0,5.6-13.5,10.1-30.3,10.1l0,0c-16.7,0-30.3-4.5-30.3-10.1V99
			c0-5.6,13.5-10.1,30.3-10.1l0,0c16.7,0,30.3,4.5,30.3,10.1V108.5z"/>
		<g id="XMLID_4151_">
			<path id="XMLID_4170_" class="st8" d="M-758.6,99v9.5c0,1.1,0.6,2.2,1.6,3.2v-16C-758,96.8-758.6,97.8-758.6,99z"/>
			<path id="XMLID_4169_" class="st8" d="M-755.1,94.3v18.9c0.5,0.3,1.1,0.6,1.7,1V93.3C-754,93.6-754.6,93.9-755.1,94.3z"/>
			<path id="XMLID_4168_" class="st8" d="M-751.9,92.6v22.2c0.5,0.2,1.1,0.4,1.7,0.6V92C-750.8,92.2-751.4,92.4-751.9,92.6z"/>
			<path id="XMLID_4167_" class="st8" d="M-748.3,91.4v24.7c0.5,0.2,1.1,0.3,1.7,0.5V90.9C-747.2,91.1-747.8,91.2-748.3,91.4z"/>
			<path id="XMLID_4166_" class="st8" d="M-744.8,90.5V117c0.6,0.1,1.1,0.2,1.7,0.3V90.1C-743.6,90.2-744.2,90.4-744.8,90.5z"/>
			<path id="XMLID_4165_" class="st8" d="M-741.2,89.8v27.8c0.6,0.1,1.1,0.2,1.7,0.2V89.6C-740.1,89.6-740.6,89.7-741.2,89.8z"/>
			<path id="XMLID_4164_" class="st8" d="M-738,89.4v28.7c0.6,0.1,1.1,0.1,1.7,0.2v-29C-736.9,89.3-737.4,89.3-738,89.4z"/>
			<path id="XMLID_4163_" class="st8" d="M-734.4,89.1v29.4c0.6,0,1.1,0.1,1.7,0.1V89C-733.3,89-733.8,89-734.4,89.1z"/>
			<path id="XMLID_4162_" class="st8" d="M-731.2,88.9v29.7c0.6,0,1.1,0,1.7,0V88.9C-730.1,88.9-730.6,88.9-731.2,88.9z"/>
			<path id="XMLID_4161_" class="st8" d="M-727.6,88.9v29.7c0.6,0,1.1,0,1.7,0V88.9C-726.5,88.9-727,88.9-727.6,88.9z"/>
			<path id="XMLID_4160_" class="st8" d="M-722.7,89h-0.1C-722.8,89-722.8,89-722.7,89L-722.7,89z"/>
			<path id="XMLID_4159_" class="st8" d="M-722.8,89h-1.6v29.5c0.6,0,1.1-0.1,1.7-0.1V89C-722.8,89-722.8,89-722.8,89z"/>
			<path id="XMLID_4158_" class="st8" d="M-720.8,89.2v29.1c0.6,0,1.1-0.1,1.7-0.2V89.3C-719.7,89.3-720.3,89.2-720.8,89.2z"/>
			<path id="XMLID_4157_" class="st8" d="M-717.3,89.6v28.4c0.6-0.1,1.1-0.2,1.7-0.2V89.8C-716.1,89.7-716.7,89.6-717.3,89.6z"/>
			<path id="XMLID_4156_" class="st8" d="M-713.7,90.1v27.2c0.6-0.1,1.1-0.2,1.7-0.3V90.5C-712.5,90.3-713.1,90.2-713.7,90.1z"/>
			<path id="XMLID_4155_" class="st8" d="M-710.5,90.8v25.9c0.6-0.1,1.1-0.3,1.7-0.4v-25C-709.3,91.1-709.9,90.9-710.5,90.8z"/>
			<path id="XMLID_4154_" class="st8" d="M-706.9,91.8v23.8c0.6-0.2,1.2-0.4,1.7-0.6V92.4C-705.7,92.2-706.3,92-706.9,91.8z"/>
			<path id="XMLID_4153_" class="st8" d="M-703.3,93.3v20.9c0.6-0.3,1.2-0.6,1.7-0.9v-19C-702.1,93.9-702.7,93.6-703.3,93.3z"/>
			<path id="XMLID_4152_" class="st8" d="M-698.1,108.5V99c0-1.2-0.6-2.3-1.7-3.3v16.2C-698.7,110.8-698.1,109.7-698.1,108.5z"/>
		</g>
		<path id="XMLID_4150_" class="st10" d="M-698.1,99c0,5.6-13.5,10.1-30.3,10.1c-16.7,0-30.3-4.5-30.3-10.1
			c0-5.6,13.5-10.1,30.3-10.1C-711.6,88.8-698.1,93.4-698.1,99z"/>
		<g id="XMLID_4146_">
			<path id="XMLID_4149_" class="st11" d="M-703.3,99.6c0,4.1-11.2,7.4-25,7.4c-13.8,0-25-3.3-25-7.4c0-4.1,11.2-7.4,25-7.4
				C-714.5,92.2-703.3,95.5-703.3,99.6z"/>
			<path id="XMLID_4148_" class="st12" d="M-703.3,98.1c0,4.1-11.2,7.4-25,7.4c-13.8,0-25-3.3-25-7.4c0-4.1,11.2-7.4,25-7.4
				C-714.5,90.7-703.3,94-703.3,98.1z"/>
			<path id="XMLID_4147_" class="st9" d="M-728.3,92.1c13,0,23.7,2.9,24.9,6.7c0.1-0.2,0.1-0.5,0.1-0.7c0-4.1-11.2-7.4-25-7.4
				c-13.8,0-25,3.3-25,7.4c0,0.2,0,0.5,0.1,0.7C-752,95.1-741.4,92.1-728.3,92.1z"/>
		</g>
	</g>
	<g id="XMLID_4117_">
		<path id="XMLID_4144_" class="st8" d="M-668.7,96.2c0,5.6-13.5,10.1-30.3,10.1l0,0c-16.7,0-30.3-4.5-30.3-10.1v-9.5
			c0-5.6,13.5-10.1,30.3-10.1l0,0c16.7,0,30.3,4.5,30.3,10.1V96.2z"/>
		<path id="XMLID_4143_" class="st9" d="M-668.7,95.1c0,5.6-13.5,10.1-30.3,10.1l0,0c-16.7,0-30.3-4.5-30.3-10.1v-9.5
			c0-5.6,13.5-10.1,30.3-10.1l0,0c16.7,0,30.3,4.5,30.3,10.1V95.1z"/>
		<g id="XMLID_4123_">
			<path id="XMLID_4142_" class="st8" d="M-729.2,85.6v9.5c0,1.1,0.6,2.2,1.6,3.2v-16C-728.6,83.3-729.2,84.4-729.2,85.6z"/>
			<path id="XMLID_4141_" class="st8" d="M-725.7,80.9v18.9c0.5,0.3,1.1,0.6,1.7,1V79.9C-724.6,80.2-725.2,80.5-725.7,80.9z"/>
			<path id="XMLID_4140_" class="st8" d="M-722.5,79.2v22.2c0.5,0.2,1.1,0.4,1.7,0.6V78.6C-721.4,78.8-722,79-722.5,79.2z"/>
			<path id="XMLID_4139_" class="st8" d="M-718.9,78v24.7c0.5,0.2,1.1,0.3,1.7,0.5V77.5C-717.8,77.7-718.4,77.8-718.9,78z"/>
			<path id="XMLID_4138_" class="st8" d="M-715.3,77.1v26.5c0.6,0.1,1.1,0.2,1.7,0.3V76.7C-714.2,76.8-714.8,76.9-715.3,77.1z"/>
			<path id="XMLID_4137_" class="st8" d="M-711.8,76.4v27.8c0.6,0.1,1.1,0.2,1.7,0.2V76.2C-710.6,76.2-711.2,76.3-711.8,76.4z"/>
			<path id="XMLID_4136_" class="st8" d="M-708.6,76v28.7c0.6,0.1,1.1,0.1,1.7,0.2v-29C-707.4,75.8-708,75.9-708.6,76z"/>
			<path id="XMLID_4135_" class="st8" d="M-705,75.6V105c0.6,0,1.1,0.1,1.7,0.1V75.5C-703.9,75.6-704.4,75.6-705,75.6z"/>
			<path id="XMLID_4134_" class="st8" d="M-701.8,75.5v29.7c0.6,0,1.1,0,1.7,0V75.4C-700.7,75.5-701.2,75.5-701.8,75.5z"/>
			<path id="XMLID_4133_" class="st8" d="M-698.2,75.4v29.7c0.6,0,1.1,0,1.7,0V75.5C-697.1,75.5-697.6,75.4-698.2,75.4z"/>
			<path id="XMLID_4132_" class="st8" d="M-693.3,75.6h-0.1C-693.4,75.6-693.3,75.6-693.3,75.6L-693.3,75.6z"/>
			<path id="XMLID_4131_" class="st8" d="M-693.4,75.6h-1.6v29.5c0.6,0,1.1-0.1,1.7-0.1V75.6C-693.3,75.6-693.4,75.6-693.4,75.6z"/>
			<path id="XMLID_4130_" class="st8" d="M-691.4,75.7v29.1c0.6,0,1.1-0.1,1.7-0.2V75.9C-690.3,75.9-690.9,75.8-691.4,75.7z"/>
			<path id="XMLID_4129_" class="st8" d="M-687.8,76.1v28.4c0.6-0.1,1.1-0.2,1.7-0.2V76.4C-686.7,76.3-687.3,76.2-687.8,76.1z"/>
			<path id="XMLID_4128_" class="st8" d="M-684.3,76.7v27.2c0.6-0.1,1.1-0.2,1.7-0.3V77C-683.1,76.9-683.7,76.8-684.3,76.7z"/>
			<path id="XMLID_4127_" class="st8" d="M-681.1,77.4v25.9c0.6-0.1,1.1-0.3,1.7-0.4v-25C-679.9,77.7-680.5,77.5-681.1,77.4z"/>
			<path id="XMLID_4126_" class="st8" d="M-677.5,78.4v23.8c0.6-0.2,1.2-0.4,1.7-0.6V79C-676.3,78.8-676.9,78.6-677.5,78.4z"/>
			<path id="XMLID_4125_" class="st8" d="M-673.9,79.9v20.9c0.6-0.3,1.2-0.6,1.7-0.9v-19C-672.7,80.5-673.3,80.2-673.9,79.9z"/>
			<path id="XMLID_4124_" class="st8" d="M-668.7,95.1v-9.5c0-1.2-0.6-2.3-1.7-3.3v16.2C-669.2,97.4-668.7,96.2-668.7,95.1z"/>
		</g>
		<path id="XMLID_4122_" class="st10" d="M-668.7,85.5c0,5.6-13.5,10.1-30.3,10.1c-16.7,0-30.3-4.5-30.3-10.1
			c0-5.6,13.5-10.1,30.3-10.1C-682.2,75.4-668.7,80-668.7,85.5z"/>
		<g id="XMLID_4118_">
			<path id="XMLID_4121_" class="st11" d="M-673.9,86.2c0,4.1-11.2,7.4-25,7.4c-13.8,0-25-3.3-25-7.4c0-4.1,11.2-7.4,25-7.4
				C-685.1,78.8-673.9,82.1-673.9,86.2z"/>
			<path id="XMLID_4120_" class="st12" d="M-673.9,84.7c0,4.1-11.2,7.4-25,7.4c-13.8,0-25-3.3-25-7.4c0-4.1,11.2-7.4,25-7.4
				C-685.1,77.3-673.9,80.6-673.9,84.7z"/>
			<path id="XMLID_4119_" class="st9" d="M-698.9,78.7c13,0,23.7,2.9,24.9,6.7c0.1-0.2,0.1-0.5,0.1-0.7c0-4.1-11.2-7.4-25-7.4
				c-13.8,0-25,3.3-25,7.4c0,0.2,0,0.5,0.1,0.7C-722.6,81.6-711.9,78.7-698.9,78.7z"/>
		</g>
	</g>
	<g id="XMLID_4089_">
		<path id="XMLID_4116_" class="st8" d="M-668.7,126.4c0,5.6-13.5,10.1-30.3,10.1l0,0c-16.7,0-30.3-4.5-30.3-10.1v-9.5
			c0-5.6,13.5-10.1,30.3-10.1l0,0c16.7,0,30.3,4.5,30.3,10.1V126.4z"/>
		<path id="XMLID_4115_" class="st9" d="M-668.7,125.2c0,5.6-13.5,10.1-30.3,10.1l0,0c-16.7,0-30.3-4.5-30.3-10.1v-9.5
			c0-5.6,13.5-10.1,30.3-10.1l0,0c16.7,0,30.3,4.5,30.3,10.1V125.2z"/>
		<g id="XMLID_4095_">
			<path id="XMLID_4114_" class="st8" d="M-729.2,115.7v9.5c0,1.1,0.6,2.2,1.6,3.2v-16C-728.6,113.5-729.2,114.6-729.2,115.7z"/>
			<path id="XMLID_4113_" class="st8" d="M-725.7,111v18.9c0.5,0.3,1.1,0.6,1.7,1V110C-724.6,110.3-725.2,110.7-725.7,111z"/>
			<path id="XMLID_4112_" class="st8" d="M-722.5,109.4v22.2c0.5,0.2,1.1,0.4,1.7,0.6v-23.5C-721.4,108.9-722,109.1-722.5,109.4z"/>
			<path id="XMLID_4111_" class="st8" d="M-718.9,108.1v24.7c0.5,0.2,1.1,0.3,1.7,0.5v-25.6C-717.8,107.8-718.4,107.9-718.9,108.1z"
				/>
			<path id="XMLID_4110_" class="st8" d="M-715.3,107.2v26.5c0.6,0.1,1.1,0.2,1.7,0.3v-27.2C-714.2,107-714.8,107.1-715.3,107.2z"/>
			<path id="XMLID_4109_" class="st8" d="M-711.8,106.5v27.8c0.6,0.1,1.1,0.2,1.7,0.2v-28.3C-710.6,106.4-711.2,106.4-711.8,106.5z"
				/>
			<path id="XMLID_4108_" class="st8" d="M-708.6,106.1v28.7c0.6,0.1,1.1,0.1,1.7,0.2v-29C-707.4,106-708,106-708.6,106.1z"/>
			<path id="XMLID_4107_" class="st8" d="M-705,105.8v29.4c0.6,0,1.1,0.1,1.7,0.1v-29.5C-703.9,105.7-704.4,105.7-705,105.8z"/>
			<path id="XMLID_4106_" class="st8" d="M-701.8,105.6v29.7c0.6,0,1.1,0,1.7,0v-29.7C-700.7,105.6-701.2,105.6-701.8,105.6z"/>
			<path id="XMLID_4105_" class="st8" d="M-698.2,105.6v29.7c0.6,0,1.1,0,1.7,0v-29.7C-697.1,105.6-697.6,105.6-698.2,105.6z"/>
			<path id="XMLID_4104_" class="st8" d="M-693.3,105.7h-0.1C-693.4,105.7-693.3,105.7-693.3,105.7L-693.3,105.7z"/>
			<path id="XMLID_4103_" class="st8" d="M-693.4,105.7h-1.6v29.5c0.6,0,1.1-0.1,1.7-0.1v-29.4
				C-693.3,105.7-693.4,105.7-693.4,105.7z"/>
			<path id="XMLID_4102_" class="st8" d="M-691.4,105.9V135c0.6,0,1.1-0.1,1.7-0.2v-28.8C-690.3,106-690.9,105.9-691.4,105.9z"/>
			<path id="XMLID_4101_" class="st8" d="M-687.8,106.3v28.4c0.6-0.1,1.1-0.2,1.7-0.2v-27.9C-686.7,106.4-687.3,106.4-687.8,106.3z"
				/>
			<path id="XMLID_4100_" class="st8" d="M-684.3,106.8v27.2c0.6-0.1,1.1-0.2,1.7-0.3v-26.6C-683.1,107.1-683.7,106.9-684.3,106.8z"
				/>
			<path id="XMLID_4099_" class="st8" d="M-681.1,107.5v25.9c0.6-0.1,1.1-0.3,1.7-0.4v-25C-679.9,107.8-680.5,107.7-681.1,107.5z"/>
			<path id="XMLID_4098_" class="st8" d="M-677.5,108.5v23.8c0.6-0.2,1.2-0.4,1.7-0.6v-22.6C-676.3,109-676.9,108.7-677.5,108.5z"/>
			<path id="XMLID_4097_" class="st8" d="M-673.9,110v20.9c0.6-0.3,1.2-0.6,1.7-0.9v-19C-672.7,110.6-673.3,110.3-673.9,110z"/>
			<path id="XMLID_4096_" class="st8" d="M-668.7,125.2v-9.5c0-1.2-0.6-2.3-1.7-3.3v16.2C-669.2,127.5-668.7,126.4-668.7,125.2z"/>
		</g>
		<path id="XMLID_4094_" class="st10" d="M-668.7,115.7c0,5.6-13.5,10.1-30.3,10.1c-16.7,0-30.3-4.5-30.3-10.1
			c0-5.6,13.5-10.1,30.3-10.1C-682.2,105.6-668.7,110.1-668.7,115.7z"/>
		<g id="XMLID_4090_">
			<path id="XMLID_4093_" class="st11" d="M-673.9,116.3c0,4.1-11.2,7.4-25,7.4c-13.8,0-25-3.3-25-7.4c0-4.1,11.2-7.4,25-7.4
				C-685.1,109-673.9,112.3-673.9,116.3z"/>
			<path id="XMLID_4092_" class="st12" d="M-673.9,114.8c0,4.1-11.2,7.4-25,7.4c-13.8,0-25-3.3-25-7.4c0-4.1,11.2-7.4,25-7.4
				C-685.1,107.5-673.9,110.8-673.9,114.8z"/>
			<path id="XMLID_4091_" class="st9" d="M-698.9,108.8c13,0,23.7,2.9,24.9,6.7c0.1-0.2,0.1-0.5,0.1-0.7c0-4.1-11.2-7.4-25-7.4
				c-13.8,0-25,3.3-25,7.4c0,0.2,0,0.5,0.1,0.7C-722.6,111.8-711.9,108.8-698.9,108.8z"/>
		</g>
	</g>
	<g id="XMLID_4061_">
		<path id="XMLID_4088_" class="st8" d="M-668.7,114.5c0,5.6-13.5,10.1-30.3,10.1l0,0c-16.7,0-30.3-4.5-30.3-10.1V105
			c0-5.6,13.5-10.1,30.3-10.1l0,0c16.7,0,30.3,4.5,30.3,10.1V114.5z"/>
		<path id="XMLID_4087_" class="st9" d="M-668.7,113.4c0,5.6-13.5,10.1-30.3,10.1l0,0c-16.7,0-30.3-4.5-30.3-10.1v-9.5
			c0-5.6,13.5-10.1,30.3-10.1l0,0c16.7,0,30.3,4.5,30.3,10.1V113.4z"/>
		<g id="XMLID_4067_">
			<path id="XMLID_4086_" class="st8" d="M-729.2,103.8v9.5c0,1.1,0.6,2.2,1.6,3.2v-16C-728.6,101.6-729.2,102.7-729.2,103.8z"/>
			<path id="XMLID_4085_" class="st8" d="M-725.7,99.2v18.9c0.5,0.3,1.1,0.6,1.7,1V98.2C-724.6,98.5-725.2,98.8-725.7,99.2z"/>
			<path id="XMLID_4084_" class="st8" d="M-722.5,97.5v22.2c0.5,0.2,1.1,0.4,1.7,0.6V96.9C-721.4,97.1-722,97.3-722.5,97.5z"/>
			<path id="XMLID_4083_" class="st8" d="M-718.9,96.3V121c0.5,0.2,1.1,0.3,1.7,0.5V95.8C-717.8,95.9-718.4,96.1-718.9,96.3z"/>
			<path id="XMLID_4082_" class="st8" d="M-715.3,95.4v26.5c0.6,0.1,1.1,0.2,1.7,0.3V95C-714.2,95.1-714.8,95.2-715.3,95.4z"/>
			<path id="XMLID_4081_" class="st8" d="M-711.8,94.7v27.8c0.6,0.1,1.1,0.2,1.7,0.2V94.4C-710.6,94.5-711.2,94.6-711.8,94.7z"/>
			<path id="XMLID_4080_" class="st8" d="M-708.6,94.3V123c0.6,0.1,1.1,0.1,1.7,0.2v-29C-707.4,94.1-708,94.2-708.6,94.3z"/>
			<path id="XMLID_4079_" class="st8" d="M-705,93.9v29.4c0.6,0,1.1,0.1,1.7,0.1V93.8C-703.9,93.9-704.4,93.9-705,93.9z"/>
			<path id="XMLID_4078_" class="st8" d="M-701.8,93.8v29.7c0.6,0,1.1,0,1.7,0V93.7C-700.7,93.7-701.2,93.8-701.8,93.8z"/>
			<path id="XMLID_4077_" class="st8" d="M-698.2,93.7v29.7c0.6,0,1.1,0,1.7,0V93.8C-697.1,93.8-697.6,93.7-698.2,93.7z"/>
			<path id="XMLID_4076_" class="st8" d="M-693.3,93.9h-0.1C-693.4,93.9-693.3,93.9-693.3,93.9L-693.3,93.9z"/>
			<path id="XMLID_4075_" class="st8" d="M-693.4,93.9h-1.6v29.5c0.6,0,1.1-0.1,1.7-0.1V93.9C-693.3,93.9-693.4,93.9-693.4,93.9z"/>
			<path id="XMLID_4074_" class="st8" d="M-691.4,94v29.1c0.6,0,1.1-0.1,1.7-0.2V94.2C-690.3,94.1-690.9,94.1-691.4,94z"/>
			<path id="XMLID_4073_" class="st8" d="M-687.8,94.4v28.4c0.6-0.1,1.1-0.2,1.7-0.2V94.7C-686.7,94.6-687.3,94.5-687.8,94.4z"/>
			<path id="XMLID_4072_" class="st8" d="M-684.3,95v27.2c0.6-0.1,1.1-0.2,1.7-0.3V95.3C-683.1,95.2-683.7,95.1-684.3,95z"/>
			<path id="XMLID_4071_" class="st8" d="M-681.1,95.7v25.9c0.6-0.1,1.1-0.3,1.7-0.4v-25C-679.9,96-680.5,95.8-681.1,95.7z"/>
			<path id="XMLID_4070_" class="st8" d="M-677.5,96.7v23.8c0.6-0.2,1.2-0.4,1.7-0.6V97.3C-676.3,97.1-676.9,96.9-677.5,96.7z"/>
			<path id="XMLID_4069_" class="st8" d="M-673.9,98.2v20.9c0.6-0.3,1.2-0.6,1.7-0.9v-19C-672.7,98.8-673.3,98.5-673.9,98.2z"/>
			<path id="XMLID_4068_" class="st8" d="M-668.7,113.4v-9.5c0-1.2-0.6-2.3-1.7-3.3v16.2C-669.2,115.7-668.7,114.5-668.7,113.4z"/>
		</g>
		<path id="XMLID_4066_" class="st10" d="M-668.7,103.8c0,5.6-13.5,10.1-30.3,10.1c-16.7,0-30.3-4.5-30.3-10.1
			c0-5.6,13.5-10.1,30.3-10.1C-682.2,93.7-668.7,98.3-668.7,103.8z"/>
		<g id="XMLID_4062_">
			<path id="XMLID_4065_" class="st11" d="M-673.9,104.5c0,4.1-11.2,7.4-25,7.4c-13.8,0-25-3.3-25-7.4c0-4.1,11.2-7.4,25-7.4
				C-685.1,97.1-673.9,100.4-673.9,104.5z"/>
			<path id="XMLID_4064_" class="st12" d="M-673.9,103c0,4.1-11.2,7.4-25,7.4c-13.8,0-25-3.3-25-7.4c0-4.1,11.2-7.4,25-7.4
				C-685.1,95.6-673.9,98.9-673.9,103z"/>
			<path id="XMLID_4063_" class="st9" d="M-698.9,97c13,0,23.7,2.9,24.9,6.7c0.1-0.2,0.1-0.5,0.1-0.7c0-4.1-11.2-7.4-25-7.4
				c-13.8,0-25,3.3-25,7.4c0,0.2,0,0.5,0.1,0.7C-722.6,99.9-711.9,97-698.9,97z"/>
		</g>
	</g>
	<g id="XMLID_4003_">
		<path id="XMLID_4060_" class="st8" d="M-668.7,103c0,5.6-13.5,10.1-30.3,10.1l0,0c-16.7,0-30.3-4.5-30.3-10.1v-9.5
			c0-5.6,13.5-10.1,30.3-10.1l0,0c16.7,0,30.3,4.5,30.3,10.1V103z"/>
		<path id="XMLID_4059_" class="st9" d="M-668.7,101.9c0,5.6-13.5,10.1-30.3,10.1l0,0c-16.7,0-30.3-4.5-30.3-10.1v-9.5
			c0-5.6,13.5-10.1,30.3-10.1l0,0c16.7,0,30.3,4.5,30.3,10.1V101.9z"/>
		<g id="XMLID_4009_">
			<path id="XMLID_4058_" class="st8" d="M-729.2,92.3v9.5c0,1.1,0.6,2.2,1.6,3.2v-16C-728.6,90.1-729.2,91.2-729.2,92.3z"/>
			<path id="XMLID_4057_" class="st8" d="M-725.7,87.6v18.9c0.5,0.3,1.1,0.6,1.7,1V86.7C-724.6,87-725.2,87.3-725.7,87.6z"/>
			<path id="XMLID_4056_" class="st8" d="M-722.5,86v22.2c0.5,0.2,1.1,0.4,1.7,0.6V85.4C-721.4,85.6-722,85.8-722.5,86z"/>
			<path id="XMLID_4055_" class="st8" d="M-718.9,84.8v24.7c0.5,0.2,1.1,0.3,1.7,0.5V84.3C-717.8,84.4-718.4,84.6-718.9,84.8z"/>
			<path id="XMLID_4054_" class="st8" d="M-715.3,83.9v26.5c0.6,0.1,1.1,0.2,1.7,0.3V83.5C-714.2,83.6-714.8,83.7-715.3,83.9z"/>
			<path id="XMLID_4044_" class="st8" d="M-711.8,83.2V111c0.6,0.1,1.1,0.2,1.7,0.2V82.9C-710.6,83-711.2,83.1-711.8,83.2z"/>
			<path id="XMLID_4039_" class="st8" d="M-708.6,82.8v28.7c0.6,0.1,1.1,0.1,1.7,0.2v-29C-707.4,82.6-708,82.7-708.6,82.8z"/>
			<path id="XMLID_4036_" class="st8" d="M-705,82.4v29.4c0.6,0,1.1,0.1,1.7,0.1V82.3C-703.9,82.4-704.4,82.4-705,82.4z"/>
			<path id="XMLID_4033_" class="st8" d="M-701.8,82.3v29.7c0.6,0,1.1,0,1.7,0V82.2C-700.7,82.2-701.2,82.3-701.8,82.3z"/>
			<path id="XMLID_4028_" class="st8" d="M-698.2,82.2V112c0.6,0,1.1,0,1.7,0V82.3C-697.1,82.2-697.6,82.2-698.2,82.2z"/>
			<path id="XMLID_4025_" class="st8" d="M-693.3,82.4h-0.1C-693.4,82.4-693.3,82.4-693.3,82.4L-693.3,82.4z"/>
			<path id="XMLID_4022_" class="st8" d="M-693.4,82.4h-1.6v29.5c0.6,0,1.1-0.1,1.7-0.1V82.4C-693.3,82.4-693.4,82.4-693.4,82.4z"/>
			<path id="XMLID_4016_" class="st8" d="M-691.4,82.5v29.1c0.6,0,1.1-0.1,1.7-0.2V82.7C-690.3,82.6-690.9,82.6-691.4,82.5z"/>
			<path id="XMLID_4015_" class="st8" d="M-687.8,82.9v28.4c0.6-0.1,1.1-0.2,1.7-0.2V83.2C-686.7,83.1-687.3,83-687.8,82.9z"/>
			<path id="XMLID_4014_" class="st8" d="M-684.3,83.5v27.2c0.6-0.1,1.1-0.2,1.7-0.3V83.8C-683.1,83.7-683.7,83.6-684.3,83.5z"/>
			<path id="XMLID_4013_" class="st8" d="M-681.1,84.2V110c0.6-0.1,1.1-0.3,1.7-0.4v-25C-679.9,84.5-680.5,84.3-681.1,84.2z"/>
			<path id="XMLID_4012_" class="st8" d="M-677.5,85.2V109c0.6-0.2,1.2-0.4,1.7-0.6V85.8C-676.3,85.6-676.9,85.4-677.5,85.2z"/>
			<path id="XMLID_4011_" class="st8" d="M-673.9,86.7v20.9c0.6-0.3,1.2-0.6,1.7-0.9v-19C-672.7,87.3-673.3,87-673.9,86.7z"/>
			<path id="XMLID_4010_" class="st8" d="M-668.7,101.9v-9.5c0-1.2-0.6-2.3-1.7-3.3v16.2C-669.2,104.2-668.7,103-668.7,101.9z"/>
		</g>
		<path id="XMLID_4008_" class="st10" d="M-668.7,92.3c0,5.6-13.5,10.1-30.3,10.1c-16.7,0-30.3-4.5-30.3-10.1
			c0-5.6,13.5-10.1,30.3-10.1C-682.2,82.2-668.7,86.8-668.7,92.3z"/>
		<g id="XMLID_4004_">
			<path id="XMLID_4007_" class="st11" d="M-673.9,93c0,4.1-11.2,7.4-25,7.4c-13.8,0-25-3.3-25-7.4c0-4.1,11.2-7.4,25-7.4
				C-685.1,85.6-673.9,88.9-673.9,93z"/>
			<path id="XMLID_4006_" class="st12" d="M-673.9,91.5c0,4.1-11.2,7.4-25,7.4c-13.8,0-25-3.3-25-7.4c0-4.1,11.2-7.4,25-7.4
				C-685.1,84.1-673.9,87.4-673.9,91.5z"/>
			<path id="XMLID_4005_" class="st9" d="M-698.9,85.5c13,0,23.7,2.9,24.9,6.7c0.1-0.2,0.1-0.5,0.1-0.7c0-4.1-11.2-7.4-25-7.4
				c-13.8,0-25,3.3-25,7.4c0,0.2,0,0.5,0.1,0.7C-722.6,88.4-711.9,85.5-698.9,85.5z"/>
		</g>
	</g>
	<g id="XMLID_3972_">
		<path id="XMLID_4002_" class="st8" d="M-668.7,91c0,5.6-13.5,10.1-30.3,10.1l0,0c-16.7,0-30.3-4.5-30.3-10.1v-9.5
			c0-5.6,13.5-10.1,30.3-10.1l0,0c16.7,0,30.3,4.5,30.3,10.1V91z"/>
		<path id="XMLID_4001_" class="st9" d="M-668.7,89.9c0,5.6-13.5,10.1-30.3,10.1l0,0c-16.7,0-30.3-4.5-30.3-10.1v-9.5
			c0-5.6,13.5-10.1,30.3-10.1l0,0c16.7,0,30.3,4.5,30.3,10.1V89.9z"/>
		<g id="XMLID_3978_">
			<path id="XMLID_4000_" class="st8" d="M-729.2,80.4v9.5c0,1.1,0.6,2.2,1.6,3.2v-16C-728.6,78.2-729.2,79.2-729.2,80.4z"/>
			<path id="XMLID_3999_" class="st8" d="M-725.7,75.7v18.9c0.5,0.3,1.1,0.6,1.7,1V74.7C-724.6,75-725.2,75.3-725.7,75.7z"/>
			<path id="XMLID_3998_" class="st8" d="M-722.5,74v22.2c0.5,0.2,1.1,0.4,1.7,0.6V73.4C-721.4,73.6-722,73.8-722.5,74z"/>
			<path id="XMLID_3997_" class="st8" d="M-718.9,72.8v24.7c0.5,0.2,1.1,0.3,1.7,0.5V72.3C-717.8,72.5-718.4,72.6-718.9,72.8z"/>
			<path id="XMLID_3996_" class="st8" d="M-715.3,71.9v26.5c0.6,0.1,1.1,0.2,1.7,0.3V71.5C-714.2,71.6-714.8,71.8-715.3,71.9z"/>
			<path id="XMLID_3995_" class="st8" d="M-711.8,71.2v27.8c0.6,0.1,1.1,0.2,1.7,0.2V71C-710.6,71-711.2,71.1-711.8,71.2z"/>
			<path id="XMLID_3994_" class="st8" d="M-708.6,70.8v28.7c0.6,0.1,1.1,0.1,1.7,0.2v-29C-707.4,70.7-708,70.7-708.6,70.8z"/>
			<path id="XMLID_3993_" class="st8" d="M-705,70.5v29.4c0.6,0,1.1,0.1,1.7,0.1V70.4C-703.9,70.4-704.4,70.4-705,70.5z"/>
			<path id="XMLID_3992_" class="st8" d="M-701.8,70.3V100c0.6,0,1.1,0,1.7,0V70.3C-700.7,70.3-701.2,70.3-701.8,70.3z"/>
			<path id="XMLID_3991_" class="st8" d="M-698.2,70.3V100c0.6,0,1.1,0,1.7,0V70.3C-697.1,70.3-697.6,70.3-698.2,70.3z"/>
			<path id="XMLID_3990_" class="st8" d="M-693.3,70.4h-0.1C-693.4,70.4-693.3,70.4-693.3,70.4L-693.3,70.4z"/>
			<path id="XMLID_3989_" class="st8" d="M-693.4,70.4h-1.6v29.5c0.6,0,1.1-0.1,1.7-0.1V70.4C-693.3,70.4-693.4,70.4-693.4,70.4z"/>
			<path id="XMLID_3988_" class="st8" d="M-691.4,70.6v29.1c0.6,0,1.1-0.1,1.7-0.2V70.7C-690.3,70.7-690.9,70.6-691.4,70.6z"/>
			<path id="XMLID_3987_" class="st8" d="M-687.8,71v28.4c0.6-0.1,1.1-0.2,1.7-0.2V71.2C-686.7,71.1-687.3,71-687.8,71z"/>
			<path id="XMLID_3986_" class="st8" d="M-684.3,71.5v27.2c0.6-0.1,1.1-0.2,1.7-0.3V71.9C-683.1,71.7-683.7,71.6-684.3,71.5z"/>
			<path id="XMLID_3985_" class="st8" d="M-681.1,72.2v25.9c0.6-0.1,1.1-0.3,1.7-0.4v-25C-679.9,72.5-680.5,72.3-681.1,72.2z"/>
			<path id="XMLID_3984_" class="st8" d="M-677.5,73.2V97c0.6-0.2,1.2-0.4,1.7-0.6V73.8C-676.3,73.6-676.9,73.4-677.5,73.2z"/>
			<path id="XMLID_3981_" class="st8" d="M-673.9,74.7v20.9c0.6-0.3,1.2-0.6,1.7-0.9v-19C-672.7,75.3-673.3,75-673.9,74.7z"/>
			<path id="XMLID_3979_" class="st8" d="M-668.7,89.9v-9.5c0-1.2-0.6-2.3-1.7-3.3v16.2C-669.2,92.2-668.7,91.1-668.7,89.9z"/>
		</g>
		<path id="XMLID_3977_" class="st10" d="M-668.7,80.4c0,5.6-13.5,10.1-30.3,10.1c-16.7,0-30.3-4.5-30.3-10.1
			c0-5.6,13.5-10.1,30.3-10.1C-682.2,70.2-668.7,74.8-668.7,80.4z"/>
		<g id="XMLID_3973_">
			<path id="XMLID_3976_" class="st11" d="M-673.9,81c0,4.1-11.2,7.4-25,7.4c-13.8,0-25-3.3-25-7.4c0-4.1,11.2-7.4,25-7.4
				C-685.1,73.6-673.9,76.9-673.9,81z"/>
			<path id="XMLID_3975_" class="st12" d="M-673.9,79.5c0,4.1-11.2,7.4-25,7.4c-13.8,0-25-3.3-25-7.4c0-4.1,11.2-7.4,25-7.4
				C-685.1,72.1-673.9,75.4-673.9,79.5z"/>
			<path id="XMLID_3974_" class="st9" d="M-698.9,73.5c13,0,23.7,2.9,24.9,6.7c0.1-0.2,0.1-0.5,0.1-0.7c0-4.1-11.2-7.4-25-7.4
				c-13.8,0-25,3.3-25,7.4c0,0.2,0,0.5,0.1,0.7C-722.6,76.5-711.9,73.5-698.9,73.5z"/>
		</g>
	</g>
	<g id="XMLID_3944_">
		<path id="XMLID_3971_" class="st8" d="M-668.7,79c0,5.6-13.5,10.1-30.3,10.1l0,0c-16.7,0-30.3-4.5-30.3-10.1v-9.5
			c0-5.6,13.5-10.1,30.3-10.1l0,0c16.7,0,30.3,4.5,30.3,10.1V79z"/>
		<path id="XMLID_3970_" class="st9" d="M-668.7,77.8c0,5.6-13.5,10.1-30.3,10.1l0,0c-16.7,0-30.3-4.5-30.3-10.1v-9.5
			c0-5.6,13.5-10.1,30.3-10.1l0,0c16.7,0,30.3,4.5,30.3,10.1V77.8z"/>
		<g id="XMLID_3950_">
			<path id="XMLID_3969_" class="st8" d="M-729.2,68.3v9.5c0,1.1,0.6,2.2,1.6,3.2v-16C-728.6,66.1-729.2,67.2-729.2,68.3z"/>
			<path id="XMLID_3968_" class="st8" d="M-725.7,63.6v18.9c0.5,0.3,1.1,0.6,1.7,1V62.6C-724.6,63-725.2,63.3-725.7,63.6z"/>
			<path id="XMLID_3967_" class="st8" d="M-722.5,62v22.2c0.5,0.2,1.1,0.4,1.7,0.6V61.3C-721.4,61.5-722,61.7-722.5,62z"/>
			<path id="XMLID_3966_" class="st8" d="M-718.9,60.7v24.7c0.5,0.2,1.1,0.3,1.7,0.5V60.2C-717.8,60.4-718.4,60.6-718.9,60.7z"/>
			<path id="XMLID_3965_" class="st8" d="M-715.3,59.8v26.5c0.6,0.1,1.1,0.2,1.7,0.3V59.5C-714.2,59.6-714.8,59.7-715.3,59.8z"/>
			<path id="XMLID_3964_" class="st8" d="M-711.8,59.1V87c0.6,0.1,1.1,0.2,1.7,0.2V58.9C-710.6,59-711.2,59.1-711.8,59.1z"/>
			<path id="XMLID_3963_" class="st8" d="M-708.6,58.7v28.7c0.6,0.1,1.1,0.1,1.7,0.2v-29C-707.4,58.6-708,58.6-708.6,58.7z"/>
			<path id="XMLID_3962_" class="st8" d="M-705,58.4v29.4c0.6,0,1.1,0.1,1.7,0.1V58.3C-703.9,58.3-704.4,58.3-705,58.4z"/>
			<path id="XMLID_3961_" class="st8" d="M-701.8,58.2v29.7c0.6,0,1.1,0,1.7,0V58.2C-700.7,58.2-701.2,58.2-701.8,58.2z"/>
			<path id="XMLID_3960_" class="st8" d="M-698.2,58.2v29.7c0.6,0,1.1,0,1.7,0V58.2C-697.1,58.2-697.6,58.2-698.2,58.2z"/>
			<path id="XMLID_3959_" class="st8" d="M-693.3,58.4h-0.1C-693.4,58.4-693.3,58.4-693.3,58.4L-693.3,58.4z"/>
			<path id="XMLID_3958_" class="st8" d="M-693.4,58.4h-1.6v29.5c0.6,0,1.1-0.1,1.7-0.1V58.4C-693.3,58.4-693.4,58.4-693.4,58.4z"/>
			<path id="XMLID_3957_" class="st8" d="M-691.4,58.5v29.1c0.6,0,1.1-0.1,1.7-0.2V58.7C-690.3,58.6-690.9,58.5-691.4,58.5z"/>
			<path id="XMLID_3956_" class="st8" d="M-687.8,58.9v28.4c0.6-0.1,1.1-0.2,1.7-0.2V59.1C-686.7,59-687.3,59-687.8,58.9z"/>
			<path id="XMLID_3955_" class="st8" d="M-684.3,59.4v27.2c0.6-0.1,1.1-0.2,1.7-0.3V59.8C-683.1,59.7-683.7,59.6-684.3,59.4z"/>
			<path id="XMLID_3954_" class="st8" d="M-681.1,60.1V86c0.6-0.1,1.1-0.3,1.7-0.4v-25C-679.9,60.4-680.5,60.3-681.1,60.1z"/>
			<path id="XMLID_3953_" class="st8" d="M-677.5,61.2V85c0.6-0.2,1.2-0.4,1.7-0.6V61.8C-676.3,61.6-676.9,61.4-677.5,61.2z"/>
			<path id="XMLID_3952_" class="st8" d="M-673.9,62.6v20.9c0.6-0.3,1.2-0.6,1.7-0.9v-19C-672.7,63.2-673.3,62.9-673.9,62.6z"/>
			<path id="XMLID_3951_" class="st8" d="M-668.7,77.8v-9.5c0-1.2-0.6-2.3-1.7-3.3v16.2C-669.2,80.1-668.7,79-668.7,77.8z"/>
		</g>
		<path id="XMLID_3949_" class="st10" d="M-668.7,68.3c0,5.6-13.5,10.1-30.3,10.1c-16.7,0-30.3-4.5-30.3-10.1
			c0-5.6,13.5-10.1,30.3-10.1C-682.2,58.2-668.7,62.7-668.7,68.3z"/>
		<g id="XMLID_3945_">
			<path id="XMLID_3948_" class="st11" d="M-673.9,68.9c0,4.1-11.2,7.4-25,7.4c-13.8,0-25-3.3-25-7.4c0-4.1,11.2-7.4,25-7.4
				C-685.1,61.6-673.9,64.9-673.9,68.9z"/>
			<path id="XMLID_3947_" class="st12" d="M-673.9,67.4c0,4.1-11.2,7.4-25,7.4c-13.8,0-25-3.3-25-7.4c0-4.1,11.2-7.4,25-7.4
				C-685.1,60.1-673.9,63.4-673.9,67.4z"/>
			<path id="XMLID_3946_" class="st9" d="M-698.9,61.5c13,0,23.7,2.9,24.9,6.7c0.1-0.2,0.1-0.5,0.1-0.7c0-4.1-11.2-7.4-25-7.4
				c-13.8,0-25,3.3-25,7.4c0,0.2,0,0.5,0.1,0.7C-722.6,64.4-711.9,61.5-698.9,61.5z"/>
		</g>
	</g>
	<g id="XMLID_3911_">
		<path id="XMLID_3943_" class="st8" d="M-668.7,66.9c0,5.6-13.5,10.1-30.3,10.1l0,0c-16.7,0-30.3-4.5-30.3-10.1v-9.5
			c0-5.6,13.5-10.1,30.3-10.1l0,0c16.7,0,30.3,4.5,30.3,10.1V66.9z"/>
		<path id="XMLID_3942_" class="st9" d="M-668.7,65.8c0,5.6-13.5,10.1-30.3,10.1l0,0c-16.7,0-30.3-4.5-30.3-10.1v-9.5
			c0-5.6,13.5-10.1,30.3-10.1l0,0c16.7,0,30.3,4.5,30.3,10.1V65.8z"/>
		<g id="XMLID_3922_">
			<path id="XMLID_3941_" class="st8" d="M-729.2,56.2v9.5c0,1.1,0.6,2.2,1.6,3.2V53C-728.6,54-729.2,55.1-729.2,56.2z"/>
			<path id="XMLID_3940_" class="st8" d="M-725.7,51.5v18.9c0.5,0.3,1.1,0.6,1.7,1V50.6C-724.6,50.9-725.2,51.2-725.7,51.5z"/>
			<path id="XMLID_3939_" class="st8" d="M-722.5,49.9v22.2c0.5,0.2,1.1,0.4,1.7,0.6V49.3C-721.4,49.5-722,49.7-722.5,49.9z"/>
			<path id="XMLID_3938_" class="st8" d="M-718.9,48.6v24.7c0.5,0.2,1.1,0.3,1.7,0.5V48.2C-717.8,48.3-718.4,48.5-718.9,48.6z"/>
			<path id="XMLID_3937_" class="st8" d="M-715.3,47.7v26.5c0.6,0.1,1.1,0.2,1.7,0.3V47.4C-714.2,47.5-714.8,47.6-715.3,47.7z"/>
			<path id="XMLID_3936_" class="st8" d="M-711.8,47.1v27.8c0.6,0.1,1.1,0.2,1.7,0.2V46.8C-710.6,46.9-711.2,47-711.8,47.1z"/>
			<path id="XMLID_3935_" class="st8" d="M-708.6,46.6v28.7c0.6,0.1,1.1,0.1,1.7,0.2v-29C-707.4,46.5-708,46.6-708.6,46.6z"/>
			<path id="XMLID_3934_" class="st8" d="M-705,46.3v29.4c0.6,0,1.1,0.1,1.7,0.1V46.2C-703.9,46.2-704.4,46.3-705,46.3z"/>
			<path id="XMLID_3933_" class="st8" d="M-701.8,46.2v29.7c0.6,0,1.1,0,1.7,0V46.1C-700.7,46.1-701.2,46.1-701.8,46.2z"/>
			<path id="XMLID_3932_" class="st8" d="M-698.2,46.1v29.7c0.6,0,1.1,0,1.7,0V46.1C-697.1,46.1-697.6,46.1-698.2,46.1z"/>
			<path id="XMLID_3931_" class="st8" d="M-693.3,46.3h-0.1C-693.4,46.3-693.3,46.3-693.3,46.3L-693.3,46.3z"/>
			<path id="XMLID_3930_" class="st8" d="M-693.4,46.3h-1.6v29.5c0.6,0,1.1-0.1,1.7-0.1V46.3C-693.3,46.3-693.4,46.3-693.4,46.3z"/>
			<path id="XMLID_3929_" class="st8" d="M-691.4,46.4v29.1c0.6,0,1.1-0.1,1.7-0.2V46.6C-690.3,46.5-690.9,46.5-691.4,46.4z"/>
			<path id="XMLID_3928_" class="st8" d="M-687.8,46.8v28.4c0.6-0.1,1.1-0.2,1.7-0.2V47.1C-686.7,47-687.3,46.9-687.8,46.8z"/>
			<path id="XMLID_3927_" class="st8" d="M-684.3,47.4v27.2c0.6-0.1,1.1-0.2,1.7-0.3V47.7C-683.1,47.6-683.7,47.5-684.3,47.4z"/>
			<path id="XMLID_3926_" class="st8" d="M-681.1,48.1v25.9c0.6-0.1,1.1-0.3,1.7-0.4v-25C-679.9,48.4-680.5,48.2-681.1,48.1z"/>
			<path id="XMLID_3925_" class="st8" d="M-677.5,49.1v23.8c0.6-0.2,1.2-0.4,1.7-0.6V49.7C-676.3,49.5-676.9,49.3-677.5,49.1z"/>
			<path id="XMLID_3924_" class="st8" d="M-673.9,50.5v20.9c0.6-0.3,1.2-0.6,1.7-0.9v-19C-672.7,51.1-673.3,50.8-673.9,50.5z"/>
			<path id="XMLID_3923_" class="st8" d="M-668.7,65.8v-9.5c0-1.2-0.6-2.3-1.7-3.3v16.2C-669.2,68-668.7,66.9-668.7,65.8z"/>
		</g>
		<path id="XMLID_3921_" class="st10" d="M-668.7,56.2c0,5.6-13.5,10.1-30.3,10.1c-16.7,0-30.3-4.5-30.3-10.1
			c0-5.6,13.5-10.1,30.3-10.1C-682.2,46.1-668.7,50.6-668.7,56.2z"/>
		<g id="XMLID_3917_">
			<path id="XMLID_3920_" class="st11" d="M-673.9,56.8c0,4.1-11.2,7.4-25,7.4c-13.8,0-25-3.3-25-7.4c0-4.1,11.2-7.4,25-7.4
				C-685.1,49.5-673.9,52.8-673.9,56.8z"/>
			<path id="XMLID_3919_" class="st12" d="M-673.9,55.4c0,4.1-11.2,7.4-25,7.4c-13.8,0-25-3.3-25-7.4c0-4.1,11.2-7.4,25-7.4
				C-685.1,48-673.9,51.3-673.9,55.4z"/>
			<path id="XMLID_3918_" class="st9" d="M-698.9,49.4c13,0,23.7,2.9,24.9,6.7c0.1-0.2,0.1-0.5,0.1-0.7c0-4.1-11.2-7.4-25-7.4
				c-13.8,0-25,3.3-25,7.4c0,0.2,0,0.5,0.1,0.7C-722.6,52.3-711.9,49.4-698.9,49.4z"/>
		</g>
	</g>
	<g id="XMLID_3488_">
		<path id="XMLID_3906_" class="st8" d="M-643.5,137.8c0,5.6-13.5,10.1-30.3,10.1l0,0c-16.7,0-30.3-4.5-30.3-10.1v-9.5
			c0-5.6,13.5-10.1,30.3-10.1l0,0c16.7,0,30.3,4.5,30.3,10.1V137.8z"/>
		<path id="XMLID_3905_" class="st9" d="M-643.5,136.7c0,5.6-13.5,10.1-30.3,10.1l0,0c-16.7,0-30.3-4.5-30.3-10.1v-9.5
			c0-5.6,13.5-10.1,30.3-10.1l0,0c16.7,0,30.3,4.5,30.3,10.1V136.7z"/>
		<g id="XMLID_3494_">
			<path id="XMLID_3524_" class="st8" d="M-704,127.1v9.5c0,1.1,0.6,2.2,1.6,3.2v-16C-703.5,124.9-704,126-704,127.1z"/>
			<path id="XMLID_3523_" class="st8" d="M-700.6,122.4v18.9c0.5,0.3,1.1,0.6,1.7,1v-20.8C-699.5,121.8-700.1,122.1-700.6,122.4z"/>
			<path id="XMLID_3522_" class="st8" d="M-697.4,120.8V143c0.5,0.2,1.1,0.4,1.7,0.6v-23.5C-696.3,120.4-696.8,120.6-697.4,120.8z"
				/>
			<path id="XMLID_3521_" class="st8" d="M-693.8,119.6v24.7c0.5,0.2,1.1,0.3,1.7,0.5v-25.6C-692.7,119.2-693.2,119.4-693.8,119.6z"
				/>
			<path id="XMLID_3520_" class="st8" d="M-690.2,118.6v26.5c0.6,0.1,1.1,0.2,1.7,0.3v-27.2C-689.1,118.4-689.7,118.5-690.2,118.6z"
				/>
			<path id="XMLID_3514_" class="st8" d="M-686.6,118v27.8c0.6,0.1,1.1,0.2,1.7,0.2v-28.3C-685.5,117.8-686.1,117.9-686.6,118z"/>
			<path id="XMLID_3507_" class="st8" d="M-683.4,117.6v28.7c0.6,0.1,1.1,0.1,1.7,0.2v-29C-682.3,117.4-682.9,117.5-683.4,117.6z"/>
			<path id="XMLID_3506_" class="st8" d="M-679.9,117.2v29.4c0.6,0,1.1,0.1,1.7,0.1v-29.5C-678.7,117.2-679.3,117.2-679.9,117.2z"/>
			<path id="XMLID_3505_" class="st8" d="M-676.7,117.1v29.7c0.6,0,1.1,0,1.7,0V117C-675.5,117-676.1,117.1-676.7,117.1z"/>
			<path id="XMLID_3504_" class="st8" d="M-673.1,117v29.7c0.6,0,1.1,0,1.7,0v-29.7C-671.9,117-672.5,117-673.1,117z"/>
			<path id="XMLID_3503_" class="st8" d="M-668.2,117.2h-0.1C-668.3,117.2-668.2,117.2-668.2,117.2L-668.2,117.2z"/>
			<path id="XMLID_3502_" class="st8" d="M-668.3,117.2h-1.6v29.5c0.6,0,1.1-0.1,1.7-0.1v-29.4
				C-668.2,117.2-668.3,117.2-668.3,117.2z"/>
			<path id="XMLID_3501_" class="st8" d="M-666.3,117.3v29.1c0.6,0,1.1-0.1,1.7-0.2v-28.8C-665.2,117.4-665.7,117.4-666.3,117.3z"/>
			<path id="XMLID_3500_" class="st8" d="M-662.7,117.7v28.4c0.6-0.1,1.1-0.2,1.7-0.2V118C-661.6,117.9-662.1,117.8-662.7,117.7z"/>
			<path id="XMLID_3499_" class="st8" d="M-659.1,118.3v27.2c0.6-0.1,1.1-0.2,1.7-0.3v-26.6C-658,118.5-658.6,118.4-659.1,118.3z"/>
			<path id="XMLID_3498_" class="st8" d="M-655.9,119v25.9c0.6-0.1,1.1-0.3,1.7-0.4v-25C-654.8,119.3-655.4,119.1-655.9,119z"/>
			<path id="XMLID_3497_" class="st8" d="M-652.4,120v23.8c0.6-0.2,1.2-0.4,1.7-0.6v-22.6C-651.2,120.4-651.8,120.2-652.4,120z"/>
			<path id="XMLID_3496_" class="st8" d="M-648.8,121.4v20.9c0.6-0.3,1.2-0.6,1.7-0.9v-19C-647.6,122.1-648.2,121.7-648.8,121.4z"/>
			<path id="XMLID_3495_" class="st8" d="M-643.5,136.7v-9.5c0-1.2-0.6-2.3-1.7-3.3V140C-644.1,138.9-643.5,137.8-643.5,136.7z"/>
		</g>
		<path id="XMLID_3493_" class="st10" d="M-643.5,127.1c0,5.6-13.5,10.1-30.3,10.1c-16.7,0-30.3-4.5-30.3-10.1
			c0-5.6,13.5-10.1,30.3-10.1C-657.1,117-643.5,121.5-643.5,127.1z"/>
		<g id="XMLID_3489_">
			<path id="XMLID_3492_" class="st11" d="M-648.7,127.8c0,4.1-11.2,7.4-25,7.4c-13.8,0-25-3.3-25-7.4c0-4.1,11.2-7.4,25-7.4
				C-659.9,120.4-648.7,123.7-648.7,127.8z"/>
			<path id="XMLID_3491_" class="st12" d="M-648.7,126.3c0,4.1-11.2,7.4-25,7.4c-13.8,0-25-3.3-25-7.4c0-4.1,11.2-7.4,25-7.4
				C-659.9,118.9-648.7,122.2-648.7,126.3z"/>
			<path id="XMLID_3490_" class="st9" d="M-673.8,120.3c13,0,23.7,2.9,24.9,6.7c0.1-0.2,0.1-0.5,0.1-0.7c0-4.1-11.2-7.4-25-7.4
				c-13.8,0-25,3.3-25,7.4c0,0.2,0,0.5,0.1,0.7C-697.5,123.2-686.8,120.3-673.8,120.3z"/>
		</g>
	</g>
	<g id="XMLID_3460_">
		<path id="XMLID_3487_" class="st8" d="M-643.5,126c0,5.6-13.5,10.1-30.3,10.1l0,0c-16.7,0-30.3-4.5-30.3-10.1v-9.5
			c0-5.6,13.5-10.1,30.3-10.1l0,0c16.7,0,30.3,4.5,30.3,10.1V126z"/>
		<path id="XMLID_3486_" class="st9" d="M-643.5,124.8c0,5.6-13.5,10.1-30.3,10.1l0,0c-16.7,0-30.3-4.5-30.3-10.1v-9.5
			c0-5.6,13.5-10.1,30.3-10.1l0,0c16.7,0,30.3,4.5,30.3,10.1V124.8z"/>
		<g id="XMLID_3466_">
			<path id="XMLID_3485_" class="st8" d="M-704,115.3v9.5c0,1.1,0.6,2.2,1.6,3.2v-16C-703.5,113.1-704,114.2-704,115.3z"/>
			<path id="XMLID_3484_" class="st8" d="M-700.6,110.6v18.9c0.5,0.3,1.1,0.6,1.7,1v-20.8C-699.5,110-700.1,110.3-700.6,110.6z"/>
			<path id="XMLID_3483_" class="st8" d="M-697.4,109v22.2c0.5,0.2,1.1,0.4,1.7,0.6v-23.5C-696.3,108.5-696.8,108.7-697.4,109z"/>
			<path id="XMLID_3482_" class="st8" d="M-693.8,107.7v24.7c0.5,0.2,1.1,0.3,1.7,0.5v-25.6C-692.7,107.4-693.2,107.6-693.8,107.7z"
				/>
			<path id="XMLID_3481_" class="st8" d="M-690.2,106.8v26.5c0.6,0.1,1.1,0.2,1.7,0.3v-27.2C-689.1,106.6-689.7,106.7-690.2,106.8z"
				/>
			<path id="XMLID_3480_" class="st8" d="M-686.6,106.1V134c0.6,0.1,1.1,0.2,1.7,0.2v-28.3C-685.5,106-686.1,106.1-686.6,106.1z"/>
			<path id="XMLID_3479_" class="st8" d="M-683.4,105.7v28.7c0.6,0.1,1.1,0.1,1.7,0.2v-29C-682.3,105.6-682.9,105.6-683.4,105.7z"/>
			<path id="XMLID_3478_" class="st8" d="M-679.9,105.4v29.4c0.6,0,1.1,0.1,1.7,0.1v-29.5C-678.7,105.3-679.3,105.3-679.9,105.4z"/>
			<path id="XMLID_3477_" class="st8" d="M-676.7,105.2v29.7c0.6,0,1.1,0,1.7,0v-29.7C-675.5,105.2-676.1,105.2-676.7,105.2z"/>
			<path id="XMLID_3476_" class="st8" d="M-673.1,105.2v29.7c0.6,0,1.1,0,1.7,0v-29.7C-671.9,105.2-672.5,105.2-673.1,105.2z"/>
			<path id="XMLID_3475_" class="st8" d="M-668.2,105.4h-0.1C-668.3,105.4-668.2,105.4-668.2,105.4L-668.2,105.4z"/>
			<path id="XMLID_3474_" class="st8" d="M-668.3,105.4h-1.6v29.5c0.6,0,1.1-0.1,1.7-0.1v-29.4
				C-668.2,105.4-668.3,105.4-668.3,105.4z"/>
			<path id="XMLID_3473_" class="st8" d="M-666.3,105.5v29.1c0.6,0,1.1-0.1,1.7-0.2v-28.8C-665.2,105.6-665.7,105.5-666.3,105.5z"/>
			<path id="XMLID_3472_" class="st8" d="M-662.7,105.9v28.4c0.6-0.1,1.1-0.2,1.7-0.2v-27.9C-661.6,106-662.1,106-662.7,105.9z"/>
			<path id="XMLID_3471_" class="st8" d="M-659.1,106.4v27.2c0.6-0.1,1.1-0.2,1.7-0.3v-26.6C-658,106.7-658.6,106.6-659.1,106.4z"/>
			<path id="XMLID_3470_" class="st8" d="M-655.9,107.1V133c0.6-0.1,1.1-0.3,1.7-0.4v-25C-654.8,107.4-655.4,107.3-655.9,107.1z"/>
			<path id="XMLID_3469_" class="st8" d="M-652.4,108.2V132c0.6-0.2,1.2-0.4,1.7-0.6v-22.6C-651.2,108.6-651.8,108.4-652.4,108.2z"
				/>
			<path id="XMLID_3468_" class="st8" d="M-648.8,109.6v20.9c0.6-0.3,1.2-0.6,1.7-0.9v-19C-647.6,110.2-648.2,109.9-648.8,109.6z"/>
			<path id="XMLID_3467_" class="st8" d="M-643.5,124.8v-9.5c0-1.2-0.6-2.3-1.7-3.3v16.2C-644.1,127.1-643.5,126-643.5,124.8z"/>
		</g>
		<path id="XMLID_3465_" class="st10" d="M-643.5,115.3c0,5.6-13.5,10.1-30.3,10.1c-16.7,0-30.3-4.5-30.3-10.1
			c0-5.6,13.5-10.1,30.3-10.1C-657.1,105.2-643.5,109.7-643.5,115.3z"/>
		<g id="XMLID_3461_">
			<path id="XMLID_3464_" class="st11" d="M-648.7,115.9c0,4.1-11.2,7.4-25,7.4c-13.8,0-25-3.3-25-7.4c0-4.1,11.2-7.4,25-7.4
				C-659.9,108.6-648.7,111.9-648.7,115.9z"/>
			<path id="XMLID_3463_" class="st12" d="M-648.7,114.4c0,4.1-11.2,7.4-25,7.4c-13.8,0-25-3.3-25-7.4c0-4.1,11.2-7.4,25-7.4
				C-659.9,107.1-648.7,110.4-648.7,114.4z"/>
			<path id="XMLID_3462_" class="st9" d="M-673.8,108.5c13,0,23.7,2.9,24.9,6.7c0.1-0.2,0.1-0.5,0.1-0.7c0-4.1-11.2-7.4-25-7.4
				c-13.8,0-25,3.3-25,7.4c0,0.2,0,0.5,0.1,0.7C-697.5,111.4-686.8,108.5-673.8,108.5z"/>
		</g>
	</g>
	<g id="XMLID_3391_">
		<path id="XMLID_3455_" class="st8" d="M-698.1,139.8c0,5.6-13.5,10.1-30.3,10.1l0,0c-16.7,0-30.3-4.5-30.3-10.1v-9.5
			c0-5.6,13.5-10.1,30.3-10.1l0,0c16.7,0,30.3,4.5,30.3,10.1V139.8z"/>
		<path id="XMLID_3453_" class="st9" d="M-698.1,138.6c0,5.6-13.5,10.1-30.3,10.1l0,0c-16.7,0-30.3-4.5-30.3-10.1v-9.5
			c0-5.6,13.5-10.1,30.3-10.1l0,0c16.7,0,30.3,4.5,30.3,10.1V138.6z"/>
		<g id="XMLID_3402_">
			<path id="XMLID_3452_" class="st8" d="M-758.6,129.1v9.5c0,1.1,0.6,2.2,1.6,3.2v-16C-758,126.9-758.6,128-758.6,129.1z"/>
			<path id="XMLID_3449_" class="st8" d="M-755.1,124.4v18.9c0.5,0.3,1.1,0.6,1.7,1v-20.8C-754,123.8-754.6,124.1-755.1,124.4z"/>
			<path id="XMLID_3448_" class="st8" d="M-751.9,122.8V145c0.5,0.2,1.1,0.4,1.7,0.6v-23.5C-750.8,122.3-751.4,122.6-751.9,122.8z"
				/>
			<path id="XMLID_3447_" class="st8" d="M-748.3,121.5v24.7c0.5,0.2,1.1,0.3,1.7,0.5v-25.6C-747.2,121.2-747.8,121.4-748.3,121.5z"
				/>
			<path id="XMLID_3446_" class="st8" d="M-744.8,120.6v26.5c0.6,0.1,1.1,0.2,1.7,0.3v-27.2C-743.6,120.4-744.2,120.5-744.8,120.6z"
				/>
			<path id="XMLID_3445_" class="st8" d="M-741.2,120v27.8c0.6,0.1,1.1,0.2,1.7,0.2v-28.3C-740.1,119.8-740.6,119.9-741.2,120z"/>
			<path id="XMLID_3444_" class="st8" d="M-738,119.5v28.7c0.6,0.1,1.1,0.1,1.7,0.2v-29C-736.9,119.4-737.4,119.5-738,119.5z"/>
			<path id="XMLID_3438_" class="st8" d="M-734.4,119.2v29.4c0.6,0,1.1,0.1,1.7,0.1v-29.5C-733.3,119.1-733.8,119.2-734.4,119.2z"/>
			<path id="XMLID_3429_" class="st8" d="M-731.2,119v29.7c0.6,0,1.1,0,1.7,0V119C-730.1,119-730.6,119-731.2,119z"/>
			<path id="XMLID_3428_" class="st8" d="M-727.6,119v29.7c0.6,0,1.1,0,1.7,0V119C-726.5,119-727,119-727.6,119z"/>
			<path id="XMLID_3418_" class="st8" d="M-722.7,119.2h-0.1C-722.8,119.2-722.8,119.2-722.7,119.2L-722.7,119.2z"/>
			<path id="XMLID_3417_" class="st8" d="M-722.8,119.2h-1.6v29.5c0.6,0,1.1-0.1,1.7-0.1v-29.4
				C-722.8,119.2-722.8,119.2-722.8,119.2z"/>
			<path id="XMLID_3416_" class="st8" d="M-720.8,119.3v29.1c0.6,0,1.1-0.1,1.7-0.2v-28.8C-719.7,119.4-720.3,119.4-720.8,119.3z"/>
			<path id="XMLID_3415_" class="st8" d="M-717.3,119.7v28.4c0.6-0.1,1.1-0.2,1.7-0.2v-27.9C-716.1,119.9-716.7,119.8-717.3,119.7z"
				/>
			<path id="XMLID_3413_" class="st8" d="M-713.7,120.3v27.2c0.6-0.1,1.1-0.2,1.7-0.3v-26.6C-712.5,120.5-713.1,120.4-713.7,120.3z"
				/>
			<path id="XMLID_3412_" class="st8" d="M-710.5,120.9v25.9c0.6-0.1,1.1-0.3,1.7-0.4v-25C-709.3,121.2-709.9,121.1-710.5,120.9z"/>
			<path id="XMLID_3411_" class="st8" d="M-706.9,122v23.8c0.6-0.2,1.2-0.4,1.7-0.6v-22.6C-705.7,122.4-706.3,122.2-706.9,122z"/>
			<path id="XMLID_3410_" class="st8" d="M-703.3,123.4v20.9c0.6-0.3,1.2-0.6,1.7-0.9v-19C-702.1,124-702.7,123.7-703.3,123.4z"/>
			<path id="XMLID_3405_" class="st8" d="M-698.1,138.6v-9.5c0-1.2-0.6-2.3-1.7-3.3V142C-698.7,140.9-698.1,139.8-698.1,138.6z"/>
		</g>
		<path id="XMLID_3401_" class="st10" d="M-698.1,129.1c0,5.6-13.5,10.1-30.3,10.1c-16.7,0-30.3-4.5-30.3-10.1
			c0-5.6,13.5-10.1,30.3-10.1C-711.6,119-698.1,123.5-698.1,129.1z"/>
		<g id="XMLID_3392_">
			<path id="XMLID_3400_" class="st11" d="M-703.3,129.7c0,4.1-11.2,7.4-25,7.4c-13.8,0-25-3.3-25-7.4c0-4.1,11.2-7.4,25-7.4
				C-714.5,122.4-703.3,125.7-703.3,129.7z"/>
			<path id="XMLID_3399_" class="st12" d="M-703.3,128.2c0,4.1-11.2,7.4-25,7.4c-13.8,0-25-3.3-25-7.4c0-4.1,11.2-7.4,25-7.4
				C-714.5,120.9-703.3,124.2-703.3,128.2z"/>
			<path id="XMLID_3397_" class="st9" d="M-728.3,122.3c13,0,23.7,2.9,24.9,6.7c0.1-0.2,0.1-0.5,0.1-0.7c0-4.1-11.2-7.4-25-7.4
				c-13.8,0-25,3.3-25,7.4c0,0.2,0,0.5,0.1,0.7C-752,125.2-741.4,122.3-728.3,122.3z"/>
		</g>
	</g>
	<g id="XMLID_2911_">
		<path id="XMLID_3387_" class="st8" d="M-698.1,127.9c0,5.6-13.5,10.1-30.3,10.1l0,0c-16.7,0-30.3-4.5-30.3-10.1v-9.5
			c0-5.6,13.5-10.1,30.3-10.1l0,0c16.7,0,30.3,4.5,30.3,10.1V127.9z"/>
		<path id="XMLID_3386_" class="st9" d="M-698.1,126.8c0,5.6-13.5,10.1-30.3,10.1l0,0c-16.7,0-30.3-4.5-30.3-10.1v-9.5
			c0-5.6,13.5-10.1,30.3-10.1l0,0c16.7,0,30.3,4.5,30.3,10.1V126.8z"/>
		<g id="XMLID_2926_">
			<path id="XMLID_3385_" class="st8" d="M-758.6,117.3v9.5c0,1.1,0.6,2.2,1.6,3.2v-16C-758,115.1-758.6,116.1-758.6,117.3z"/>
			<path id="XMLID_3384_" class="st8" d="M-755.1,112.6v18.9c0.5,0.3,1.1,0.6,1.7,1v-20.8C-754,111.9-754.6,112.2-755.1,112.6z"/>
			<path id="XMLID_3383_" class="st8" d="M-751.9,110.9v22.2c0.5,0.2,1.1,0.4,1.7,0.6v-23.5C-750.8,110.5-751.4,110.7-751.9,110.9z"
				/>
			<path id="XMLID_3381_" class="st8" d="M-748.3,109.7v24.7c0.5,0.2,1.1,0.3,1.7,0.5v-25.6C-747.2,109.4-747.8,109.5-748.3,109.7z"
				/>
			<path id="XMLID_3380_" class="st8" d="M-744.8,108.8v26.5c0.6,0.1,1.1,0.2,1.7,0.3v-27.2C-743.6,108.5-744.2,108.7-744.8,108.8z"
				/>
			<path id="XMLID_3375_" class="st8" d="M-741.2,108.1V136c0.6,0.1,1.1,0.2,1.7,0.2v-28.3C-740.1,107.9-740.6,108-741.2,108.1z"/>
			<path id="XMLID_3374_" class="st8" d="M-738,107.7v28.7c0.6,0.1,1.1,0.1,1.7,0.2v-29C-736.9,107.6-737.4,107.6-738,107.7z"/>
			<path id="XMLID_3373_" class="st8" d="M-734.4,107.4v29.4c0.6,0,1.1,0.1,1.7,0.1v-29.5C-733.3,107.3-733.8,107.3-734.4,107.4z"/>
			<path id="XMLID_3372_" class="st8" d="M-731.2,107.2v29.7c0.6,0,1.1,0,1.7,0v-29.7C-730.1,107.2-730.6,107.2-731.2,107.2z"/>
			<path id="XMLID_3371_" class="st8" d="M-727.6,107.2v29.7c0.6,0,1.1,0,1.7,0v-29.7C-726.5,107.2-727,107.2-727.6,107.2z"/>
			<path id="XMLID_3370_" class="st8" d="M-722.7,107.3h-0.1C-722.8,107.3-722.8,107.3-722.7,107.3L-722.7,107.3z"/>
			<path id="XMLID_3367_" class="st8" d="M-722.8,107.3h-1.6v29.5c0.6,0,1.1-0.1,1.7-0.1v-29.4
				C-722.8,107.3-722.8,107.3-722.8,107.3z"/>
			<path id="XMLID_3366_" class="st8" d="M-720.8,107.5v29.1c0.6,0,1.1-0.1,1.7-0.2v-28.8C-719.7,107.6-720.3,107.5-720.8,107.5z"/>
			<path id="XMLID_3365_" class="st8" d="M-717.3,107.9v28.4c0.6-0.1,1.1-0.2,1.7-0.2v-27.9C-716.1,108-716.7,107.9-717.3,107.9z"/>
			<path id="XMLID_3326_" class="st8" d="M-713.7,108.4v27.2c0.6-0.1,1.1-0.2,1.7-0.3v-26.6C-712.5,108.6-713.1,108.5-713.7,108.4z"
				/>
			<path id="XMLID_3325_" class="st8" d="M-710.5,109.1V135c0.6-0.1,1.1-0.3,1.7-0.4v-25C-709.3,109.4-709.9,109.2-710.5,109.1z"/>
			<path id="XMLID_3320_" class="st8" d="M-706.9,110.1v23.8c0.6-0.2,1.2-0.4,1.7-0.6v-22.6C-705.7,110.5-706.3,110.3-706.9,110.1z"
				/>
			<path id="XMLID_3319_" class="st8" d="M-703.3,111.6v20.9c0.6-0.3,1.2-0.6,1.7-0.9v-19C-702.1,112.2-702.7,111.9-703.3,111.6z"/>
			<path id="XMLID_3318_" class="st8" d="M-698.1,126.8v-9.5c0-1.2-0.6-2.3-1.7-3.3v16.2C-698.7,129.1-698.1,128-698.1,126.8z"/>
		</g>
		<path id="XMLID_2924_" class="st10" d="M-698.1,117.3c0,5.6-13.5,10.1-30.3,10.1c-16.7,0-30.3-4.5-30.3-10.1
			c0-5.6,13.5-10.1,30.3-10.1C-711.6,107.1-698.1,111.7-698.1,117.3z"/>
		<g id="XMLID_2918_">
			<path id="XMLID_2921_" class="st11" d="M-703.3,117.9c0,4.1-11.2,7.4-25,7.4c-13.8,0-25-3.3-25-7.4c0-4.1,11.2-7.4,25-7.4
				C-714.5,110.5-703.3,113.8-703.3,117.9z"/>
			<path id="XMLID_2920_" class="st12" d="M-703.3,116.4c0,4.1-11.2,7.4-25,7.4c-13.8,0-25-3.3-25-7.4c0-4.1,11.2-7.4,25-7.4
				C-714.5,109-703.3,112.3-703.3,116.4z"/>
			<path id="XMLID_2919_" class="st9" d="M-728.3,110.4c13,0,23.7,2.9,24.9,6.7c0.1-0.2,0.1-0.5,0.1-0.7c0-4.1-11.2-7.4-25-7.4
				c-13.8,0-25,3.3-25,7.4c0,0.2,0,0.5,0.1,0.7C-752,113.3-741.4,110.4-728.3,110.4z"/>
		</g>
	</g>
	<g id="XMLID_2518_">
		<path id="XMLID_2910_" class="st8" d="M-643.5,113.9c0,5.6-13.5,10.1-30.3,10.1l0,0c-16.7,0-30.3-4.5-30.3-10.1v-9.5
			c0-5.6,13.5-10.1,30.3-10.1l0,0c16.7,0,30.3,4.5,30.3,10.1V113.9z"/>
		<path id="XMLID_2907_" class="st9" d="M-643.5,112.7c0,5.6-13.5,10.1-30.3,10.1l0,0c-16.7,0-30.3-4.5-30.3-10.1v-9.5
			c0-5.6,13.5-10.1,30.3-10.1l0,0c16.7,0,30.3,4.5,30.3,10.1V112.7z"/>
		<g id="XMLID_2872_">
			<path id="XMLID_2904_" class="st8" d="M-704,103.2v9.5c0,1.1,0.6,2.2,1.6,3.2v-16C-703.5,101-704,102.1-704,103.2z"/>
			<path id="XMLID_2903_" class="st8" d="M-700.6,98.5v18.9c0.5,0.3,1.1,0.6,1.7,1V97.6C-699.5,97.9-700.1,98.2-700.6,98.5z"/>
			<path id="XMLID_2902_" class="st8" d="M-697.4,96.9v22.2c0.5,0.2,1.1,0.4,1.7,0.6V96.3C-696.3,96.5-696.8,96.7-697.4,96.9z"/>
			<path id="XMLID_2896_" class="st8" d="M-693.8,95.6v24.7c0.5,0.2,1.1,0.3,1.7,0.5V95.2C-692.7,95.3-693.2,95.5-693.8,95.6z"/>
			<path id="XMLID_2893_" class="st8" d="M-690.2,94.7v26.5c0.6,0.1,1.1,0.2,1.7,0.3V94.4C-689.1,94.5-689.7,94.6-690.2,94.7z"/>
			<path id="XMLID_2892_" class="st8" d="M-686.6,94.1v27.8c0.6,0.1,1.1,0.2,1.7,0.2V93.8C-685.5,93.9-686.1,94-686.6,94.1z"/>
			<path id="XMLID_2889_" class="st8" d="M-683.4,93.6v28.7c0.6,0.1,1.1,0.1,1.7,0.2v-29C-682.3,93.5-682.9,93.6-683.4,93.6z"/>
			<path id="XMLID_2888_" class="st8" d="M-679.9,93.3v29.4c0.6,0,1.1,0.1,1.7,0.1V93.2C-678.7,93.2-679.3,93.3-679.9,93.3z"/>
			<path id="XMLID_2887_" class="st8" d="M-676.7,93.2v29.7c0.6,0,1.1,0,1.7,0V93.1C-675.5,93.1-676.1,93.1-676.7,93.2z"/>
			<path id="XMLID_2885_" class="st8" d="M-673.1,93.1v29.7c0.6,0,1.1,0,1.7,0V93.1C-671.9,93.1-672.5,93.1-673.1,93.1z"/>
			<path id="XMLID_2884_" class="st8" d="M-668.2,93.3h-0.1C-668.3,93.3-668.2,93.3-668.2,93.3L-668.2,93.3z"/>
			<path id="XMLID_2883_" class="st8" d="M-668.3,93.3h-1.6v29.5c0.6,0,1.1-0.1,1.7-0.1V93.3C-668.2,93.3-668.3,93.3-668.3,93.3z"/>
			<path id="XMLID_2881_" class="st8" d="M-666.3,93.4v29.1c0.6,0,1.1-0.1,1.7-0.2V93.6C-665.2,93.5-665.7,93.5-666.3,93.4z"/>
			<path id="XMLID_2880_" class="st8" d="M-662.7,93.8v28.4c0.6-0.1,1.1-0.2,1.7-0.2V94.1C-661.6,94-662.1,93.9-662.7,93.8z"/>
			<path id="XMLID_2879_" class="st8" d="M-659.1,94.4v27.2c0.6-0.1,1.1-0.2,1.7-0.3V94.7C-658,94.6-658.6,94.5-659.1,94.4z"/>
			<path id="XMLID_2878_" class="st8" d="M-655.9,95.1v25.9c0.6-0.1,1.1-0.3,1.7-0.4v-25C-654.8,95.4-655.4,95.2-655.9,95.1z"/>
			<path id="XMLID_2877_" class="st8" d="M-652.4,96.1v23.8c0.6-0.2,1.2-0.4,1.7-0.6V96.7C-651.2,96.5-651.8,96.3-652.4,96.1z"/>
			<path id="XMLID_2876_" class="st8" d="M-648.8,97.5v20.9c0.6-0.3,1.2-0.6,1.7-0.9v-19C-647.6,98.1-648.2,97.8-648.8,97.5z"/>
			<path id="XMLID_2875_" class="st8" d="M-643.5,112.8v-9.5c0-1.2-0.6-2.3-1.7-3.3v16.2C-644.1,115-643.5,113.9-643.5,112.8z"/>
		</g>
		<path id="XMLID_2649_" class="st10" d="M-643.5,103.2c0,5.6-13.5,10.1-30.3,10.1c-16.7,0-30.3-4.5-30.3-10.1
			c0-5.6,13.5-10.1,30.3-10.1C-657.1,93.1-643.5,97.6-643.5,103.2z"/>
		<g id="XMLID_2519_">
			<path id="XMLID_2522_" class="st11" d="M-648.7,103.8c0,4.1-11.2,7.4-25,7.4c-13.8,0-25-3.3-25-7.4c0-4.1,11.2-7.4,25-7.4
				C-659.9,96.5-648.7,99.8-648.7,103.8z"/>
			<path id="XMLID_2521_" class="st12" d="M-648.7,102.4c0,4.1-11.2,7.4-25,7.4c-13.8,0-25-3.3-25-7.4c0-4.1,11.2-7.4,25-7.4
				C-659.9,95-648.7,98.3-648.7,102.4z"/>
			<path id="XMLID_2520_" class="st9" d="M-673.8,96.4c13,0,23.7,2.9,24.9,6.7c0.1-0.2,0.1-0.5,0.1-0.7c0-4.1-11.2-7.4-25-7.4
				c-13.8,0-25,3.3-25,7.4c0,0.2,0,0.5,0.1,0.7C-697.5,99.3-686.8,96.4-673.8,96.4z"/>
		</g>
	</g>
	<g id="XMLID_2471_">
		<path id="XMLID_2517_" class="st8" d="M-698.1,116.4c0,5.6-13.5,10.1-30.3,10.1l0,0c-16.7,0-30.3-4.5-30.3-10.1v-9.5
			c0-5.6,13.5-10.1,30.3-10.1l0,0c16.7,0,30.3,4.5,30.3,10.1V116.4z"/>
		<path id="XMLID_2516_" class="st9" d="M-698.1,115.3c0,5.6-13.5,10.1-30.3,10.1l0,0c-16.7,0-30.3-4.5-30.3-10.1v-9.5
			c0-5.6,13.5-10.1,30.3-10.1l0,0c16.7,0,30.3,4.5,30.3,10.1V115.3z"/>
		<g id="XMLID_2483_">
			<path id="XMLID_2515_" class="st8" d="M-758.6,105.8v9.5c0,1.1,0.6,2.2,1.6,3.2v-16C-758,103.6-758.6,104.6-758.6,105.8z"/>
			<path id="XMLID_2513_" class="st8" d="M-755.1,101.1V120c0.5,0.3,1.1,0.6,1.7,1v-20.8C-754,100.4-754.6,100.7-755.1,101.1z"/>
			<path id="XMLID_2505_" class="st8" d="M-751.9,99.4v22.2c0.5,0.2,1.1,0.4,1.7,0.6V98.8C-750.8,99-751.4,99.2-751.9,99.4z"/>
			<path id="XMLID_2504_" class="st8" d="M-748.3,98.2v24.7c0.5,0.2,1.1,0.3,1.7,0.5V97.7C-747.2,97.9-747.8,98-748.3,98.2z"/>
			<path id="XMLID_2503_" class="st8" d="M-744.8,97.3v26.5c0.6,0.1,1.1,0.2,1.7,0.3V96.9C-743.6,97-744.2,97.2-744.8,97.3z"/>
			<path id="XMLID_2502_" class="st8" d="M-741.2,96.6v27.8c0.6,0.1,1.1,0.2,1.7,0.2V96.4C-740.1,96.4-740.6,96.5-741.2,96.6z"/>
			<path id="XMLID_2501_" class="st8" d="M-738,96.2v28.7c0.6,0.1,1.1,0.1,1.7,0.2V96C-736.9,96.1-737.4,96.1-738,96.2z"/>
			<path id="XMLID_2500_" class="st8" d="M-734.4,95.9v29.4c0.6,0,1.1,0.1,1.7,0.1V95.8C-733.3,95.8-733.8,95.8-734.4,95.9z"/>
			<path id="XMLID_2499_" class="st8" d="M-731.2,95.7v29.7c0.6,0,1.1,0,1.7,0V95.7C-730.1,95.7-730.6,95.7-731.2,95.7z"/>
			<path id="XMLID_2498_" class="st8" d="M-727.6,95.7v29.7c0.6,0,1.1,0,1.7,0V95.7C-726.5,95.7-727,95.7-727.6,95.7z"/>
			<path id="XMLID_2497_" class="st8" d="M-722.7,95.8h-0.1C-722.8,95.8-722.8,95.8-722.7,95.8L-722.7,95.8z"/>
			<path id="XMLID_2496_" class="st8" d="M-722.8,95.8h-1.6v29.5c0.6,0,1.1-0.1,1.7-0.1V95.8C-722.8,95.8-722.8,95.8-722.8,95.8z"/>
			<path id="XMLID_2490_" class="st8" d="M-720.8,96v29.1c0.6,0,1.1-0.1,1.7-0.2V96.1C-719.7,96.1-720.3,96-720.8,96z"/>
			<path id="XMLID_2489_" class="st8" d="M-717.3,96.3v28.4c0.6-0.1,1.1-0.2,1.7-0.2V96.6C-716.1,96.5-716.7,96.4-717.3,96.3z"/>
			<path id="XMLID_2488_" class="st8" d="M-713.7,96.9v27.2c0.6-0.1,1.1-0.2,1.7-0.3V97.3C-712.5,97.1-713.1,97-713.7,96.9z"/>
			<path id="XMLID_2487_" class="st8" d="M-710.5,97.6v25.9c0.6-0.1,1.1-0.3,1.7-0.4V98C-709.3,97.9-709.9,97.7-710.5,97.6z"/>
			<path id="XMLID_2486_" class="st8" d="M-706.9,98.6v23.8c0.6-0.2,1.2-0.4,1.7-0.6V99.2C-705.7,99-706.3,98.8-706.9,98.6z"/>
			<path id="XMLID_2485_" class="st8" d="M-703.3,100.1V121c0.6-0.3,1.2-0.6,1.7-0.9v-19C-702.1,100.7-702.7,100.4-703.3,100.1z"/>
			<path id="XMLID_2484_" class="st8" d="M-698.1,115.3v-9.5c0-1.2-0.6-2.3-1.7-3.3v16.2C-698.7,117.6-698.1,116.5-698.1,115.3z"/>
		</g>
		<path id="XMLID_2482_" class="st10" d="M-698.1,105.8c0,5.6-13.5,10.1-30.3,10.1c-16.7,0-30.3-4.5-30.3-10.1
			c0-5.6,13.5-10.1,30.3-10.1C-711.6,95.6-698.1,100.2-698.1,105.8z"/>
		<g id="XMLID_2472_">
			<path id="XMLID_2481_" class="st11" d="M-703.3,106.4c0,4.1-11.2,7.4-25,7.4c-13.8,0-25-3.3-25-7.4c0-4.1,11.2-7.4,25-7.4
				C-714.5,99-703.3,102.3-703.3,106.4z"/>
			<path id="XMLID_2480_" class="st12" d="M-703.3,104.9c0,4.1-11.2,7.4-25,7.4c-13.8,0-25-3.3-25-7.4c0-4.1,11.2-7.4,25-7.4
				C-714.5,97.5-703.3,100.8-703.3,104.9z"/>
			<path id="XMLID_2473_" class="st9" d="M-728.3,98.9c13,0,23.7,2.9,24.9,6.7c0.1-0.2,0.1-0.5,0.1-0.7c0-4.1-11.2-7.4-25-7.4
				c-13.8,0-25,3.3-25,7.4c0,0.2,0,0.5,0.1,0.7C-752,101.8-741.4,98.9-728.3,98.9z"/>
		</g>
	</g>
	<g id="XMLID_953_">
		<path id="XMLID_2470_" class="st8" d="M-698.1,104.5c0,5.6-13.5,10.1-30.3,10.1l0,0c-16.7,0-30.3-4.5-30.3-10.1v-9.5
			c0-5.6,13.5-10.1,30.3-10.1l0,0c16.7,0,30.3,4.5,30.3,10.1V104.5z"/>
		<path id="XMLID_2469_" class="st9" d="M-698.1,103.3c0,5.6-13.5,10.1-30.3,10.1l0,0c-16.7,0-30.3-4.5-30.3-10.1v-9.5
			c0-5.6,13.5-10.1,30.3-10.1l0,0c16.7,0,30.3,4.5,30.3,10.1V103.3z"/>
		<g id="XMLID_2432_">
			<path id="XMLID_2468_" class="st8" d="M-758.6,93.8v9.5c0,1.1,0.6,2.2,1.6,3.2v-16C-758,91.6-758.6,92.7-758.6,93.8z"/>
			<path id="XMLID_2466_" class="st8" d="M-755.1,89.1V108c0.5,0.3,1.1,0.6,1.7,1V88.1C-754,88.4-754.6,88.8-755.1,89.1z"/>
			<path id="XMLID_2465_" class="st8" d="M-751.9,87.5v22.2c0.5,0.2,1.1,0.4,1.7,0.6V86.8C-750.8,87-751.4,87.2-751.9,87.5z"/>
			<path id="XMLID_2464_" class="st8" d="M-748.3,86.2v24.7c0.5,0.2,1.1,0.3,1.7,0.5V85.7C-747.2,85.9-747.8,86-748.3,86.2z"/>
			<path id="XMLID_2463_" class="st8" d="M-744.8,85.3v26.5c0.6,0.1,1.1,0.2,1.7,0.3V85C-743.6,85.1-744.2,85.2-744.8,85.3z"/>
			<path id="XMLID_2462_" class="st8" d="M-741.2,84.6v27.8c0.6,0.1,1.1,0.2,1.7,0.2V84.4C-740.1,84.5-740.6,84.5-741.2,84.6z"/>
			<path id="XMLID_2461_" class="st8" d="M-738,84.2v28.7c0.6,0.1,1.1,0.1,1.7,0.2V84C-736.9,84.1-737.4,84.1-738,84.2z"/>
			<path id="XMLID_2453_" class="st8" d="M-734.4,83.9v29.4c0.6,0,1.1,0.1,1.7,0.1V83.8C-733.3,83.8-733.8,83.8-734.4,83.9z"/>
			<path id="XMLID_2452_" class="st8" d="M-731.2,83.7v29.7c0.6,0,1.1,0,1.7,0V83.7C-730.1,83.7-730.6,83.7-731.2,83.7z"/>
			<path id="XMLID_2451_" class="st8" d="M-727.6,83.7v29.7c0.6,0,1.1,0,1.7,0V83.7C-726.5,83.7-727,83.7-727.6,83.7z"/>
			<path id="XMLID_2450_" class="st8" d="M-722.7,83.8h-0.1C-722.8,83.8-722.8,83.8-722.7,83.8L-722.7,83.8z"/>
			<path id="XMLID_2449_" class="st8" d="M-722.8,83.8h-1.6v29.5c0.6,0,1.1-0.1,1.7-0.1V83.8C-722.8,83.8-722.8,83.8-722.8,83.8z"/>
			<path id="XMLID_2446_" class="st8" d="M-720.8,84v29.1c0.6,0,1.1-0.1,1.7-0.2V84.1C-719.7,84.1-720.3,84-720.8,84z"/>
			<path id="XMLID_2445_" class="st8" d="M-717.3,84.4v28.4c0.6-0.1,1.1-0.2,1.7-0.2V84.6C-716.1,84.5-716.7,84.4-717.3,84.4z"/>
			<path id="XMLID_2444_" class="st8" d="M-713.7,84.9v27.2c0.6-0.1,1.1-0.2,1.7-0.3V85.3C-712.5,85.2-713.1,85-713.7,84.9z"/>
			<path id="XMLID_2443_" class="st8" d="M-710.5,85.6v25.9c0.6-0.1,1.1-0.3,1.7-0.4v-25C-709.3,85.9-709.9,85.8-710.5,85.6z"/>
			<path id="XMLID_2436_" class="st8" d="M-706.9,86.6v23.8c0.6-0.2,1.2-0.4,1.7-0.6V87.3C-705.7,87.1-706.3,86.8-706.9,86.6z"/>
			<path id="XMLID_2434_" class="st8" d="M-703.3,88.1V109c0.6-0.3,1.2-0.6,1.7-0.9V89C-702.1,88.7-702.7,88.4-703.3,88.1z"/>
			<path id="XMLID_2433_" class="st8" d="M-698.1,103.3v-9.5c0-1.2-0.6-2.3-1.7-3.3v16.2C-698.7,105.6-698.1,104.5-698.1,103.3z"/>
		</g>
		<path id="XMLID_2428_" class="st10" d="M-698.1,93.8c0,5.6-13.5,10.1-30.3,10.1c-16.7,0-30.3-4.5-30.3-10.1
			c0-5.6,13.5-10.1,30.3-10.1C-711.6,83.7-698.1,88.2-698.1,93.8z"/>
		<g id="XMLID_2418_">
			<path id="XMLID_2427_" class="st11" d="M-703.3,94.4c0,4.1-11.2,7.4-25,7.4c-13.8,0-25-3.3-25-7.4c0-4.1,11.2-7.4,25-7.4
				C-714.5,87-703.3,90.3-703.3,94.4z"/>
			<path id="XMLID_2421_" class="st12" d="M-703.3,92.9c0,4.1-11.2,7.4-25,7.4c-13.8,0-25-3.3-25-7.4c0-4.1,11.2-7.4,25-7.4
				C-714.5,85.6-703.3,88.9-703.3,92.9z"/>
			<path id="XMLID_2419_" class="st9" d="M-728.3,86.9c13,0,23.7,2.9,24.9,6.7c0.1-0.2,0.1-0.5,0.1-0.7c0-4.1-11.2-7.4-25-7.4
				c-13.8,0-25,3.3-25,7.4c0,0.2,0,0.5,0.1,0.7C-752,89.9-741.4,86.9-728.3,86.9z"/>
		</g>
	</g>
	<g id="XMLID_119_">
		<path id="XMLID_951_" class="st8" d="M-698.1,92.4c0,5.6-13.5,10.1-30.3,10.1l0,0c-16.7,0-30.3-4.5-30.3-10.1v-9.5
			c0-5.6,13.5-10.1,30.3-10.1l0,0c16.7,0,30.3,4.5,30.3,10.1V92.4z"/>
		<path id="XMLID_920_" class="st9" d="M-698.1,91.2c0,5.6-13.5,10.1-30.3,10.1l0,0c-16.7,0-30.3-4.5-30.3-10.1v-9.5
			c0-5.6,13.5-10.1,30.3-10.1l0,0c16.7,0,30.3,4.5,30.3,10.1V91.2z"/>
		<g id="XMLID_152_">
			<path id="XMLID_917_" class="st8" d="M-758.6,81.7v9.5c0,1.1,0.6,2.2,1.6,3.2v-16C-758,79.5-758.6,80.6-758.6,81.7z"/>
			<path id="XMLID_894_" class="st8" d="M-755.1,77v18.9c0.5,0.3,1.1,0.6,1.7,1V76.1C-754,76.4-754.6,76.7-755.1,77z"/>
			<path id="XMLID_882_" class="st8" d="M-751.9,75.4v22.2c0.5,0.2,1.1,0.4,1.7,0.6V74.7C-750.8,74.9-751.4,75.2-751.9,75.4z"/>
			<path id="XMLID_880_" class="st8" d="M-748.3,74.1v24.7c0.5,0.2,1.1,0.3,1.7,0.5V73.7C-747.2,73.8-747.8,74-748.3,74.1z"/>
			<path id="XMLID_642_" class="st8" d="M-744.8,73.2v26.5c0.6,0.1,1.1,0.2,1.7,0.3V72.9C-743.6,73-744.2,73.1-744.8,73.2z"/>
			<path id="XMLID_403_" class="st8" d="M-741.2,72.6v27.8c0.6,0.1,1.1,0.2,1.7,0.2V72.3C-740.1,72.4-740.6,72.5-741.2,72.6z"/>
			<path id="XMLID_402_" class="st8" d="M-738,72.1v28.7c0.6,0.1,1.1,0.1,1.7,0.2V72C-736.9,72-737.4,72.1-738,72.1z"/>
			<path id="XMLID_396_" class="st8" d="M-734.4,71.8v29.4c0.6,0,1.1,0.1,1.7,0.1V71.7C-733.3,71.7-733.8,71.8-734.4,71.8z"/>
			<path id="XMLID_198_" class="st8" d="M-731.2,71.6v29.7c0.6,0,1.1,0,1.7,0V71.6C-730.1,71.6-730.6,71.6-731.2,71.6z"/>
			<path id="XMLID_196_" class="st8" d="M-727.6,71.6v29.7c0.6,0,1.1,0,1.7,0V71.6C-726.5,71.6-727,71.6-727.6,71.6z"/>
			<path id="XMLID_195_" class="st8" d="M-722.7,71.8h-0.1C-722.8,71.8-722.8,71.8-722.7,71.8L-722.7,71.8z"/>
			<path id="XMLID_184_" class="st8" d="M-722.8,71.8h-1.6v29.5c0.6,0,1.1-0.1,1.7-0.1V71.8C-722.8,71.8-722.8,71.8-722.8,71.8z"/>
			<path id="XMLID_183_" class="st8" d="M-720.8,71.9V101c0.6,0,1.1-0.1,1.7-0.2V72.1C-719.7,72-720.3,72-720.8,71.9z"/>
			<path id="XMLID_182_" class="st8" d="M-717.3,72.3v28.4c0.6-0.1,1.1-0.2,1.7-0.2V72.5C-716.1,72.5-716.7,72.4-717.3,72.3z"/>
			<path id="XMLID_181_" class="st8" d="M-713.7,72.9v27.2c0.6-0.1,1.1-0.2,1.7-0.3V73.2C-712.5,73.1-713.1,73-713.7,72.9z"/>
			<path id="XMLID_179_" class="st8" d="M-710.5,73.5v25.9c0.6-0.1,1.1-0.3,1.7-0.4V74C-709.3,73.8-709.9,73.7-710.5,73.5z"/>
			<path id="XMLID_168_" class="st8" d="M-706.9,74.6v23.8c0.6-0.2,1.2-0.4,1.7-0.6V75.2C-705.7,75-706.3,74.8-706.9,74.6z"/>
			<path id="XMLID_165_" class="st8" d="M-703.3,76v20.9c0.6-0.3,1.2-0.6,1.7-0.9V77C-702.1,76.6-702.7,76.3-703.3,76z"/>
			<path id="XMLID_164_" class="st8" d="M-698.1,91.2v-9.5c0-1.2-0.6-2.3-1.7-3.3v16.2C-698.7,93.5-698.1,92.4-698.1,91.2z"/>
		</g>
		<path id="XMLID_146_" class="st10" d="M-698.1,81.7c0,5.6-13.5,10.1-30.3,10.1c-16.7,0-30.3-4.5-30.3-10.1
			c0-5.6,13.5-10.1,30.3-10.1C-711.6,71.6-698.1,76.1-698.1,81.7z"/>
		<g id="XMLID_133_">
			<path id="XMLID_144_" class="st11" d="M-703.3,82.3c0,4.1-11.2,7.4-25,7.4c-13.8,0-25-3.3-25-7.4c0-4.1,11.2-7.4,25-7.4
				C-714.5,75-703.3,78.3-703.3,82.3z"/>
			<path id="XMLID_143_" class="st12" d="M-703.3,80.8c0,4.1-11.2,7.4-25,7.4c-13.8,0-25-3.3-25-7.4c0-4.1,11.2-7.4,25-7.4
				C-714.5,73.5-703.3,76.8-703.3,80.8z"/>
			<path id="XMLID_141_" class="st9" d="M-728.3,74.9c13,0,23.7,2.9,24.9,6.7c0.1-0.2,0.1-0.5,0.1-0.7c0-4.1-11.2-7.4-25-7.4
				c-13.8,0-25,3.3-25,7.4c0,0.2,0,0.5,0.1,0.7C-752,77.8-741.4,74.9-728.3,74.9z"/>
		</g>
	</g>
</g>
<g id="XMLID_166_">
	<path id="XMLID_4181_" class="st13" d="M-719.8,200.3c54.7,9.6,106.8-26.9,116.5-81.6c4.8-27.4-1.9-54.1-16.7-75.2l12.5-8.8
		c1.1-0.8,0.9-2.5-0.4-3l-19.1-6.7l-20-7c-1.1-0.4-2.2,0.4-2.3,1.6l-0.2,21.2l-0.2,20.3c0,1.4,1.5,2.2,2.7,1.4l12.4-8.7
		c12.1,17.3,17.7,39.3,13.7,61.7c-7.9,44.9-50.7,74.9-95.7,67c-21.2-3.7-39.1-15.3-51.2-31.1l-14,11.3
		C-767.1,181.9-745.4,195.7-719.8,200.3z"/>
	<path id="XMLID_4180_" class="st13" d="M-644.5,18.9c-11.7-8.2-25.3-14.1-40.4-16.7c-54.7-9.6-106.8,26.9-116.5,81.6
		c-4.8,27.2,1.8,53.8,16.4,74.8l-12.5,8.7c-1.1,0.8-0.9,2.5,0.4,3l19.1,6.7l20,7c1.1,0.4,2.2-0.4,2.3-1.6l0.2-21.2l0.2-20.3
		c0-1.4-1.5-2.2-2.7-1.4l-12.4,8.7c-12-17.3-17.4-39.1-13.5-61.4c7.9-44.9,50.7-74.9,95.7-67c14.7,2.6,27.8,8.9,38.5,17.9l0.2-17.4
		c0,0-0.1-1.4,0.4-1.8c0.4-0.4,1-0.9,1.9-0.5L-644.5,18.9z"/>
</g>
<path id="XMLID_552_" class="st0" d="M-2654.6,228v199l1280,0V228c-198.9-76.9-414.6-119-640-119S-2455.8,151.1-2654.6,228z"/>
<path id="XMLID_551_" class="st6" d="M-1374.6,205.7c-164.1-63.5-339.7-103.2-522.7-115.2c-9.8-0.6-18.3-7.3-20.9-16.7
	c-11.7-42.2-50.4-73.2-96.4-73.2s-84.7,31-96.4,73.2c-2.6,9.5-11.1,16.1-20.9,16.7c-183,12-358.6,51.7-522.7,115.2v30.5
	c128.1-49.6,263.3-84.7,403.5-103.4c62.8-8.4,125.8,9.5,176.3,47.6c16.7,12.6,37.6,20.1,60.1,20.1s43.4-7.5,60.1-20.1
	c50.6-38.1,113.6-56,176.3-47.6c140.2,18.7,275.4,53.8,403.5,103.4V205.7z"/>
<path id="XMLID_550_" class="st2" d="M-1954.5,180.5c-16.7,12.6-37.6,20.1-60.1,20.1c-22.6,0-43.4-7.5-60.1-20.1
	c-50.6-38.1-113.6-56-176.3-47.6c-140.2,18.7-275.4,53.8-403.5,103.4v5.3c128.1-49.6,263.3-84.7,403.5-103.4
	c62.8-8.4,125.8,9.5,176.3,47.6c16.7,12.6,37.6,20.1,60.1,20.1c22.6,0,43.4-7.5,60.1-20.1c50.6-38.1,113.6-56,176.3-47.6
	c140.2,18.7,275.4,53.8,403.5,103.4v-5.3c-128.1-49.6-263.3-84.7-403.5-103.4C-1840.9,124.5-1904,142.4-1954.5,180.5z"/>
<circle id="XMLID_549_" class="st7" cx="-2014.6" cy="100.9" r="82.6"/>
<g id="XMLID_2_">
	<path id="XMLID_274_" class="st1" d="M-1958,73.9c0,10.6-8.6,19.2-19.2,19.2c-10.6,0-19.2-8.6-19.2-19.2c0-10.6,8.6-19.2,19.2-19.2
		C-1966.6,54.7-1958,63.3-1958,73.9"/>
	<path id="XMLID_268_" class="st1" d="M-2032.9,73.9c0,10.6-8.6,19.2-19.2,19.2c-10.6,0-19.2-8.6-19.2-19.2
		c0-10.6,8.6-19.2,19.2-19.2C-2041.5,54.7-2032.9,63.3-2032.9,73.9"/>
	<path id="XMLID_265_" class="st1" d="M-1986.1,137.3c20.1-15.7,23.6-44.8,7.9-64.9c-15.7-20.1-44.8-23.6-64.9-7.9
		c-20.1,15.7-23.6,44.8-7.9,64.9C-2035.3,149.5-2006.2,153-1986.1,137.3"/>
	<path id="XMLID_264_" class="st14" d="M-2024.3,108.5c-4.2-5.3-3.3-13.1,2.1-17.3c5.3-4.2,13.1-3.3,17.3,2.1
		c3.5,4.5,3.4,10.6,0.2,14.9l14.7,23.9l-19.7-20C-2014.8,114.3-2020.8,113-2024.3,108.5"/>
</g>
</svg>
