<?xml version="1.0" encoding="utf-8"?>
<!-- Generator: Adobe Illustrator 19.0.0, SVG Export Plug-In . SVG Version: 6.00 Build 0)  -->
<svg version="1.1" id="Layer_1" xmlns="http://www.w3.org/2000/svg" xmlns:xlink="http://www.w3.org/1999/xlink" x="0px" y="0px"
	 viewBox="0 0 1280 231.6" style="enable-background:new 0 0 1280 231.6;" xml:space="preserve">
<style type="text/css">
	.st0{fill:#CCCCCC;}
	.st1{fill:#FFFFFF;}
	.st2{fill:#E5E5E5;}
</style>
<g id="XMLID_19_">
	<path id="XMLID_1591_" class="st0" d="M640,113.7C396.8,113.7,173.7,73.8,0,7.4v34c173.7,66.3,396.8,106.2,640,106.2
		s466.3-39.9,640-106.2v-34C1106.3,73.8,883.2,113.7,640,113.7z"/>
	<path id="XMLID_2648_" class="st1" d="M758.7,142.4c1.3-7,1.9-14.2,1.9-21.6C760.6,54.2,706.4,0,639.8,0S519,54.2,519,120.8
		c0,7.4,0.7,14.6,1.9,21.6C324.3,131.7,145,94.8,0,39.4v192.2h1280V39.4C1134.9,94.8,955.5,131.7,758.7,142.4z"/>
	<g id="XMLID_2784_">
		<path id="XMLID_2785_" class="st0" d="M639.8,231.6c-61.2,0-111-49.8-111-111c0-61.2,49.8-111,111-111s111,49.8,111,111
			C750.8,181.8,701,231.6,639.8,231.6z M639.8,11.6c-60.1,0-109,48.9-109,109c0,60.1,48.9,109,109,109s109-48.9,109-109
			C748.8,60.5,699.9,11.6,639.8,11.6z"/>
	</g>
	<path id="XMLID_2782_" class="st2" d="M701.6,95.1c0-11.6-9.4-20.9-20.9-20.9c-6.3,0-12,2.8-15.8,7.2c-15.2-9.2-34.6-9.8-50.6-0.9
		c-3.8-4.1-9.2-6.7-15.3-6.7c-11.6,0-20.9,9.4-20.9,20.9c0,8.2,4.7,15.3,11.6,18.7c-3.2,14.2-0.2,29.7,9.5,42.1
		c17.2,21.9,48.8,25.7,70.7,8.6c15.5-12.1,21.9-31.5,18.3-49.6C696,111.6,701.6,104,701.6,95.1z"/>
</g>
</svg>
