<?xml version="1.0" encoding="utf-8"?>
<!-- Generator: Adobe Illustrator 19.0.0, SVG Export Plug-In . SVG Version: 6.00 Build 0)  -->
<svg version="1.1" id="Layer_1" xmlns="http://www.w3.org/2000/svg" xmlns:xlink="http://www.w3.org/1999/xlink" x="0px" y="0px"
	 viewBox="0 0 1280 242.5" style="enable-background:new 0 0 1280 242.5;" xml:space="preserve">
<style type="text/css">
	.st0{fill:#FFFFFF;}
	.st1{fill:#FFBE00;}
	.st2{opacity:0.2;fill:#1A1A1A;}
	.st3{fill:#F4AE00;}
	.st4{opacity:0.1;fill:#1A1A1A;}
	.st5{fill:#EE3F25;}
	.st6{fill:#4AB648;}
	.st7{fill:#FFFFFF;stroke:#999999;stroke-miterlimit:10;}
	.st8{fill:#E5E5E5;}
	.st9{fill:#E49127;}
	.st10{fill:#F09F2D;}
	.st11{fill:#F5C651;}
	.st12{fill:#F7CD71;}
	.st13{fill:#ECB946;}
	.st14{fill:#4AB648;stroke:#FFFFFF;stroke-width:3;stroke-linecap:round;stroke-linejoin:round;stroke-miterlimit:10;}
	.st15{fill:#181919;}
	.st16{fill:#1A1A1A;}
</style>
<g id="XMLID_112_">
	<path id="XMLID_123_" class="st0" d="M2631-243.2v199l1280,0v-199c-198.9-76.9-414.6-119-640-119S2829.9-320.1,2631-243.2z"/>
	<path id="XMLID_122_" class="st1" d="M3911-266.6c-164.1-63.5-339.7-103.2-522.7-115.2c-9.8-0.6-18.3-7.3-20.9-16.7
		c-11.7-42.2-50.4-73.2-96.4-73.2c-46,0-84.7,31-96.4,73.2c-2.6,9.5-11.1,16.1-20.9,16.7c-183,12-358.6,51.7-522.7,115.2v30.5
		c128.1-49.6,263.3-84.7,403.5-103.4c62.8-8.4,125.8,9.5,176.3,47.6c16.7,12.6,37.6,20.1,60.1,20.1c22.6,0,43.4-7.5,60.1-20.1
		c50.6-38.1,113.6-56,176.3-47.6c140.2,18.7,275.4,53.8,403.5,103.4V-266.6z"/>
	<path id="XMLID_120_" class="st2" d="M3331.2-291.9c-16.7,12.6-37.6,20.1-60.1,20.1c-22.6,0-43.4-7.5-60.1-20.1
		c-50.6-38.1-113.6-56-176.3-47.6c-140.2,18.7-275.4,53.8-403.5,103.4v5.3c128.1-49.6,263.3-84.7,403.5-103.4
		c62.8-8.4,125.8,9.5,176.3,47.6c16.7,12.6,37.6,20.1,60.1,20.1c22.6,0,43.4-7.5,60.1-20.1c50.6-38.1,113.6-56,176.3-47.6
		c140.2,18.7,275.4,53.8,403.5,103.4v-5.3c-128.1-49.6-263.3-84.7-403.5-103.4C3444.7-347.9,3381.7-330,3331.2-291.9z"/>
	<circle id="XMLID_116_" class="st3" cx="3271" cy="-441.5" r="15.6"/>
	<path id="XMLID_114_" class="st4" d="M3259.3-436.7c0-8.6,7-15.6,15.6-15.6c3.8,0,7.3,1.4,10,3.6c-2.6-5-7.8-8.4-13.9-8.4
		c-8.6,0-15.6,7-15.6,15.6c0,4.8,2.2,9.1,5.6,12C3259.9-431.7,3259.3-434.1,3259.3-436.7z"/>
</g>
<g id="XMLID_416_">
	<path id="XMLID_41_" class="st0" d="M3354.3-837.2c0.4-3.2,0.6-6.5,0.6-9.8c0-46.3-37.6-83.9-83.9-83.9
		c-46.3,0-83.9,37.6-83.9,83.9c0,3.3,0.2,6.6,0.6,9.8c-195.3,9-382.5,49.7-556.7,117.1v199l1280,0v-199
		C3736.8-787.5,3549.6-828.2,3354.3-837.2z"/>
	<path id="XMLID_1017_" class="st2" d="M3331.2-768.7c-16.7,12.6-37.6,20.1-60.1,20.1c-22.6,0-43.4-7.5-60.1-20.1
		c-50.6-38.1-113.6-56-176.3-47.6c-140.2,18.7-275.4,53.8-403.5,103.4v5.3c128.1-49.6,263.3-84.7,403.5-103.4
		c62.8-8.4,125.8,9.5,176.3,47.6c16.7,12.6,37.6,20.1,60.1,20.1c22.6,0,43.4-7.5,60.1-20.1c50.6-38.1,113.6-56,176.3-47.6
		c140.2,18.7,275.4,53.8,403.5,103.4v-5.3c-128.1-49.6-263.3-84.7-403.5-103.4C3444.8-824.7,3381.7-806.8,3331.2-768.7z"/>
	<path id="XMLID_117_" class="st5" d="M3388.3-858.7c-9.8-0.6-18.3-7.3-20.9-16.7c-11.7-42.2-50.4-73.2-96.4-73.2
		s-84.7,31-96.4,73.2c-2.6,9.5-11.1,16.1-20.9,16.7c-183,12-358.6,51.7-522.7,115.2v30.5c128.1-49.6,263.3-84.7,403.5-103.4
		c62.8-8.4,125.8,9.5,176.3,47.6c16.7,12.6,37.6,20.1,60.1,20.1c22.6,0,43.4-7.5,60.1-20.1c50.6-38.1,113.6-56,176.3-47.6
		c140.2,18.7,275.4,53.8,403.5,103.4v-30.5C3746.9-807,3571.4-846.7,3388.3-858.7z M3271-925.7c14.5,0,28,3.9,39.7,10.7
		c3.4,2,4.1,6.7,1.3,9.5l-36.7,36.7c-2.4,2.4-6.2,2.4-8.6,0l-36.7-36.7c-2.8-2.8-2.2-7.5,1.3-9.5
		C3243-921.8,3256.6-925.7,3271-925.7z M3212.7-888l36.7,36.7c2.4,2.4,2.4,6.2,0,8.6l-36.7,36.7c-2.8,2.8-7.5,2.2-9.5-1.3
		c-6.8-11.6-10.7-25.2-10.7-39.7c0-14.5,3.9-28,10.7-39.7C3205.1-890.2,3209.8-890.8,3212.7-888z M3230.1-788.7l36.7-36.7
		c2.4-2.4,6.2-2.4,8.6,0l36.7,36.7c2.8,2.8,2.2,7.5-1.3,9.5c-11.6,6.8-25.2,10.7-39.7,10.7s-28-3.9-39.7-10.7
		C3227.9-781.1,3227.3-785.8,3230.1-788.7z M3329.4-806.1l-36.7-36.7c-2.4-2.4-2.4-6.2,0-8.6l36.7-36.7c2.8-2.8,7.5-2.2,9.5,1.3
		c6.8,11.6,10.7,25.2,10.7,39.7c0,14.5-3.9,28-10.7,39.7C3337-803.9,3332.3-803.3,3329.4-806.1z"/>
</g>
<g id="XMLID_42_">
	<path id="XMLID_174_" class="st0" d="M2631,229.5v199l1280,0v-199c-198.9-76.9-414.6-119-640-119S2829.9,152.6,2631,229.5z"/>
	<path id="XMLID_173_" class="st6" d="M3911,206.1c-164.1-63.5-339.7-103.2-522.7-115.2c-9.8-0.6-18.3-7.3-20.9-16.7
		C3355.7,31.9,3317,0.9,3271,0.9c-46,0-84.7,31-96.4,73.2c-2.6,9.5-11.1,16.1-20.9,16.7c-183,12-358.6,51.7-522.7,115.2v30.5
		c128.1-49.6,263.3-84.7,403.5-103.4c62.8-8.4,125.8,9.5,176.3,47.6c16.7,12.6,37.6,20.1,60.1,20.1c22.6,0,43.4-7.5,60.1-20.1
		c50.6-38.1,113.6-56,176.3-47.6c140.2,18.7,275.4,53.8,403.5,103.4V206.1z"/>
	<path id="XMLID_172_" class="st2" d="M3331.2,180.8c-16.7,12.6-37.6,20.1-60.1,20.1c-22.6,0-43.4-7.5-60.1-20.1
		c-50.6-38.1-113.6-56-176.3-47.6c-140.2,18.7-275.4,53.8-403.5,103.4v5.3c128.1-49.6,263.3-84.7,403.5-103.4
		c62.8-8.4,125.8,9.5,176.3,47.6c16.7,12.6,37.6,20.1,60.1,20.1c22.6,0,43.4-7.5,60.1-20.1c50.6-38.1,113.6-56,176.3-47.6
		c140.2,18.7,275.4,53.8,403.5,103.4v-5.3c-128.1-49.6-263.3-84.7-403.5-103.4C3444.8,124.9,3381.7,142.7,3331.2,180.8z"/>
	<circle id="XMLID_171_" class="st7" cx="3271" cy="101.2" r="82.6"/>
	<path id="XMLID_170_" class="st8" d="M3327.4,78.3c0-10.6-8.6-19.1-19.1-19.1c-5.8,0-10.9,2.6-14.4,6.6c-13.9-8.4-31.6-9-46.2-0.8
		c-3.5-3.7-8.4-6.1-13.9-6.1c-10.6,0-19.1,8.6-19.1,19.1c0,7.5,4.3,13.9,10.6,17.1c-2.9,13-0.2,27.1,8.7,38.4
		c15.7,20,44.6,23.5,64.6,7.8c14.1-11.1,20-28.8,16.7-45.3C3322.3,93.3,3327.4,86.4,3327.4,78.3z"/>
</g>
<path id="XMLID_190_" class="st0" d="M0,228.9v199l1280,0v-199c-198.9-76.9-414.6-119-640-119S198.9,152,0,228.9z"/>
<path id="XMLID_188_" class="st6" d="M1280,206.7c-164.1-63.5-339.7-103.2-522.7-115.2c-9.8-0.6-18.3-7.3-20.9-16.7
	C724.7,32.5,686,1.5,640,1.5s-84.7,31-96.4,73.2c-2.6,9.5-11.1,16.1-20.9,16.7c-183,12-358.6,51.7-522.7,115.2v30.5
	c128.1-49.6,263.3-84.7,403.5-103.4c62.8-8.4,125.8,9.5,176.3,47.6c16.7,12.6,37.6,20.1,60.1,20.1s43.4-7.5,60.1-20.1
	c50.6-38.1,113.6-56,176.3-47.6c140.2,18.7,275.4,53.8,403.5,103.4V206.7z"/>
<path id="XMLID_187_" class="st2" d="M700.1,181.4c-16.7,12.6-37.6,20.1-60.1,20.1c-22.6,0-43.4-7.5-60.1-20.1
	c-50.6-38.1-113.6-56-176.3-47.6C263.3,152.5,128.1,187.6,0,237.2v5.3c128.1-49.6,263.3-84.7,403.5-103.4
	c62.8-8.4,125.8,9.5,176.3,47.6c16.7,12.6,37.6,20.1,60.1,20.1c22.6,0,43.4-7.5,60.1-20.1c50.6-38.1,113.6-56,176.3-47.6
	c140.2,18.7,275.4,53.8,403.5,103.4v-5.3c-128.1-49.6-263.3-84.7-403.5-103.4C813.7,125.4,750.7,143.3,700.1,181.4z"/>
<circle id="XMLID_186_" class="st7" cx="640" cy="101.8" r="82.6"/>
<g id="XMLID_1_">
	<g id="XMLID_4145_">
		<path id="XMLID_4172_" class="st9" d="M644.3,110.6c0,5.6-13.5,10.1-30.3,10.1l0,0c-16.7,0-30.3-4.5-30.3-10.1V101
			c0-5.6,13.5-10.1,30.3-10.1l0,0c16.7,0,30.3,4.5,30.3,10.1V110.6z"/>
		<path id="XMLID_4171_" class="st10" d="M644.3,109.4c0,5.6-13.5,10.1-30.3,10.1l0,0c-16.7,0-30.3-4.5-30.3-10.1v-9.5
			c0-5.6,13.5-10.1,30.3-10.1l0,0c16.7,0,30.3,4.5,30.3,10.1V109.4z"/>
		<g id="XMLID_4151_">
			<path id="XMLID_4170_" class="st9" d="M583.8,99.9v9.5c0,1.1,0.6,2.2,1.6,3.2v-16C584.3,97.7,583.8,98.8,583.8,99.9z"/>
			<path id="XMLID_4169_" class="st9" d="M587.2,95.2v18.9c0.5,0.3,1.1,0.6,1.7,1V94.2C588.3,94.5,587.7,94.9,587.2,95.2z"/>
			<path id="XMLID_4168_" class="st9" d="M590.4,93.6v22.2c0.5,0.2,1.1,0.4,1.7,0.6V92.9C591.5,93.1,591,93.3,590.4,93.6z"/>
			<path id="XMLID_4167_" class="st9" d="M594,92.3V117c0.5,0.2,1.1,0.3,1.7,0.5V91.8C595.1,92,594.5,92.1,594,92.3z"/>
			<path id="XMLID_4166_" class="st9" d="M597.6,91.4v26.5c0.6,0.1,1.1,0.2,1.7,0.3V91C598.7,91.2,598.1,91.3,597.6,91.4z"/>
			<path id="XMLID_4165_" class="st9" d="M601.2,90.7v27.8c0.6,0.1,1.1,0.2,1.7,0.2V90.5C602.3,90.6,601.7,90.6,601.2,90.7z"/>
			<path id="XMLID_4164_" class="st9" d="M604.4,90.3V119c0.6,0.1,1.1,0.1,1.7,0.2v-29C605.5,90.2,604.9,90.2,604.4,90.3z"/>
			<path id="XMLID_4163_" class="st9" d="M607.9,90v29.4c0.6,0,1.1,0.1,1.7,0.1V89.9C609.1,89.9,608.5,89.9,607.9,90z"/>
			<path id="XMLID_4162_" class="st9" d="M611.1,89.8v29.7c0.6,0,1.1,0,1.7,0V89.8C612.3,89.8,611.7,89.8,611.1,89.8z"/>
			<path id="XMLID_4161_" class="st9" d="M614.7,89.8v29.7c0.6,0,1.1,0,1.7,0V89.8C615.9,89.8,615.3,89.8,614.7,89.8z"/>
			<path id="XMLID_4160_" class="st9" d="M619.6,89.9h-0.1C619.5,89.9,619.6,89.9,619.6,89.9L619.6,89.9z"/>
			<path id="XMLID_4159_" class="st9" d="M619.5,89.9h-1.6v29.5c0.6,0,1.1-0.1,1.7-0.1V89.9C619.6,89.9,619.5,89.9,619.5,89.9z"/>
			<path id="XMLID_4158_" class="st9" d="M621.5,90.1v29.1c0.6,0,1.1-0.1,1.7-0.2V90.2C622.6,90.2,622.1,90.1,621.5,90.1z"/>
			<path id="XMLID_4157_" class="st9" d="M625.1,90.5v28.4c0.6-0.1,1.1-0.2,1.7-0.2V90.7C626.2,90.6,625.7,90.5,625.1,90.5z"/>
			<path id="XMLID_4156_" class="st9" d="M628.7,91v27.2c0.6-0.1,1.1-0.2,1.7-0.3V91.4C629.8,91.3,629.2,91.1,628.7,91z"/>
			<path id="XMLID_4155_" class="st9" d="M631.9,91.7v25.9c0.6-0.1,1.1-0.3,1.7-0.4v-25C633,92,632.4,91.9,631.9,91.7z"/>
			<path id="XMLID_4154_" class="st9" d="M635.4,92.7v23.8c0.6-0.2,1.2-0.4,1.7-0.6V93.4C636.6,93.1,636,92.9,635.4,92.7z"/>
			<path id="XMLID_4153_" class="st9" d="M639,94.2v20.9c0.6-0.3,1.2-0.6,1.7-0.9v-19C640.2,94.8,639.6,94.5,639,94.2z"/>
			<path id="XMLID_4152_" class="st9" d="M644.3,109.4v-9.5c0-1.2-0.6-2.3-1.7-3.3v16.2C643.7,111.7,644.3,110.6,644.3,109.4z"/>
		</g>
		<path id="XMLID_4150_" class="st11" d="M644.3,99.9c0,5.6-13.5,10.1-30.3,10.1c-16.7,0-30.3-4.5-30.3-10.1
			c0-5.6,13.5-10.1,30.3-10.1C630.7,89.8,644.3,94.3,644.3,99.9z"/>
		<g id="XMLID_4146_">
			<path id="XMLID_4149_" class="st12" d="M639,100.5c0,4.1-11.2,7.4-25,7.4c-13.8,0-25-3.3-25-7.4c0-4.1,11.2-7.4,25-7.4
				C627.9,93.1,639,96.4,639,100.5z"/>
			<path id="XMLID_4148_" class="st13" d="M639,99c0,4.1-11.2,7.4-25,7.4c-13.8,0-25-3.3-25-7.4c0-4.1,11.2-7.4,25-7.4
				C627.9,91.7,639,94.9,639,99z"/>
			<path id="XMLID_4147_" class="st10" d="M614,93c13,0,23.7,2.9,24.9,6.7c0.1-0.2,0.1-0.5,0.1-0.7c0-4.1-11.2-7.4-25-7.4
				c-13.8,0-25,3.3-25,7.4c0,0.2,0,0.5,0.1,0.7C590.3,96,601,93,614,93z"/>
		</g>
	</g>
	<g id="XMLID_4117_">
		<path id="XMLID_4144_" class="st9" d="M673.7,97.1c0,5.6-13.5,10.1-30.3,10.1l0,0c-16.7,0-30.3-4.5-30.3-10.1v-9.5
			c0-5.6,13.5-10.1,30.3-10.1l0,0c16.7,0,30.3,4.5,30.3,10.1V97.1z"/>
		<path id="XMLID_4143_" class="st10" d="M673.7,96c0,5.6-13.5,10.1-30.3,10.1l0,0c-16.7,0-30.3-4.5-30.3-10.1v-9.5
			c0-5.6,13.5-10.1,30.3-10.1l0,0c16.7,0,30.3,4.5,30.3,10.1V96z"/>
		<g id="XMLID_4123_">
			<path id="XMLID_4142_" class="st9" d="M613.2,86.5V96c0,1.1,0.6,2.2,1.6,3.2v-16C613.7,84.3,613.2,85.3,613.2,86.5z"/>
			<path id="XMLID_4141_" class="st9" d="M616.6,81.8v18.9c0.5,0.3,1.1,0.6,1.7,1V80.8C617.7,81.1,617.2,81.4,616.6,81.8z"/>
			<path id="XMLID_4140_" class="st9" d="M619.8,80.1v22.2c0.5,0.2,1.1,0.4,1.7,0.6V79.5C620.9,79.7,620.4,79.9,619.8,80.1z"/>
			<path id="XMLID_4139_" class="st9" d="M623.4,78.9v24.7c0.5,0.2,1.1,0.3,1.7,0.5V78.4C624.5,78.6,624,78.7,623.4,78.9z"/>
			<path id="XMLID_4138_" class="st9" d="M627,78v26.5c0.6,0.1,1.1,0.2,1.7,0.3V77.6C628.1,77.7,627.5,77.9,627,78z"/>
			<path id="XMLID_4137_" class="st9" d="M630.6,77.3v27.8c0.6,0.1,1.1,0.2,1.7,0.2V77.1C631.7,77.1,631.1,77.2,630.6,77.3z"/>
			<path id="XMLID_4136_" class="st9" d="M633.8,76.9v28.7c0.6,0.1,1.1,0.1,1.7,0.2v-29C634.9,76.8,634.3,76.8,633.8,76.9z"/>
			<path id="XMLID_4135_" class="st9" d="M637.4,76.6v29.4c0.6,0,1.1,0.1,1.7,0.1V76.5C638.5,76.5,637.9,76.5,637.4,76.6z"/>
			<path id="XMLID_4134_" class="st9" d="M640.6,76.4v29.7c0.6,0,1.1,0,1.7,0V76.4C641.7,76.4,641.1,76.4,640.6,76.4z"/>
			<path id="XMLID_4133_" class="st9" d="M644.1,76.4v29.7c0.6,0,1.1,0,1.7,0V76.4C645.3,76.4,644.7,76.4,644.1,76.4z"/>
			<path id="XMLID_4132_" class="st9" d="M649,76.5h-0.1C649,76.5,649,76.5,649,76.5L649,76.5z"/>
			<path id="XMLID_4131_" class="st9" d="M648.9,76.5h-1.6V106c0.6,0,1.1-0.1,1.7-0.1V76.5C649,76.5,649,76.5,648.9,76.5z"/>
			<path id="XMLID_4130_" class="st9" d="M650.9,76.7v29.1c0.6,0,1.1-0.1,1.7-0.2V76.8C652,76.8,651.5,76.7,650.9,76.7z"/>
			<path id="XMLID_4129_" class="st9" d="M654.5,77v28.4c0.6-0.1,1.1-0.2,1.7-0.2V77.3C655.6,77.2,655.1,77.1,654.5,77z"/>
			<path id="XMLID_4128_" class="st9" d="M658.1,77.6v27.2c0.6-0.1,1.1-0.2,1.7-0.3V78C659.2,77.8,658.6,77.7,658.1,77.6z"/>
			<path id="XMLID_4127_" class="st9" d="M661.3,78.3v25.9c0.6-0.1,1.1-0.3,1.7-0.4v-25C662.4,78.6,661.9,78.4,661.3,78.3z"/>
			<path id="XMLID_4126_" class="st9" d="M664.8,79.3v23.8c0.6-0.2,1.2-0.4,1.7-0.6V79.9C666,79.7,665.4,79.5,664.8,79.3z"/>
			<path id="XMLID_4125_" class="st9" d="M668.4,80.8v20.9c0.6-0.3,1.2-0.6,1.7-0.9v-19C669.6,81.4,669,81.1,668.4,80.8z"/>
			<path id="XMLID_4124_" class="st9" d="M673.7,96v-9.5c0-1.2-0.6-2.3-1.7-3.3v16.2C673.1,98.3,673.7,97.2,673.7,96z"/>
		</g>
		<path id="XMLID_4122_" class="st11" d="M673.7,86.5c0,5.6-13.5,10.1-30.3,10.1c-16.7,0-30.3-4.5-30.3-10.1
			c0-5.6,13.5-10.1,30.3-10.1C660.1,76.3,673.7,80.9,673.7,86.5z"/>
		<g id="XMLID_4118_">
			<path id="XMLID_4121_" class="st12" d="M668.5,87.1c0,4.1-11.2,7.4-25,7.4c-13.8,0-25-3.3-25-7.4c0-4.1,11.2-7.4,25-7.4
				C657.3,79.7,668.5,83,668.5,87.1z"/>
			<path id="XMLID_4120_" class="st13" d="M668.5,85.6c0,4.1-11.2,7.4-25,7.4c-13.8,0-25-3.3-25-7.4c0-4.1,11.2-7.4,25-7.4
				C657.3,78.2,668.5,81.5,668.5,85.6z"/>
			<path id="XMLID_4119_" class="st10" d="M643.4,79.6c13,0,23.7,2.9,24.9,6.7c0.1-0.2,0.1-0.5,0.1-0.7c0-4.1-11.2-7.4-25-7.4
				c-13.8,0-25,3.3-25,7.4c0,0.2,0,0.5,0.1,0.7C619.7,82.5,630.4,79.6,643.4,79.6z"/>
		</g>
	</g>
	<g id="XMLID_4089_">
		<path id="XMLID_4116_" class="st9" d="M673.7,127.3c0,5.6-13.5,10.1-30.3,10.1l0,0c-16.7,0-30.3-4.5-30.3-10.1v-9.5
			c0-5.6,13.5-10.1,30.3-10.1l0,0c16.7,0,30.3,4.5,30.3,10.1V127.3z"/>
		<path id="XMLID_4115_" class="st10" d="M673.7,126.1c0,5.6-13.5,10.1-30.3,10.1l0,0c-16.7,0-30.3-4.5-30.3-10.1v-9.5
			c0-5.6,13.5-10.1,30.3-10.1l0,0c16.7,0,30.3,4.5,30.3,10.1V126.1z"/>
		<g id="XMLID_4095_">
			<path id="XMLID_4114_" class="st9" d="M613.2,116.6v9.5c0,1.1,0.6,2.2,1.6,3.2v-16C613.7,114.4,613.2,115.5,613.2,116.6z"/>
			<path id="XMLID_4113_" class="st9" d="M616.6,111.9v18.9c0.5,0.3,1.1,0.6,1.7,1V111C617.7,111.3,617.2,111.6,616.6,111.9z"/>
			<path id="XMLID_4112_" class="st9" d="M619.8,110.3v22.2c0.5,0.2,1.1,0.4,1.7,0.6v-23.5C620.9,109.8,620.4,110,619.8,110.3z"/>
			<path id="XMLID_4111_" class="st9" d="M623.4,109v24.7c0.5,0.2,1.1,0.3,1.7,0.5v-25.6C624.5,108.7,624,108.9,623.4,109z"/>
			<path id="XMLID_4110_" class="st9" d="M627,108.1v26.5c0.6,0.1,1.1,0.2,1.7,0.3v-27.2C628.1,107.9,627.5,108,627,108.1z"/>
			<path id="XMLID_4109_" class="st9" d="M630.6,107.4v27.8c0.6,0.1,1.1,0.2,1.7,0.2v-28.3C631.7,107.3,631.1,107.4,630.6,107.4z"/>
			<path id="XMLID_4108_" class="st9" d="M633.8,107v28.7c0.6,0.1,1.1,0.1,1.7,0.2v-29C634.9,106.9,634.3,107,633.8,107z"/>
			<path id="XMLID_4107_" class="st9" d="M637.4,106.7V136c0.6,0,1.1,0.1,1.7,0.1v-29.5C638.5,106.6,637.9,106.7,637.4,106.7z"/>
			<path id="XMLID_4106_" class="st9" d="M640.6,106.5v29.7c0.6,0,1.1,0,1.7,0v-29.7C641.7,106.5,641.1,106.5,640.6,106.5z"/>
			<path id="XMLID_4105_" class="st9" d="M644.1,106.5v29.7c0.6,0,1.1,0,1.7,0v-29.7C645.3,106.5,644.7,106.5,644.1,106.5z"/>
			<path id="XMLID_4104_" class="st9" d="M649,106.7h-0.1C649,106.7,649,106.7,649,106.7L649,106.7z"/>
			<path id="XMLID_4103_" class="st9" d="M648.9,106.7h-1.6v29.5c0.6,0,1.1-0.1,1.7-0.1v-29.4C649,106.7,649,106.7,648.9,106.7z"/>
			<path id="XMLID_4102_" class="st9" d="M650.9,106.8v29.1c0.6,0,1.1-0.1,1.7-0.2V107C652,106.9,651.5,106.8,650.9,106.8z"/>
			<path id="XMLID_4101_" class="st9" d="M654.5,107.2v28.4c0.6-0.1,1.1-0.2,1.7-0.2v-27.9C655.6,107.3,655.1,107.3,654.5,107.2z"/>
			<path id="XMLID_4100_" class="st9" d="M658.1,107.8V135c0.6-0.1,1.1-0.2,1.7-0.3v-26.6C659.2,108,658.6,107.9,658.1,107.8z"/>
			<path id="XMLID_4099_" class="st9" d="M661.3,108.4v25.9c0.6-0.1,1.1-0.3,1.7-0.4v-25C662.4,108.7,661.9,108.6,661.3,108.4z"/>
			<path id="XMLID_4098_" class="st9" d="M664.8,109.5v23.8c0.6-0.2,1.2-0.4,1.7-0.6v-22.6C666,109.9,665.4,109.7,664.8,109.5z"/>
			<path id="XMLID_4097_" class="st9" d="M668.4,110.9v20.9c0.6-0.3,1.2-0.6,1.7-0.9v-19C669.6,111.5,669,111.2,668.4,110.9z"/>
			<path id="XMLID_4096_" class="st9" d="M673.7,126.1v-9.5c0-1.2-0.6-2.3-1.7-3.3v16.2C673.1,128.4,673.7,127.3,673.7,126.1z"/>
		</g>
		<path id="XMLID_4094_" class="st11" d="M673.7,116.6c0,5.6-13.5,10.1-30.3,10.1c-16.7,0-30.3-4.5-30.3-10.1
			c0-5.6,13.5-10.1,30.3-10.1C660.1,106.5,673.7,111,673.7,116.6z"/>
		<g id="XMLID_4090_">
			<path id="XMLID_4093_" class="st12" d="M668.5,117.2c0,4.1-11.2,7.4-25,7.4c-13.8,0-25-3.3-25-7.4c0-4.1,11.2-7.4,25-7.4
				C657.3,109.9,668.5,113.2,668.5,117.2z"/>
			<path id="XMLID_4092_" class="st13" d="M668.5,115.7c0,4.1-11.2,7.4-25,7.4c-13.8,0-25-3.3-25-7.4c0-4.1,11.2-7.4,25-7.4
				C657.3,108.4,668.5,111.7,668.5,115.7z"/>
			<path id="XMLID_4091_" class="st10" d="M643.4,109.8c13,0,23.7,2.9,24.9,6.7c0.1-0.2,0.1-0.5,0.1-0.7c0-4.1-11.2-7.4-25-7.4
				c-13.8,0-25,3.3-25,7.4c0,0.2,0,0.5,0.1,0.7C619.7,112.7,630.4,109.8,643.4,109.8z"/>
		</g>
	</g>
	<g id="XMLID_4061_">
		<path id="XMLID_4088_" class="st9" d="M673.7,115.4c0,5.6-13.5,10.1-30.3,10.1l0,0c-16.7,0-30.3-4.5-30.3-10.1v-9.5
			c0-5.6,13.5-10.1,30.3-10.1l0,0c16.7,0,30.3,4.5,30.3,10.1V115.4z"/>
		<path id="XMLID_4087_" class="st10" d="M673.7,114.3c0,5.6-13.5,10.1-30.3,10.1l0,0c-16.7,0-30.3-4.5-30.3-10.1v-9.5
			c0-5.6,13.5-10.1,30.3-10.1l0,0c16.7,0,30.3,4.5,30.3,10.1V114.3z"/>
		<g id="XMLID_4067_">
			<path id="XMLID_4086_" class="st9" d="M613.2,104.8v9.5c0,1.1,0.6,2.2,1.6,3.2v-16C613.7,102.5,613.2,103.6,613.2,104.8z"/>
			<path id="XMLID_4085_" class="st9" d="M616.6,100.1V119c0.5,0.3,1.1,0.6,1.7,1V99.1C617.7,99.4,617.2,99.7,616.6,100.1z"/>
			<path id="XMLID_4084_" class="st9" d="M619.8,98.4v22.2c0.5,0.2,1.1,0.4,1.7,0.6V97.8C620.9,98,620.4,98.2,619.8,98.4z"/>
			<path id="XMLID_4083_" class="st9" d="M623.4,97.2v24.7c0.5,0.2,1.1,0.3,1.7,0.5V96.7C624.5,96.9,624,97,623.4,97.2z"/>
			<path id="XMLID_4082_" class="st9" d="M627,96.3v26.5c0.6,0.1,1.1,0.2,1.7,0.3V95.9C628.1,96,627.5,96.1,627,96.3z"/>
			<path id="XMLID_4081_" class="st9" d="M630.6,95.6v27.8c0.6,0.1,1.1,0.2,1.7,0.2V95.4C631.7,95.4,631.1,95.5,630.6,95.6z"/>
			<path id="XMLID_4080_" class="st9" d="M633.8,95.2v28.7c0.6,0.1,1.1,0.1,1.7,0.2V95C634.9,95.1,634.3,95.1,633.8,95.2z"/>
			<path id="XMLID_4079_" class="st9" d="M637.4,94.8v29.4c0.6,0,1.1,0.1,1.7,0.1V94.8C638.5,94.8,637.9,94.8,637.4,94.8z"/>
			<path id="XMLID_4078_" class="st9" d="M640.6,94.7v29.7c0.6,0,1.1,0,1.7,0V94.7C641.7,94.7,641.1,94.7,640.6,94.7z"/>
			<path id="XMLID_4077_" class="st9" d="M644.1,94.6v29.7c0.6,0,1.1,0,1.7,0V94.7C645.3,94.7,644.7,94.7,644.1,94.6z"/>
			<path id="XMLID_4076_" class="st9" d="M649,94.8h-0.1C649,94.8,649,94.8,649,94.8L649,94.8z"/>
			<path id="XMLID_4075_" class="st9" d="M648.9,94.8h-1.6v29.5c0.6,0,1.1-0.1,1.7-0.1V94.8C649,94.8,649,94.8,648.9,94.8z"/>
			<path id="XMLID_4074_" class="st9" d="M650.9,95v29.1c0.6,0,1.1-0.1,1.7-0.2V95.1C652,95.1,651.5,95,650.9,95z"/>
			<path id="XMLID_4073_" class="st9" d="M654.5,95.3v28.4c0.6-0.1,1.1-0.2,1.7-0.2V95.6C655.6,95.5,655.1,95.4,654.5,95.3z"/>
			<path id="XMLID_4072_" class="st9" d="M658.1,95.9v27.2c0.6-0.1,1.1-0.2,1.7-0.3V96.2C659.2,96.1,658.6,96,658.1,95.9z"/>
			<path id="XMLID_4071_" class="st9" d="M661.3,96.6v25.9c0.6-0.1,1.1-0.3,1.7-0.4V97C662.4,96.9,661.9,96.7,661.3,96.6z"/>
			<path id="XMLID_4070_" class="st9" d="M664.8,97.6v23.8c0.6-0.2,1.2-0.4,1.7-0.6V98.2C666,98,665.4,97.8,664.8,97.6z"/>
			<path id="XMLID_4069_" class="st9" d="M668.4,99.1V120c0.6-0.3,1.2-0.6,1.7-0.9v-19C669.6,99.7,669,99.4,668.4,99.1z"/>
			<path id="XMLID_4068_" class="st9" d="M673.7,114.3v-9.5c0-1.2-0.6-2.3-1.7-3.3v16.2C673.1,116.6,673.7,115.5,673.7,114.3z"/>
		</g>
		<path id="XMLID_4066_" class="st11" d="M673.7,104.8c0,5.6-13.5,10.1-30.3,10.1c-16.7,0-30.3-4.5-30.3-10.1
			c0-5.6,13.5-10.1,30.3-10.1C660.1,94.6,673.7,99.2,673.7,104.8z"/>
		<g id="XMLID_4062_">
			<path id="XMLID_4065_" class="st12" d="M668.5,105.4c0,4.1-11.2,7.4-25,7.4c-13.8,0-25-3.3-25-7.4c0-4.1,11.2-7.4,25-7.4
				C657.3,98,668.5,101.3,668.5,105.4z"/>
			<path id="XMLID_4064_" class="st13" d="M668.5,103.9c0,4.1-11.2,7.4-25,7.4c-13.8,0-25-3.3-25-7.4c0-4.1,11.2-7.4,25-7.4
				C657.3,96.5,668.5,99.8,668.5,103.9z"/>
			<path id="XMLID_4063_" class="st10" d="M643.4,97.9c13,0,23.7,2.9,24.9,6.7c0.1-0.2,0.1-0.5,0.1-0.7c0-4.1-11.2-7.4-25-7.4
				c-13.8,0-25,3.3-25,7.4c0,0.2,0,0.5,0.1,0.7C619.7,100.8,630.4,97.9,643.4,97.9z"/>
		</g>
	</g>
	<g id="XMLID_4003_">
		<path id="XMLID_4060_" class="st9" d="M673.7,103.9c0,5.6-13.5,10.1-30.3,10.1l0,0c-16.7,0-30.3-4.5-30.3-10.1v-9.5
			c0-5.6,13.5-10.1,30.3-10.1l0,0c16.7,0,30.3,4.5,30.3,10.1V103.9z"/>
		<path id="XMLID_4059_" class="st10" d="M673.7,102.8c0,5.6-13.5,10.1-30.3,10.1l0,0c-16.7,0-30.3-4.5-30.3-10.1v-9.5
			c0-5.6,13.5-10.1,30.3-10.1l0,0c16.7,0,30.3,4.5,30.3,10.1V102.8z"/>
		<g id="XMLID_4009_">
			<path id="XMLID_4058_" class="st9" d="M613.2,93.3v9.5c0,1.1,0.6,2.2,1.6,3.2V90C613.7,91,613.2,92.1,613.2,93.3z"/>
			<path id="XMLID_4057_" class="st9" d="M616.6,88.6v18.9c0.5,0.3,1.1,0.6,1.7,1V87.6C617.7,87.9,617.2,88.2,616.6,88.6z"/>
			<path id="XMLID_4056_" class="st9" d="M619.8,86.9v22.2c0.5,0.2,1.1,0.4,1.7,0.6V86.3C620.9,86.5,620.4,86.7,619.8,86.9z"/>
			<path id="XMLID_4055_" class="st9" d="M623.4,85.7v24.7c0.5,0.2,1.1,0.3,1.7,0.5V85.2C624.5,85.4,624,85.5,623.4,85.7z"/>
			<path id="XMLID_4054_" class="st9" d="M627,84.8v26.5c0.6,0.1,1.1,0.2,1.7,0.3V84.4C628.1,84.5,627.5,84.6,627,84.8z"/>
			<path id="XMLID_4044_" class="st9" d="M630.6,84.1v27.8c0.6,0.1,1.1,0.2,1.7,0.2V83.9C631.7,83.9,631.1,84,630.6,84.1z"/>
			<path id="XMLID_4039_" class="st9" d="M633.8,83.7v28.7c0.6,0.1,1.1,0.1,1.7,0.2v-29C634.9,83.5,634.3,83.6,633.8,83.7z"/>
			<path id="XMLID_4036_" class="st9" d="M637.4,83.3v29.4c0.6,0,1.1,0.1,1.7,0.1V83.2C638.5,83.3,637.9,83.3,637.4,83.3z"/>
			<path id="XMLID_4033_" class="st9" d="M640.6,83.2v29.7c0.6,0,1.1,0,1.7,0V83.2C641.7,83.2,641.1,83.2,640.6,83.2z"/>
			<path id="XMLID_4028_" class="st9" d="M644.1,83.1v29.7c0.6,0,1.1,0,1.7,0V83.2C645.3,83.2,644.7,83.2,644.1,83.1z"/>
			<path id="XMLID_4025_" class="st9" d="M649,83.3h-0.1C649,83.3,649,83.3,649,83.3L649,83.3z"/>
			<path id="XMLID_4022_" class="st9" d="M648.9,83.3h-1.6v29.5c0.6,0,1.1-0.1,1.7-0.1V83.3C649,83.3,649,83.3,648.9,83.3z"/>
			<path id="XMLID_4016_" class="st9" d="M650.9,83.5v29.1c0.6,0,1.1-0.1,1.7-0.2V83.6C652,83.6,651.5,83.5,650.9,83.5z"/>
			<path id="XMLID_4015_" class="st9" d="M654.5,83.8v28.4c0.6-0.1,1.1-0.2,1.7-0.2V84.1C655.6,84,655.1,83.9,654.5,83.8z"/>
			<path id="XMLID_4014_" class="st9" d="M658.1,84.4v27.2c0.6-0.1,1.1-0.2,1.7-0.3V84.7C659.2,84.6,658.6,84.5,658.1,84.4z"/>
			<path id="XMLID_4013_" class="st9" d="M661.3,85.1V111c0.6-0.1,1.1-0.3,1.7-0.4v-25C662.4,85.4,661.9,85.2,661.3,85.1z"/>
			<path id="XMLID_4012_" class="st9" d="M664.8,86.1v23.8c0.6-0.2,1.2-0.4,1.7-0.6V86.7C666,86.5,665.4,86.3,664.8,86.1z"/>
			<path id="XMLID_4011_" class="st9" d="M668.4,87.6v20.9c0.6-0.3,1.2-0.6,1.7-0.9v-19C669.6,88.2,669,87.9,668.4,87.6z"/>
			<path id="XMLID_4010_" class="st9" d="M673.7,102.8v-9.5c0-1.2-0.6-2.3-1.7-3.3v16.2C673.1,105.1,673.7,103.9,673.7,102.8z"/>
		</g>
		<path id="XMLID_4008_" class="st11" d="M673.7,93.3c0,5.6-13.5,10.1-30.3,10.1c-16.7,0-30.3-4.5-30.3-10.1
			c0-5.6,13.5-10.1,30.3-10.1C660.1,83.1,673.7,87.7,673.7,93.3z"/>
		<g id="XMLID_4004_">
			<path id="XMLID_4007_" class="st12" d="M668.5,93.9c0,4.1-11.2,7.4-25,7.4c-13.8,0-25-3.3-25-7.4c0-4.1,11.2-7.4,25-7.4
				C657.3,86.5,668.5,89.8,668.5,93.9z"/>
			<path id="XMLID_4006_" class="st13" d="M668.5,92.4c0,4.1-11.2,7.4-25,7.4c-13.8,0-25-3.3-25-7.4c0-4.1,11.2-7.4,25-7.4
				C657.3,85,668.5,88.3,668.5,92.4z"/>
			<path id="XMLID_4005_" class="st10" d="M643.4,86.4c13,0,23.7,2.9,24.9,6.7c0.1-0.2,0.1-0.5,0.1-0.7c0-4.1-11.2-7.4-25-7.4
				c-13.8,0-25,3.3-25,7.4c0,0.2,0,0.5,0.1,0.7C619.7,89.3,630.4,86.4,643.4,86.4z"/>
		</g>
	</g>
	<g id="XMLID_3972_">
		<path id="XMLID_4002_" class="st9" d="M673.7,91.9c0,5.6-13.5,10.1-30.3,10.1l0,0c-16.7,0-30.3-4.5-30.3-10.1v-9.5
			c0-5.6,13.5-10.1,30.3-10.1l0,0c16.7,0,30.3,4.5,30.3,10.1V91.9z"/>
		<path id="XMLID_4001_" class="st10" d="M673.7,90.8c0,5.6-13.5,10.1-30.3,10.1l0,0c-16.7,0-30.3-4.5-30.3-10.1v-9.5
			c0-5.6,13.5-10.1,30.3-10.1l0,0c16.7,0,30.3,4.5,30.3,10.1V90.8z"/>
		<g id="XMLID_3978_">
			<path id="XMLID_4000_" class="st9" d="M613.2,81.3v9.5c0,1.1,0.6,2.2,1.6,3.2v-16C613.7,79.1,613.2,80.2,613.2,81.3z"/>
			<path id="XMLID_3999_" class="st9" d="M616.6,76.6v18.9c0.5,0.3,1.1,0.6,1.7,1V75.6C617.7,75.9,617.2,76.3,616.6,76.6z"/>
			<path id="XMLID_3998_" class="st9" d="M619.8,75v22.2c0.5,0.2,1.1,0.4,1.7,0.6V74.3C620.9,74.5,620.4,74.7,619.8,75z"/>
			<path id="XMLID_3997_" class="st9" d="M623.4,73.7v24.7c0.5,0.2,1.1,0.3,1.7,0.5V73.2C624.5,73.4,624,73.5,623.4,73.7z"/>
			<path id="XMLID_3996_" class="st9" d="M627,72.8v26.5c0.6,0.1,1.1,0.2,1.7,0.3V72.4C628.1,72.6,627.5,72.7,627,72.8z"/>
			<path id="XMLID_3995_" class="st9" d="M630.6,72.1V100c0.6,0.1,1.1,0.2,1.7,0.2V71.9C631.7,72,631.1,72,630.6,72.1z"/>
			<path id="XMLID_3994_" class="st9" d="M633.8,71.7v28.7c0.6,0.1,1.1,0.1,1.7,0.2v-29C634.9,71.6,634.3,71.6,633.8,71.7z"/>
			<path id="XMLID_3993_" class="st9" d="M637.4,71.4v29.4c0.6,0,1.1,0.1,1.7,0.1V71.3C638.5,71.3,637.9,71.3,637.4,71.4z"/>
			<path id="XMLID_3992_" class="st9" d="M640.6,71.2v29.7c0.6,0,1.1,0,1.7,0V71.2C641.7,71.2,641.1,71.2,640.6,71.2z"/>
			<path id="XMLID_3991_" class="st9" d="M644.1,71.2v29.7c0.6,0,1.1,0,1.7,0V71.2C645.3,71.2,644.7,71.2,644.1,71.2z"/>
			<path id="XMLID_3990_" class="st9" d="M649,71.3h-0.1C649,71.3,649,71.3,649,71.3L649,71.3z"/>
			<path id="XMLID_3989_" class="st9" d="M648.9,71.3h-1.6v29.5c0.6,0,1.1-0.1,1.7-0.1V71.3C649,71.3,649,71.3,648.9,71.3z"/>
			<path id="XMLID_3988_" class="st9" d="M650.9,71.5v29.1c0.6,0,1.1-0.1,1.7-0.2V71.6C652,71.6,651.5,71.5,650.9,71.5z"/>
			<path id="XMLID_3987_" class="st9" d="M654.5,71.9v28.4c0.6-0.1,1.1-0.2,1.7-0.2V72.1C655.6,72,655.1,71.9,654.5,71.9z"/>
			<path id="XMLID_3986_" class="st9" d="M658.1,72.4v27.2c0.6-0.1,1.1-0.2,1.7-0.3V72.8C659.2,72.6,658.6,72.5,658.1,72.4z"/>
			<path id="XMLID_3985_" class="st9" d="M661.3,73.1V99c0.6-0.1,1.1-0.3,1.7-0.4v-25C662.4,73.4,661.9,73.3,661.3,73.1z"/>
			<path id="XMLID_3984_" class="st9" d="M664.8,74.1V98c0.6-0.2,1.2-0.4,1.7-0.6V74.8C666,74.5,665.4,74.3,664.8,74.1z"/>
			<path id="XMLID_3981_" class="st9" d="M668.4,75.6v20.9c0.6-0.3,1.2-0.6,1.7-0.9v-19C669.6,76.2,669,75.9,668.4,75.6z"/>
			<path id="XMLID_3979_" class="st9" d="M673.7,90.8v-9.5c0-1.2-0.6-2.3-1.7-3.3v16.2C673.1,93.1,673.7,92,673.7,90.8z"/>
		</g>
		<path id="XMLID_3977_" class="st11" d="M673.7,81.3c0,5.6-13.5,10.1-30.3,10.1c-16.7,0-30.3-4.5-30.3-10.1
			c0-5.6,13.5-10.1,30.3-10.1C660.1,71.2,673.7,75.7,673.7,81.3z"/>
		<g id="XMLID_3973_">
			<path id="XMLID_3976_" class="st12" d="M668.5,81.9c0,4.1-11.2,7.4-25,7.4c-13.8,0-25-3.3-25-7.4c0-4.1,11.2-7.4,25-7.4
				C657.3,74.5,668.5,77.8,668.5,81.9z"/>
			<path id="XMLID_3975_" class="st13" d="M668.5,80.4c0,4.1-11.2,7.4-25,7.4c-13.8,0-25-3.3-25-7.4c0-4.1,11.2-7.4,25-7.4
				C657.3,73,668.5,76.3,668.5,80.4z"/>
			<path id="XMLID_3974_" class="st10" d="M643.4,74.4c13,0,23.7,2.9,24.9,6.7c0.1-0.2,0.1-0.5,0.1-0.7c0-4.1-11.2-7.4-25-7.4
				c-13.8,0-25,3.3-25,7.4c0,0.2,0,0.5,0.1,0.7C619.7,77.4,630.4,74.4,643.4,74.4z"/>
		</g>
	</g>
	<g id="XMLID_3944_">
		<path id="XMLID_3971_" class="st9" d="M673.7,79.9c0,5.6-13.5,10.1-30.3,10.1l0,0c-16.7,0-30.3-4.5-30.3-10.1v-9.5
			c0-5.6,13.5-10.1,30.3-10.1l0,0c16.7,0,30.3,4.5,30.3,10.1V79.9z"/>
		<path id="XMLID_3970_" class="st10" d="M673.7,78.7c0,5.6-13.5,10.1-30.3,10.1l0,0c-16.7,0-30.3-4.5-30.3-10.1v-9.5
			c0-5.6,13.5-10.1,30.3-10.1l0,0c16.7,0,30.3,4.5,30.3,10.1V78.7z"/>
		<g id="XMLID_3950_">
			<path id="XMLID_3969_" class="st9" d="M613.2,69.2v9.5c0,1.1,0.6,2.2,1.6,3.2V66C613.7,67,613.2,68.1,613.2,69.2z"/>
			<path id="XMLID_3968_" class="st9" d="M616.6,64.5v18.9c0.5,0.3,1.1,0.6,1.7,1V63.6C617.7,63.9,617.2,64.2,616.6,64.5z"/>
			<path id="XMLID_3967_" class="st9" d="M619.8,62.9v22.2c0.5,0.2,1.1,0.4,1.7,0.6V62.2C620.9,62.4,620.4,62.7,619.8,62.9z"/>
			<path id="XMLID_3966_" class="st9" d="M623.4,61.6v24.7c0.5,0.2,1.1,0.3,1.7,0.5V61.2C624.5,61.3,624,61.5,623.4,61.6z"/>
			<path id="XMLID_3965_" class="st9" d="M627,60.7v26.5c0.6,0.1,1.1,0.2,1.7,0.3V60.4C628.1,60.5,627.5,60.6,627,60.7z"/>
			<path id="XMLID_3964_" class="st9" d="M630.6,60.1v27.8c0.6,0.1,1.1,0.2,1.7,0.2V59.8C631.7,59.9,631.1,60,630.6,60.1z"/>
			<path id="XMLID_3963_" class="st9" d="M633.8,59.6v28.7c0.6,0.1,1.1,0.1,1.7,0.2v-29C634.9,59.5,634.3,59.6,633.8,59.6z"/>
			<path id="XMLID_3962_" class="st9" d="M637.4,59.3v29.4c0.6,0,1.1,0.1,1.7,0.1V59.2C638.5,59.2,637.9,59.3,637.4,59.3z"/>
			<path id="XMLID_3961_" class="st9" d="M640.6,59.1v29.7c0.6,0,1.1,0,1.7,0V59.1C641.7,59.1,641.1,59.1,640.6,59.1z"/>
			<path id="XMLID_3960_" class="st9" d="M644.1,59.1v29.7c0.6,0,1.1,0,1.7,0V59.1C645.3,59.1,644.7,59.1,644.1,59.1z"/>
			<path id="XMLID_3959_" class="st9" d="M649,59.3h-0.1C649,59.3,649,59.3,649,59.3L649,59.3z"/>
			<path id="XMLID_3958_" class="st9" d="M648.9,59.3h-1.6v29.5c0.6,0,1.1-0.1,1.7-0.1V59.3C649,59.3,649,59.3,648.9,59.3z"/>
			<path id="XMLID_3957_" class="st9" d="M650.9,59.4v29.1c0.6,0,1.1-0.1,1.7-0.2V59.6C652,59.5,651.5,59.5,650.9,59.4z"/>
			<path id="XMLID_3956_" class="st9" d="M654.5,59.8v28.4c0.6-0.1,1.1-0.2,1.7-0.2V60C655.6,60,655.1,59.9,654.5,59.8z"/>
			<path id="XMLID_3955_" class="st9" d="M658.1,60.4v27.2c0.6-0.1,1.1-0.2,1.7-0.3V60.7C659.2,60.6,658.6,60.5,658.1,60.4z"/>
			<path id="XMLID_3954_" class="st9" d="M661.3,61v25.9c0.6-0.1,1.1-0.3,1.7-0.4v-25C662.4,61.3,661.9,61.2,661.3,61z"/>
			<path id="XMLID_3953_" class="st9" d="M664.8,62.1v23.8c0.6-0.2,1.2-0.4,1.7-0.6V62.7C666,62.5,665.4,62.3,664.8,62.1z"/>
			<path id="XMLID_3952_" class="st9" d="M668.4,63.5v20.9c0.6-0.3,1.2-0.6,1.7-0.9v-19C669.6,64.1,669,63.8,668.4,63.5z"/>
			<path id="XMLID_3951_" class="st9" d="M673.7,78.7v-9.5c0-1.2-0.6-2.3-1.7-3.3v16.2C673.1,81,673.7,79.9,673.7,78.7z"/>
		</g>
		<path id="XMLID_3949_" class="st11" d="M673.7,69.2c0,5.6-13.5,10.1-30.3,10.1c-16.7,0-30.3-4.5-30.3-10.1
			c0-5.6,13.5-10.1,30.3-10.1C660.1,59.1,673.7,63.6,673.7,69.2z"/>
		<g id="XMLID_3945_">
			<path id="XMLID_3948_" class="st12" d="M668.5,69.8c0,4.1-11.2,7.4-25,7.4c-13.8,0-25-3.3-25-7.4c0-4.1,11.2-7.4,25-7.4
				C657.3,62.5,668.5,65.8,668.5,69.8z"/>
			<path id="XMLID_3947_" class="st13" d="M668.5,68.3c0,4.1-11.2,7.4-25,7.4c-13.8,0-25-3.3-25-7.4c0-4.1,11.2-7.4,25-7.4
				C657.3,61,668.5,64.3,668.5,68.3z"/>
			<path id="XMLID_3946_" class="st10" d="M643.4,62.4c13,0,23.7,2.9,24.9,6.7c0.1-0.2,0.1-0.5,0.1-0.7c0-4.1-11.2-7.4-25-7.4
				c-13.8,0-25,3.3-25,7.4c0,0.2,0,0.5,0.1,0.7C619.7,65.3,630.4,62.4,643.4,62.4z"/>
		</g>
	</g>
	<g id="XMLID_3911_">
		<path id="XMLID_3943_" class="st9" d="M673.7,67.8c0,5.6-13.5,10.1-30.3,10.1l0,0c-16.7,0-30.3-4.5-30.3-10.1v-9.5
			c0-5.6,13.5-10.1,30.3-10.1l0,0c16.7,0,30.3,4.5,30.3,10.1V67.8z"/>
		<path id="XMLID_3942_" class="st10" d="M673.7,66.7c0,5.6-13.5,10.1-30.3,10.1l0,0c-16.7,0-30.3-4.5-30.3-10.1v-9.5
			c0-5.6,13.5-10.1,30.3-10.1l0,0c16.7,0,30.3,4.5,30.3,10.1V66.7z"/>
		<g id="XMLID_3922_">
			<path id="XMLID_3941_" class="st9" d="M613.2,57.1v9.5c0,1.1,0.6,2.2,1.6,3.2v-16C613.7,54.9,613.2,56,613.2,57.1z"/>
			<path id="XMLID_3940_" class="st9" d="M616.6,52.4v18.9c0.5,0.3,1.1,0.6,1.7,1V51.5C617.7,51.8,617.2,52.1,616.6,52.4z"/>
			<path id="XMLID_3939_" class="st9" d="M619.8,50.8V73c0.5,0.2,1.1,0.4,1.7,0.6V50.2C620.9,50.4,620.4,50.6,619.8,50.8z"/>
			<path id="XMLID_3938_" class="st9" d="M623.4,49.6v24.7c0.5,0.2,1.1,0.3,1.7,0.5V49.1C624.5,49.2,624,49.4,623.4,49.6z"/>
			<path id="XMLID_3937_" class="st9" d="M627,48.6v26.5c0.6,0.1,1.1,0.2,1.7,0.3V48.3C628.1,48.4,627.5,48.5,627,48.6z"/>
			<path id="XMLID_3936_" class="st9" d="M630.6,48v27.8c0.6,0.1,1.1,0.2,1.7,0.2V47.7C631.7,47.8,631.1,47.9,630.6,48z"/>
			<path id="XMLID_3935_" class="st9" d="M633.8,47.6v28.7c0.6,0.1,1.1,0.1,1.7,0.2v-29C634.9,47.4,634.3,47.5,633.8,47.6z"/>
			<path id="XMLID_3934_" class="st9" d="M637.4,47.2v29.4c0.6,0,1.1,0.1,1.7,0.1V47.1C638.5,47.2,637.9,47.2,637.4,47.2z"/>
			<path id="XMLID_3933_" class="st9" d="M640.6,47.1v29.7c0.6,0,1.1,0,1.7,0V47C641.7,47,641.1,47.1,640.6,47.1z"/>
			<path id="XMLID_3932_" class="st9" d="M644.1,47v29.7c0.6,0,1.1,0,1.7,0V47.1C645.3,47,644.7,47,644.1,47z"/>
			<path id="XMLID_3931_" class="st9" d="M649,47.2h-0.1C649,47.2,649,47.2,649,47.2L649,47.2z"/>
			<path id="XMLID_3930_" class="st9" d="M648.9,47.2h-1.6v29.5c0.6,0,1.1-0.1,1.7-0.1V47.2C649,47.2,649,47.2,648.9,47.2z"/>
			<path id="XMLID_3929_" class="st9" d="M650.9,47.3v29.1c0.6,0,1.1-0.1,1.7-0.2V47.5C652,47.4,651.5,47.4,650.9,47.3z"/>
			<path id="XMLID_3928_" class="st9" d="M654.5,47.7v28.4c0.6-0.1,1.1-0.2,1.7-0.2V48C655.6,47.9,655.1,47.8,654.5,47.7z"/>
			<path id="XMLID_3927_" class="st9" d="M658.1,48.3v27.2c0.6-0.1,1.1-0.2,1.7-0.3V48.6C659.2,48.5,658.6,48.4,658.1,48.3z"/>
			<path id="XMLID_3926_" class="st9" d="M661.3,49v25.9c0.6-0.1,1.1-0.3,1.7-0.4v-25C662.4,49.3,661.9,49.1,661.3,49z"/>
			<path id="XMLID_3925_" class="st9" d="M664.8,50v23.8c0.6-0.2,1.2-0.4,1.7-0.6V50.6C666,50.4,665.4,50.2,664.8,50z"/>
			<path id="XMLID_3924_" class="st9" d="M668.4,51.4v20.9c0.6-0.3,1.2-0.6,1.7-0.9v-19C669.6,52.1,669,51.7,668.4,51.4z"/>
			<path id="XMLID_3923_" class="st9" d="M673.7,66.7v-9.5c0-1.2-0.6-2.3-1.7-3.3V70C673.1,68.9,673.7,67.8,673.7,66.7z"/>
		</g>
		<path id="XMLID_3921_" class="st11" d="M673.7,57.1c0,5.6-13.5,10.1-30.3,10.1c-16.7,0-30.3-4.5-30.3-10.1
			c0-5.6,13.5-10.1,30.3-10.1C660.1,47,673.7,51.5,673.7,57.1z"/>
		<g id="XMLID_3917_">
			<path id="XMLID_3920_" class="st12" d="M668.5,57.8c0,4.1-11.2,7.4-25,7.4c-13.8,0-25-3.3-25-7.4c0-4.1,11.2-7.4,25-7.4
				C657.3,50.4,668.5,53.7,668.5,57.8z"/>
			<path id="XMLID_3919_" class="st13" d="M668.5,56.3c0,4.1-11.2,7.4-25,7.4c-13.8,0-25-3.3-25-7.4c0-4.1,11.2-7.4,25-7.4
				C657.3,48.9,668.5,52.2,668.5,56.3z"/>
			<path id="XMLID_3918_" class="st10" d="M643.4,50.3c13,0,23.7,2.9,24.9,6.7c0.1-0.2,0.1-0.5,0.1-0.7c0-4.1-11.2-7.4-25-7.4
				c-13.8,0-25,3.3-25,7.4c0,0.2,0,0.5,0.1,0.7C619.7,53.2,630.4,50.3,643.4,50.3z"/>
		</g>
	</g>
	<g id="XMLID_3488_">
		<path id="XMLID_3906_" class="st9" d="M698.8,138.7c0,5.6-13.5,10.1-30.3,10.1l0,0c-16.7,0-30.3-4.5-30.3-10.1v-9.5
			c0-5.6,13.5-10.1,30.3-10.1l0,0c16.7,0,30.3,4.5,30.3,10.1V138.7z"/>
		<path id="XMLID_3905_" class="st10" d="M698.8,137.6c0,5.6-13.5,10.1-30.3,10.1l0,0c-16.7,0-30.3-4.5-30.3-10.1V128
			c0-5.6,13.5-10.1,30.3-10.1l0,0c16.7,0,30.3,4.5,30.3,10.1V137.6z"/>
		<g id="XMLID_3494_">
			<path id="XMLID_3524_" class="st9" d="M638.3,128.1v9.5c0,1.1,0.6,2.2,1.6,3.2v-16C638.9,125.8,638.3,126.9,638.3,128.1z"/>
			<path id="XMLID_3523_" class="st9" d="M641.8,123.4v18.9c0.5,0.3,1.1,0.6,1.7,1v-20.8C642.8,122.7,642.3,123,641.8,123.4z"/>
			<path id="XMLID_3522_" class="st9" d="M645,121.7v22.2c0.5,0.2,1.1,0.4,1.7,0.6v-23.5C646.1,121.3,645.5,121.5,645,121.7z"/>
			<path id="XMLID_3521_" class="st9" d="M648.5,120.5v24.7c0.5,0.2,1.1,0.3,1.7,0.5V120C649.7,120.2,649.1,120.3,648.5,120.5z"/>
			<path id="XMLID_3520_" class="st9" d="M652.1,119.6v26.5c0.6,0.1,1.1,0.2,1.7,0.3v-27.2C653.2,119.3,652.7,119.4,652.1,119.6z"/>
			<path id="XMLID_3514_" class="st9" d="M655.7,118.9v27.8c0.6,0.1,1.1,0.2,1.7,0.2v-28.3C656.8,118.7,656.3,118.8,655.7,118.9z"/>
			<path id="XMLID_3507_" class="st9" d="M658.9,118.5v28.7c0.6,0.1,1.1,0.1,1.7,0.2v-29C660,118.3,659.5,118.4,658.9,118.5z"/>
			<path id="XMLID_3506_" class="st9" d="M662.5,118.1v29.4c0.6,0,1.1,0.1,1.7,0.1V118C663.6,118.1,663,118.1,662.5,118.1z"/>
			<path id="XMLID_3505_" class="st9" d="M665.7,118v29.7c0.6,0,1.1,0,1.7,0v-29.7C666.8,118,666.2,118,665.7,118z"/>
			<path id="XMLID_3504_" class="st9" d="M669.3,117.9v29.7c0.6,0,1.1,0,1.7,0V118C670.4,118,669.8,117.9,669.3,117.9z"/>
			<path id="XMLID_3503_" class="st9" d="M674.2,118.1H674C674.1,118.1,674.1,118.1,674.2,118.1L674.2,118.1z"/>
			<path id="XMLID_3502_" class="st9" d="M674,118.1h-1.6v29.5c0.6,0,1.1-0.1,1.7-0.1v-29.4C674.1,118.1,674.1,118.1,674,118.1z"/>
			<path id="XMLID_3501_" class="st9" d="M676,118.2v29.1c0.6,0,1.1-0.1,1.7-0.2v-28.8C677.2,118.4,676.6,118.3,676,118.2z"/>
			<path id="XMLID_3500_" class="st9" d="M679.6,118.6V147c0.6-0.1,1.1-0.2,1.7-0.2v-27.9C680.8,118.8,680.2,118.7,679.6,118.6z"/>
			<path id="XMLID_3499_" class="st9" d="M683.2,119.2v27.2c0.6-0.1,1.1-0.2,1.7-0.3v-26.6C684.3,119.4,683.8,119.3,683.2,119.2z"/>
			<path id="XMLID_3498_" class="st9" d="M686.4,119.9v25.9c0.6-0.1,1.1-0.3,1.7-0.4v-25C687.5,120.2,687,120,686.4,119.9z"/>
			<path id="XMLID_3497_" class="st9" d="M690,120.9v23.8c0.6-0.2,1.2-0.4,1.7-0.6v-22.6C691.1,121.3,690.6,121.1,690,120.9z"/>
			<path id="XMLID_3496_" class="st9" d="M693.6,122.4v20.9c0.6-0.3,1.2-0.6,1.7-0.9v-19C694.7,123,694.2,122.7,693.6,122.4z"/>
			<path id="XMLID_3495_" class="st9" d="M698.8,137.6v-9.5c0-1.2-0.6-2.3-1.7-3.3v16.2C698.2,139.9,698.8,138.7,698.8,137.6z"/>
		</g>
		<path id="XMLID_3493_" class="st11" d="M698.8,128c0,5.6-13.5,10.1-30.3,10.1c-16.7,0-30.3-4.5-30.3-10.1
			c0-5.6,13.5-10.1,30.3-10.1C685.3,117.9,698.8,122.5,698.8,128z"/>
		<g id="XMLID_3489_">
			<path id="XMLID_3492_" class="st12" d="M693.6,128.7c0,4.1-11.2,7.4-25,7.4c-13.8,0-25-3.3-25-7.4c0-4.1,11.2-7.4,25-7.4
				C682.4,121.3,693.6,124.6,693.6,128.7z"/>
			<path id="XMLID_3491_" class="st13" d="M693.6,127.2c0,4.1-11.2,7.4-25,7.4c-13.8,0-25-3.3-25-7.4c0-4.1,11.2-7.4,25-7.4
				C682.4,119.8,693.6,123.1,693.6,127.2z"/>
			<path id="XMLID_3490_" class="st10" d="M668.6,121.2c13,0,23.7,2.9,24.9,6.7c0.1-0.2,0.1-0.5,0.1-0.7c0-4.1-11.2-7.4-25-7.4
				c-13.8,0-25,3.3-25,7.4c0,0.2,0,0.5,0.1,0.7C644.8,124.1,655.5,121.2,668.6,121.2z"/>
		</g>
	</g>
	<g id="XMLID_3460_">
		<path id="XMLID_3487_" class="st9" d="M698.8,126.9c0,5.6-13.5,10.1-30.3,10.1l0,0c-16.7,0-30.3-4.5-30.3-10.1v-9.5
			c0-5.6,13.5-10.1,30.3-10.1l0,0c16.7,0,30.3,4.5,30.3,10.1V126.9z"/>
		<path id="XMLID_3486_" class="st10" d="M698.8,125.7c0,5.6-13.5,10.1-30.3,10.1l0,0c-16.7,0-30.3-4.5-30.3-10.1v-9.5
			c0-5.6,13.5-10.1,30.3-10.1l0,0c16.7,0,30.3,4.5,30.3,10.1V125.7z"/>
		<g id="XMLID_3466_">
			<path id="XMLID_3485_" class="st9" d="M638.3,116.2v9.5c0,1.1,0.6,2.2,1.6,3.2v-16C638.9,114,638.3,115.1,638.3,116.2z"/>
			<path id="XMLID_3484_" class="st9" d="M641.8,111.5v18.9c0.5,0.3,1.1,0.6,1.7,1v-20.8C642.8,110.9,642.3,111.2,641.8,111.5z"/>
			<path id="XMLID_3483_" class="st9" d="M645,109.9v22.2c0.5,0.2,1.1,0.4,1.7,0.6v-23.5C646.1,109.4,645.5,109.7,645,109.9z"/>
			<path id="XMLID_3482_" class="st9" d="M648.5,108.6v24.7c0.5,0.2,1.1,0.3,1.7,0.5v-25.6C649.7,108.3,649.1,108.5,648.5,108.6z"/>
			<path id="XMLID_3481_" class="st9" d="M652.1,107.7v26.5c0.6,0.1,1.1,0.2,1.7,0.3v-27.2C653.2,107.5,652.7,107.6,652.1,107.7z"/>
			<path id="XMLID_3480_" class="st9" d="M655.7,107.1v27.8c0.6,0.1,1.1,0.2,1.7,0.2v-28.3C656.8,106.9,656.3,107,655.7,107.1z"/>
			<path id="XMLID_3479_" class="st9" d="M658.9,106.6v28.7c0.6,0.1,1.1,0.1,1.7,0.2v-29C660,106.5,659.5,106.6,658.9,106.6z"/>
			<path id="XMLID_3478_" class="st9" d="M662.5,106.3v29.4c0.6,0,1.1,0.1,1.7,0.1v-29.5C663.6,106.2,663,106.3,662.5,106.3z"/>
			<path id="XMLID_3477_" class="st9" d="M665.7,106.1v29.7c0.6,0,1.1,0,1.7,0v-29.7C666.8,106.1,666.2,106.1,665.7,106.1z"/>
			<path id="XMLID_3476_" class="st9" d="M669.3,106.1v29.7c0.6,0,1.1,0,1.7,0v-29.7C670.4,106.1,669.8,106.1,669.3,106.1z"/>
			<path id="XMLID_3475_" class="st9" d="M674.2,106.3H674C674.1,106.3,674.1,106.3,674.2,106.3L674.2,106.3z"/>
			<path id="XMLID_3474_" class="st9" d="M674,106.3h-1.6v29.5c0.6,0,1.1-0.1,1.7-0.1v-29.4C674.1,106.3,674.1,106.3,674,106.3z"/>
			<path id="XMLID_3473_" class="st9" d="M676,106.4v29.1c0.6,0,1.1-0.1,1.7-0.2v-28.8C677.2,106.5,676.6,106.5,676,106.4z"/>
			<path id="XMLID_3472_" class="st9" d="M679.6,106.8v28.4c0.6-0.1,1.1-0.2,1.7-0.2V107C680.8,106.9,680.2,106.9,679.6,106.8z"/>
			<path id="XMLID_3471_" class="st9" d="M683.2,107.4v27.2c0.6-0.1,1.1-0.2,1.7-0.3v-26.6C684.3,107.6,683.8,107.5,683.2,107.4z"/>
			<path id="XMLID_3470_" class="st9" d="M686.4,108v25.9c0.6-0.1,1.1-0.3,1.7-0.4v-25C687.5,108.3,687,108.2,686.4,108z"/>
			<path id="XMLID_3469_" class="st9" d="M690,109.1v23.8c0.6-0.2,1.2-0.4,1.7-0.6v-22.6C691.1,109.5,690.6,109.3,690,109.1z"/>
			<path id="XMLID_3468_" class="st9" d="M693.6,110.5v20.9c0.6-0.3,1.2-0.6,1.7-0.9v-19C694.7,111.1,694.2,110.8,693.6,110.5z"/>
			<path id="XMLID_3467_" class="st9" d="M698.8,125.7v-9.5c0-1.2-0.6-2.3-1.7-3.3v16.2C698.2,128,698.8,126.9,698.8,125.7z"/>
		</g>
		<path id="XMLID_3465_" class="st11" d="M698.8,116.2c0,5.6-13.5,10.1-30.3,10.1c-16.7,0-30.3-4.5-30.3-10.1
			c0-5.6,13.5-10.1,30.3-10.1C685.3,106.1,698.8,110.6,698.8,116.2z"/>
		<g id="XMLID_3461_">
			<path id="XMLID_3464_" class="st12" d="M693.6,116.8c0,4.1-11.2,7.4-25,7.4c-13.8,0-25-3.3-25-7.4c0-4.1,11.2-7.4,25-7.4
				C682.4,109.5,693.6,112.8,693.6,116.8z"/>
			<path id="XMLID_3463_" class="st13" d="M693.6,115.3c0,4.1-11.2,7.4-25,7.4c-13.8,0-25-3.3-25-7.4c0-4.1,11.2-7.4,25-7.4
				C682.4,108,693.6,111.3,693.6,115.3z"/>
			<path id="XMLID_3462_" class="st10" d="M668.6,109.4c13,0,23.7,2.9,24.9,6.7c0.1-0.2,0.1-0.5,0.1-0.7c0-4.1-11.2-7.4-25-7.4
				c-13.8,0-25,3.3-25,7.4c0,0.2,0,0.5,0.1,0.7C644.8,112.3,655.5,109.4,668.6,109.4z"/>
		</g>
	</g>
	<g id="XMLID_3391_">
		<path id="XMLID_3455_" class="st9" d="M644.3,140.7c0,5.6-13.5,10.1-30.3,10.1l0,0c-16.7,0-30.3-4.5-30.3-10.1v-9.5
			c0-5.6,13.5-10.1,30.3-10.1l0,0c16.7,0,30.3,4.5,30.3,10.1V140.7z"/>
		<path id="XMLID_3453_" class="st10" d="M644.3,139.5c0,5.6-13.5,10.1-30.3,10.1l0,0c-16.7,0-30.3-4.5-30.3-10.1V130
			c0-5.6,13.5-10.1,30.3-10.1l0,0c16.7,0,30.3,4.5,30.3,10.1V139.5z"/>
		<g id="XMLID_3402_">
			<path id="XMLID_3452_" class="st9" d="M583.8,130v9.5c0,1.1,0.6,2.2,1.6,3.2v-16C584.3,127.8,583.8,128.9,583.8,130z"/>
			<path id="XMLID_3449_" class="st9" d="M587.2,125.3v18.9c0.5,0.3,1.1,0.6,1.7,1v-20.8C588.3,124.7,587.7,125,587.2,125.3z"/>
			<path id="XMLID_3448_" class="st9" d="M590.4,123.7v22.2c0.5,0.2,1.1,0.4,1.7,0.6V123C591.5,123.3,591,123.5,590.4,123.7z"/>
			<path id="XMLID_3447_" class="st9" d="M594,122.4v24.7c0.5,0.2,1.1,0.3,1.7,0.5V122C595.1,122.1,594.5,122.3,594,122.4z"/>
			<path id="XMLID_3446_" class="st9" d="M597.6,121.5V148c0.6,0.1,1.1,0.2,1.7,0.3v-27.2C598.7,121.3,598.1,121.4,597.6,121.5z"/>
			<path id="XMLID_3445_" class="st9" d="M601.2,120.9v27.8c0.6,0.1,1.1,0.2,1.7,0.2v-28.3C602.3,120.7,601.7,120.8,601.2,120.9z"/>
			<path id="XMLID_3444_" class="st9" d="M604.4,120.4v28.7c0.6,0.1,1.1,0.1,1.7,0.2v-29C605.5,120.3,604.9,120.4,604.4,120.4z"/>
			<path id="XMLID_3438_" class="st9" d="M607.9,120.1v29.4c0.6,0,1.1,0.1,1.7,0.1V120C609.1,120,608.5,120.1,607.9,120.1z"/>
			<path id="XMLID_3429_" class="st9" d="M611.1,120v29.7c0.6,0,1.1,0,1.7,0v-29.7C612.3,119.9,611.7,119.9,611.1,120z"/>
			<path id="XMLID_3428_" class="st9" d="M614.7,119.9v29.7c0.6,0,1.1,0,1.7,0v-29.7C615.9,119.9,615.3,119.9,614.7,119.9z"/>
			<path id="XMLID_3418_" class="st9" d="M619.6,120.1h-0.1C619.5,120.1,619.6,120.1,619.6,120.1L619.6,120.1z"/>
			<path id="XMLID_3417_" class="st9" d="M619.5,120.1h-1.6v29.5c0.6,0,1.1-0.1,1.7-0.1v-29.4C619.6,120.1,619.5,120.1,619.5,120.1z
				"/>
			<path id="XMLID_3416_" class="st9" d="M621.5,120.2v29.1c0.6,0,1.1-0.1,1.7-0.2v-28.8C622.6,120.3,622.1,120.3,621.5,120.2z"/>
			<path id="XMLID_3415_" class="st9" d="M625.1,120.6V149c0.6-0.1,1.1-0.2,1.7-0.2v-27.9C626.2,120.8,625.7,120.7,625.1,120.6z"/>
			<path id="XMLID_3413_" class="st9" d="M628.7,121.2v27.2c0.6-0.1,1.1-0.2,1.7-0.3v-26.6C629.8,121.4,629.2,121.3,628.7,121.2z"/>
			<path id="XMLID_3412_" class="st9" d="M631.9,121.9v25.9c0.6-0.1,1.1-0.3,1.7-0.4v-25C633,122.1,632.4,122,631.9,121.9z"/>
			<path id="XMLID_3411_" class="st9" d="M635.4,122.9v23.8c0.6-0.2,1.2-0.4,1.7-0.6v-22.6C636.6,123.3,636,123.1,635.4,122.9z"/>
			<path id="XMLID_3410_" class="st9" d="M639,124.3v20.9c0.6-0.3,1.2-0.6,1.7-0.9v-19C640.2,124.9,639.6,124.6,639,124.3z"/>
			<path id="XMLID_3405_" class="st9" d="M644.3,139.5V130c0-1.2-0.6-2.3-1.7-3.3v16.2C643.7,141.8,644.3,140.7,644.3,139.5z"/>
		</g>
		<path id="XMLID_3401_" class="st11" d="M644.3,130c0,5.6-13.5,10.1-30.3,10.1c-16.7,0-30.3-4.5-30.3-10.1
			c0-5.6,13.5-10.1,30.3-10.1C630.7,119.9,644.3,124.4,644.3,130z"/>
		<g id="XMLID_3392_">
			<path id="XMLID_3400_" class="st12" d="M639,130.6c0,4.1-11.2,7.4-25,7.4c-13.8,0-25-3.3-25-7.4c0-4.1,11.2-7.4,25-7.4
				C627.9,123.3,639,126.6,639,130.6z"/>
			<path id="XMLID_3399_" class="st13" d="M639,129.1c0,4.1-11.2,7.4-25,7.4c-13.8,0-25-3.3-25-7.4c0-4.1,11.2-7.4,25-7.4
				C627.9,121.8,639,125.1,639,129.1z"/>
			<path id="XMLID_3397_" class="st10" d="M614,123.2c13,0,23.7,2.9,24.9,6.7c0.1-0.2,0.1-0.5,0.1-0.7c0-4.1-11.2-7.4-25-7.4
				c-13.8,0-25,3.3-25,7.4c0,0.2,0,0.5,0.1,0.7C590.3,126.1,601,123.2,614,123.2z"/>
		</g>
	</g>
	<g id="XMLID_2911_">
		<path id="XMLID_3387_" class="st9" d="M644.3,128.8c0,5.6-13.5,10.1-30.3,10.1l0,0c-16.7,0-30.3-4.5-30.3-10.1v-9.5
			c0-5.6,13.5-10.1,30.3-10.1l0,0c16.7,0,30.3,4.5,30.3,10.1V128.8z"/>
		<path id="XMLID_3386_" class="st10" d="M644.3,127.7c0,5.6-13.5,10.1-30.3,10.1l0,0c-16.7,0-30.3-4.5-30.3-10.1v-9.5
			c0-5.6,13.5-10.1,30.3-10.1l0,0c16.7,0,30.3,4.5,30.3,10.1V127.7z"/>
		<g id="XMLID_2926_">
			<path id="XMLID_3385_" class="st9" d="M583.8,118.2v9.5c0,1.1,0.6,2.2,1.6,3.2v-16C584.3,116,583.8,117.1,583.8,118.2z"/>
			<path id="XMLID_3384_" class="st9" d="M587.2,113.5v18.9c0.5,0.3,1.1,0.6,1.7,1v-20.8C588.3,112.8,587.7,113.2,587.2,113.5z"/>
			<path id="XMLID_3383_" class="st9" d="M590.4,111.8V134c0.5,0.2,1.1,0.4,1.7,0.6v-23.5C591.5,111.4,591,111.6,590.4,111.8z"/>
			<path id="XMLID_3381_" class="st9" d="M594,110.6v24.7c0.5,0.2,1.1,0.3,1.7,0.5v-25.6C595.1,110.3,594.5,110.4,594,110.6z"/>
			<path id="XMLID_3380_" class="st9" d="M597.6,109.7v26.5c0.6,0.1,1.1,0.2,1.7,0.3v-27.2C598.7,109.5,598.1,109.6,597.6,109.7z"/>
			<path id="XMLID_3375_" class="st9" d="M601.2,109v27.8c0.6,0.1,1.1,0.2,1.7,0.2v-28.3C602.3,108.9,601.7,108.9,601.2,109z"/>
			<path id="XMLID_3374_" class="st9" d="M604.4,108.6v28.7c0.6,0.1,1.1,0.1,1.7,0.2v-29C605.5,108.5,604.9,108.5,604.4,108.6z"/>
			<path id="XMLID_3373_" class="st9" d="M607.9,108.3v29.4c0.6,0,1.1,0.1,1.7,0.1v-29.5C609.1,108.2,608.5,108.2,607.9,108.3z"/>
			<path id="XMLID_3372_" class="st9" d="M611.1,108.1v29.7c0.6,0,1.1,0,1.7,0v-29.7C612.3,108.1,611.7,108.1,611.1,108.1z"/>
			<path id="XMLID_3371_" class="st9" d="M614.7,108.1v29.7c0.6,0,1.1,0,1.7,0v-29.7C615.9,108.1,615.3,108.1,614.7,108.1z"/>
			<path id="XMLID_3370_" class="st9" d="M619.6,108.2h-0.1C619.5,108.2,619.6,108.2,619.6,108.2L619.6,108.2z"/>
			<path id="XMLID_3367_" class="st9" d="M619.5,108.2h-1.6v29.5c0.6,0,1.1-0.1,1.7-0.1v-29.4C619.6,108.2,619.5,108.2,619.5,108.2z
				"/>
			<path id="XMLID_3366_" class="st9" d="M621.5,108.4v29.1c0.6,0,1.1-0.1,1.7-0.2v-28.8C622.6,108.5,622.1,108.4,621.5,108.4z"/>
			<path id="XMLID_3365_" class="st9" d="M625.1,108.8v28.4c0.6-0.1,1.1-0.2,1.7-0.2V109C626.2,108.9,625.7,108.8,625.1,108.8z"/>
			<path id="XMLID_3326_" class="st9" d="M628.7,109.3v27.2c0.6-0.1,1.1-0.2,1.7-0.3v-26.6C629.8,109.5,629.2,109.4,628.7,109.3z"/>
			<path id="XMLID_3325_" class="st9" d="M631.9,110v25.9c0.6-0.1,1.1-0.3,1.7-0.4v-25C633,110.3,632.4,110.2,631.9,110z"/>
			<path id="XMLID_3320_" class="st9" d="M635.4,111v23.8c0.6-0.2,1.2-0.4,1.7-0.6v-22.6C636.6,111.4,636,111.2,635.4,111z"/>
			<path id="XMLID_3319_" class="st9" d="M639,112.5v20.9c0.6-0.3,1.2-0.6,1.7-0.9v-19C640.2,113.1,639.6,112.8,639,112.5z"/>
			<path id="XMLID_3318_" class="st9" d="M644.3,127.7v-9.5c0-1.2-0.6-2.3-1.7-3.3V131C643.7,130,644.3,128.9,644.3,127.7z"/>
		</g>
		<path id="XMLID_2924_" class="st11" d="M644.3,118.2c0,5.6-13.5,10.1-30.3,10.1c-16.7,0-30.3-4.5-30.3-10.1
			c0-5.6,13.5-10.1,30.3-10.1C630.7,108.1,644.3,112.6,644.3,118.2z"/>
		<g id="XMLID_2918_">
			<path id="XMLID_2921_" class="st12" d="M639,118.8c0,4.1-11.2,7.4-25,7.4c-13.8,0-25-3.3-25-7.4c0-4.1,11.2-7.4,25-7.4
				C627.9,111.4,639,114.7,639,118.8z"/>
			<path id="XMLID_2920_" class="st13" d="M639,117.3c0,4.1-11.2,7.4-25,7.4c-13.8,0-25-3.3-25-7.4c0-4.1,11.2-7.4,25-7.4
				C627.9,109.9,639,113.2,639,117.3z"/>
			<path id="XMLID_2919_" class="st10" d="M614,111.3c13,0,23.7,2.9,24.9,6.7c0.1-0.2,0.1-0.5,0.1-0.7c0-4.1-11.2-7.4-25-7.4
				c-13.8,0-25,3.3-25,7.4c0,0.2,0,0.5,0.1,0.7C590.3,114.3,601,111.3,614,111.3z"/>
		</g>
	</g>
	<g id="XMLID_2518_">
		<path id="XMLID_2910_" class="st9" d="M698.8,114.8c0,5.6-13.5,10.1-30.3,10.1l0,0c-16.7,0-30.3-4.5-30.3-10.1v-9.5
			c0-5.6,13.5-10.1,30.3-10.1l0,0c16.7,0,30.3,4.5,30.3,10.1V114.8z"/>
		<path id="XMLID_2907_" class="st10" d="M698.8,113.7c0,5.6-13.5,10.1-30.3,10.1l0,0c-16.7,0-30.3-4.5-30.3-10.1v-9.5
			c0-5.6,13.5-10.1,30.3-10.1l0,0c16.7,0,30.3,4.5,30.3,10.1V113.7z"/>
		<g id="XMLID_2872_">
			<path id="XMLID_2904_" class="st9" d="M638.3,104.1v9.5c0,1.1,0.6,2.2,1.6,3.2v-16C638.9,101.9,638.3,103,638.3,104.1z"/>
			<path id="XMLID_2903_" class="st9" d="M641.8,99.4v18.9c0.5,0.3,1.1,0.6,1.7,1V98.5C642.8,98.8,642.3,99.1,641.8,99.4z"/>
			<path id="XMLID_2902_" class="st9" d="M645,97.8V120c0.5,0.2,1.1,0.4,1.7,0.6V97.2C646.1,97.4,645.5,97.6,645,97.8z"/>
			<path id="XMLID_2896_" class="st9" d="M648.5,96.6v24.7c0.5,0.2,1.1,0.3,1.7,0.5V96.1C649.7,96.2,649.1,96.4,648.5,96.6z"/>
			<path id="XMLID_2893_" class="st9" d="M652.1,95.6v26.5c0.6,0.1,1.1,0.2,1.7,0.3V95.3C653.2,95.4,652.7,95.5,652.1,95.6z"/>
			<path id="XMLID_2892_" class="st9" d="M655.7,95v27.8c0.6,0.1,1.1,0.2,1.7,0.2V94.7C656.8,94.8,656.3,94.9,655.7,95z"/>
			<path id="XMLID_2889_" class="st9" d="M658.9,94.6v28.7c0.6,0.1,1.1,0.1,1.7,0.2v-29C660,94.4,659.5,94.5,658.9,94.6z"/>
			<path id="XMLID_2888_" class="st9" d="M662.5,94.2v29.4c0.6,0,1.1,0.1,1.7,0.1V94.1C663.6,94.2,663,94.2,662.5,94.2z"/>
			<path id="XMLID_2887_" class="st9" d="M665.7,94.1v29.7c0.6,0,1.1,0,1.7,0V94C666.8,94,666.2,94.1,665.7,94.1z"/>
			<path id="XMLID_2885_" class="st9" d="M669.3,94v29.7c0.6,0,1.1,0,1.7,0V94.1C670.4,94,669.8,94,669.3,94z"/>
			<path id="XMLID_2884_" class="st9" d="M674.2,94.2H674C674.1,94.2,674.1,94.2,674.2,94.2L674.2,94.2z"/>
			<path id="XMLID_2883_" class="st9" d="M674,94.2h-1.6v29.5c0.6,0,1.1-0.1,1.7-0.1V94.2C674.1,94.2,674.1,94.2,674,94.2z"/>
			<path id="XMLID_2881_" class="st9" d="M676,94.3v29.1c0.6,0,1.1-0.1,1.7-0.2V94.5C677.2,94.4,676.6,94.4,676,94.3z"/>
			<path id="XMLID_2880_" class="st9" d="M679.6,94.7v28.4c0.6-0.1,1.1-0.2,1.7-0.2V95C680.8,94.9,680.2,94.8,679.6,94.7z"/>
			<path id="XMLID_2879_" class="st9" d="M683.2,95.3v27.2c0.6-0.1,1.1-0.2,1.7-0.3V95.6C684.3,95.5,683.8,95.4,683.2,95.3z"/>
			<path id="XMLID_2878_" class="st9" d="M686.4,96v25.9c0.6-0.1,1.1-0.3,1.7-0.4v-25C687.5,96.3,687,96.1,686.4,96z"/>
			<path id="XMLID_2877_" class="st9" d="M690,97v23.8c0.6-0.2,1.2-0.4,1.7-0.6V97.6C691.1,97.4,690.6,97.2,690,97z"/>
			<path id="XMLID_2876_" class="st9" d="M693.6,98.4v20.9c0.6-0.3,1.2-0.6,1.7-0.9v-19C694.7,99.1,694.2,98.7,693.6,98.4z"/>
			<path id="XMLID_2875_" class="st9" d="M698.8,113.7v-9.5c0-1.2-0.6-2.3-1.7-3.3V117C698.2,115.9,698.8,114.8,698.8,113.7z"/>
		</g>
		<path id="XMLID_2649_" class="st11" d="M698.8,104.1c0,5.6-13.5,10.1-30.3,10.1c-16.7,0-30.3-4.5-30.3-10.1
			c0-5.6,13.5-10.1,30.3-10.1C685.3,94,698.8,98.5,698.8,104.1z"/>
		<g id="XMLID_2519_">
			<path id="XMLID_2522_" class="st12" d="M693.6,104.8c0,4.1-11.2,7.4-25,7.4c-13.8,0-25-3.3-25-7.4c0-4.1,11.2-7.4,25-7.4
				C682.4,97.4,693.6,100.7,693.6,104.8z"/>
			<path id="XMLID_2521_" class="st13" d="M693.6,103.3c0,4.1-11.2,7.4-25,7.4c-13.8,0-25-3.3-25-7.4c0-4.1,11.2-7.4,25-7.4
				C682.4,95.9,693.6,99.2,693.6,103.3z"/>
			<path id="XMLID_2520_" class="st10" d="M668.6,97.3c13,0,23.7,2.9,24.9,6.7c0.1-0.2,0.1-0.5,0.1-0.7c0-4.1-11.2-7.4-25-7.4
				c-13.8,0-25,3.3-25,7.4c0,0.2,0,0.5,0.1,0.7C644.8,100.2,655.5,97.3,668.6,97.3z"/>
		</g>
	</g>
	<g id="XMLID_2471_">
		<path id="XMLID_2517_" class="st9" d="M644.3,117.3c0,5.6-13.5,10.1-30.3,10.1l0,0c-16.7,0-30.3-4.5-30.3-10.1v-9.5
			c0-5.6,13.5-10.1,30.3-10.1l0,0c16.7,0,30.3,4.5,30.3,10.1V117.3z"/>
		<path id="XMLID_2516_" class="st10" d="M644.3,116.2c0,5.6-13.5,10.1-30.3,10.1l0,0c-16.7,0-30.3-4.5-30.3-10.1v-9.5
			c0-5.6,13.5-10.1,30.3-10.1l0,0c16.7,0,30.3,4.5,30.3,10.1V116.2z"/>
		<g id="XMLID_2483_">
			<path id="XMLID_2515_" class="st9" d="M583.8,106.7v9.5c0,1.1,0.6,2.2,1.6,3.2v-16C584.3,104.5,583.8,105.5,583.8,106.7z"/>
			<path id="XMLID_2513_" class="st9" d="M587.2,102v18.9c0.5,0.3,1.1,0.6,1.7,1V101C588.3,101.3,587.7,101.7,587.2,102z"/>
			<path id="XMLID_2505_" class="st9" d="M590.4,100.3v22.2c0.5,0.2,1.1,0.4,1.7,0.6V99.7C591.5,99.9,591,100.1,590.4,100.3z"/>
			<path id="XMLID_2504_" class="st9" d="M594,99.1v24.7c0.5,0.2,1.1,0.3,1.7,0.5V98.6C595.1,98.8,594.5,98.9,594,99.1z"/>
			<path id="XMLID_2503_" class="st9" d="M597.6,98.2v26.5c0.6,0.1,1.1,0.2,1.7,0.3V97.8C598.7,97.9,598.1,98.1,597.6,98.2z"/>
			<path id="XMLID_2502_" class="st9" d="M601.2,97.5v27.8c0.6,0.1,1.1,0.2,1.7,0.2V97.3C602.3,97.4,601.7,97.4,601.2,97.5z"/>
			<path id="XMLID_2501_" class="st9" d="M604.4,97.1v28.7c0.6,0.1,1.1,0.1,1.7,0.2v-29C605.5,97,604.9,97,604.4,97.1z"/>
			<path id="XMLID_2500_" class="st9" d="M607.9,96.8v29.4c0.6,0,1.1,0.1,1.7,0.1V96.7C609.1,96.7,608.5,96.7,607.9,96.8z"/>
			<path id="XMLID_2499_" class="st9" d="M611.1,96.6v29.7c0.6,0,1.1,0,1.7,0V96.6C612.3,96.6,611.7,96.6,611.1,96.6z"/>
			<path id="XMLID_2498_" class="st9" d="M614.7,96.6v29.7c0.6,0,1.1,0,1.7,0V96.6C615.9,96.6,615.3,96.6,614.7,96.6z"/>
			<path id="XMLID_2497_" class="st9" d="M619.6,96.7h-0.1C619.5,96.7,619.6,96.7,619.6,96.7L619.6,96.7z"/>
			<path id="XMLID_2496_" class="st9" d="M619.5,96.7h-1.6v29.5c0.6,0,1.1-0.1,1.7-0.1V96.7C619.6,96.7,619.5,96.7,619.5,96.7z"/>
			<path id="XMLID_2490_" class="st9" d="M621.5,96.9V126c0.6,0,1.1-0.1,1.7-0.2V97C622.6,97,622.1,96.9,621.5,96.9z"/>
			<path id="XMLID_2489_" class="st9" d="M625.1,97.3v28.4c0.6-0.1,1.1-0.2,1.7-0.2V97.5C626.2,97.4,625.7,97.3,625.1,97.3z"/>
			<path id="XMLID_2488_" class="st9" d="M628.7,97.8v27.2c0.6-0.1,1.1-0.2,1.7-0.3V98.2C629.8,98,629.2,97.9,628.7,97.8z"/>
			<path id="XMLID_2487_" class="st9" d="M631.9,98.5v25.9c0.6-0.1,1.1-0.3,1.7-0.4V99C633,98.8,632.4,98.7,631.9,98.5z"/>
			<path id="XMLID_2486_" class="st9" d="M635.4,99.5v23.8c0.6-0.2,1.2-0.4,1.7-0.6v-22.6C636.6,99.9,636,99.7,635.4,99.5z"/>
			<path id="XMLID_2485_" class="st9" d="M639,101v20.9c0.6-0.3,1.2-0.6,1.7-0.9v-19C640.2,101.6,639.6,101.3,639,101z"/>
			<path id="XMLID_2484_" class="st9" d="M644.3,116.2v-9.5c0-1.2-0.6-2.3-1.7-3.3v16.2C643.7,118.5,644.3,117.4,644.3,116.2z"/>
		</g>
		<path id="XMLID_2482_" class="st11" d="M644.3,106.7c0,5.6-13.5,10.1-30.3,10.1c-16.7,0-30.3-4.5-30.3-10.1
			c0-5.6,13.5-10.1,30.3-10.1C630.7,96.6,644.3,101.1,644.3,106.7z"/>
		<g id="XMLID_2472_">
			<path id="XMLID_2481_" class="st12" d="M639,107.3c0,4.1-11.2,7.4-25,7.4c-13.8,0-25-3.3-25-7.4c0-4.1,11.2-7.4,25-7.4
				C627.9,99.9,639,103.2,639,107.3z"/>
			<path id="XMLID_2480_" class="st13" d="M639,105.8c0,4.1-11.2,7.4-25,7.4c-13.8,0-25-3.3-25-7.4c0-4.1,11.2-7.4,25-7.4
				C627.9,98.4,639,101.7,639,105.8z"/>
			<path id="XMLID_2473_" class="st10" d="M614,99.8c13,0,23.7,2.9,24.9,6.7c0.1-0.2,0.1-0.5,0.1-0.7c0-4.1-11.2-7.4-25-7.4
				c-13.8,0-25,3.3-25,7.4c0,0.2,0,0.5,0.1,0.7C590.3,102.8,601,99.8,614,99.8z"/>
		</g>
	</g>
	<g id="XMLID_953_">
		<path id="XMLID_2470_" class="st9" d="M644.3,105.4c0,5.6-13.5,10.1-30.3,10.1l0,0c-16.7,0-30.3-4.5-30.3-10.1v-9.5
			c0-5.6,13.5-10.1,30.3-10.1l0,0c16.7,0,30.3,4.5,30.3,10.1V105.4z"/>
		<path id="XMLID_2469_" class="st10" d="M644.3,104.2c0,5.6-13.5,10.1-30.3,10.1l0,0c-16.7,0-30.3-4.5-30.3-10.1v-9.5
			c0-5.6,13.5-10.1,30.3-10.1l0,0c16.7,0,30.3,4.5,30.3,10.1V104.2z"/>
		<g id="XMLID_2432_">
			<path id="XMLID_2468_" class="st9" d="M583.8,94.7v9.5c0,1.1,0.6,2.2,1.6,3.2v-16C584.3,92.5,583.8,93.6,583.8,94.7z"/>
			<path id="XMLID_2466_" class="st9" d="M587.2,90v18.9c0.5,0.3,1.1,0.6,1.7,1V89C588.3,89.4,587.7,89.7,587.2,90z"/>
			<path id="XMLID_2465_" class="st9" d="M590.4,88.4v22.2c0.5,0.2,1.1,0.4,1.7,0.6V87.7C591.5,87.9,591,88.1,590.4,88.4z"/>
			<path id="XMLID_2464_" class="st9" d="M594,87.1v24.7c0.5,0.2,1.1,0.3,1.7,0.5V86.6C595.1,86.8,594.5,87,594,87.1z"/>
			<path id="XMLID_2463_" class="st9" d="M597.6,86.2v26.5c0.6,0.1,1.1,0.2,1.7,0.3V85.9C598.7,86,598.1,86.1,597.6,86.2z"/>
			<path id="XMLID_2462_" class="st9" d="M601.2,85.5v27.8c0.6,0.1,1.1,0.2,1.7,0.2V85.3C602.3,85.4,601.7,85.5,601.2,85.5z"/>
			<path id="XMLID_2461_" class="st9" d="M604.4,85.1v28.7c0.6,0.1,1.1,0.1,1.7,0.2v-29C605.5,85,604.9,85,604.4,85.1z"/>
			<path id="XMLID_2453_" class="st9" d="M607.9,84.8v29.4c0.6,0,1.1,0.1,1.7,0.1V84.7C609.1,84.7,608.5,84.7,607.9,84.8z"/>
			<path id="XMLID_2452_" class="st9" d="M611.1,84.6v29.7c0.6,0,1.1,0,1.7,0V84.6C612.3,84.6,611.7,84.6,611.1,84.6z"/>
			<path id="XMLID_2451_" class="st9" d="M614.7,84.6v29.7c0.6,0,1.1,0,1.7,0V84.6C615.9,84.6,615.3,84.6,614.7,84.6z"/>
			<path id="XMLID_2450_" class="st9" d="M619.6,84.8h-0.1C619.5,84.8,619.6,84.8,619.6,84.8L619.6,84.8z"/>
			<path id="XMLID_2449_" class="st9" d="M619.5,84.8h-1.6v29.5c0.6,0,1.1-0.1,1.7-0.1V84.8C619.6,84.8,619.5,84.8,619.5,84.8z"/>
			<path id="XMLID_2446_" class="st9" d="M621.5,84.9V114c0.6,0,1.1-0.1,1.7-0.2V85.1C622.6,85,622.1,84.9,621.5,84.9z"/>
			<path id="XMLID_2445_" class="st9" d="M625.1,85.3v28.4c0.6-0.1,1.1-0.2,1.7-0.2V85.5C626.2,85.4,625.7,85.4,625.1,85.3z"/>
			<path id="XMLID_2444_" class="st9" d="M628.7,85.8v27.2c0.6-0.1,1.1-0.2,1.7-0.3V86.2C629.8,86.1,629.2,86,628.7,85.8z"/>
			<path id="XMLID_2443_" class="st9" d="M631.9,86.5v25.9c0.6-0.1,1.1-0.3,1.7-0.4V87C633,86.8,632.4,86.7,631.9,86.5z"/>
			<path id="XMLID_2436_" class="st9" d="M635.4,87.6v23.8c0.6-0.2,1.2-0.4,1.7-0.6V88.2C636.6,88,636,87.8,635.4,87.6z"/>
			<path id="XMLID_2434_" class="st9" d="M639,89v20.9c0.6-0.3,1.2-0.6,1.7-0.9v-19C640.2,89.6,639.6,89.3,639,89z"/>
			<path id="XMLID_2433_" class="st9" d="M644.3,104.2v-9.5c0-1.2-0.6-2.3-1.7-3.3v16.2C643.7,106.5,644.3,105.4,644.3,104.2z"/>
		</g>
		<path id="XMLID_2428_" class="st11" d="M644.3,94.7c0,5.6-13.5,10.1-30.3,10.1c-16.7,0-30.3-4.5-30.3-10.1
			c0-5.6,13.5-10.1,30.3-10.1C630.7,84.6,644.3,89.1,644.3,94.7z"/>
		<g id="XMLID_2418_">
			<path id="XMLID_2427_" class="st12" d="M639,95.3c0,4.1-11.2,7.4-25,7.4c-13.8,0-25-3.3-25-7.4c0-4.1,11.2-7.4,25-7.4
				C627.9,88,639,91.3,639,95.3z"/>
			<path id="XMLID_2421_" class="st13" d="M639,93.8c0,4.1-11.2,7.4-25,7.4c-13.8,0-25-3.3-25-7.4c0-4.1,11.2-7.4,25-7.4
				C627.9,86.5,639,89.8,639,93.8z"/>
			<path id="XMLID_2419_" class="st10" d="M614,87.9c13,0,23.7,2.9,24.9,6.7c0.1-0.2,0.1-0.5,0.1-0.7c0-4.1-11.2-7.4-25-7.4
				c-13.8,0-25,3.3-25,7.4c0,0.2,0,0.5,0.1,0.7C590.3,90.8,601,87.9,614,87.9z"/>
		</g>
	</g>
	<g id="XMLID_119_">
		<path id="XMLID_951_" class="st9" d="M644.3,93.3c0,5.6-13.5,10.1-30.3,10.1l0,0c-16.7,0-30.3-4.5-30.3-10.1v-9.5
			c0-5.6,13.5-10.1,30.3-10.1l0,0c16.7,0,30.3,4.5,30.3,10.1V93.3z"/>
		<path id="XMLID_920_" class="st10" d="M644.3,92.2c0,5.6-13.5,10.1-30.3,10.1l0,0c-16.7,0-30.3-4.5-30.3-10.1v-9.5
			c0-5.6,13.5-10.1,30.3-10.1l0,0c16.7,0,30.3,4.5,30.3,10.1V92.2z"/>
		<g id="XMLID_152_">
			<path id="XMLID_917_" class="st9" d="M583.8,82.6v9.5c0,1.1,0.6,2.2,1.6,3.2v-16C584.3,80.4,583.8,81.5,583.8,82.6z"/>
			<path id="XMLID_894_" class="st9" d="M587.2,77.9v18.9c0.5,0.3,1.1,0.6,1.7,1V77C588.3,77.3,587.7,77.6,587.2,77.9z"/>
			<path id="XMLID_882_" class="st9" d="M590.4,76.3v22.2c0.5,0.2,1.1,0.4,1.7,0.6V75.7C591.5,75.9,591,76.1,590.4,76.3z"/>
			<path id="XMLID_880_" class="st9" d="M594,75v24.7c0.5,0.2,1.1,0.3,1.7,0.5V74.6C595.1,74.7,594.5,74.9,594,75z"/>
			<path id="XMLID_642_" class="st9" d="M597.6,74.1v26.5c0.6,0.1,1.1,0.2,1.7,0.3V73.8C598.7,73.9,598.1,74,597.6,74.1z"/>
			<path id="XMLID_403_" class="st9" d="M601.2,73.5v27.8c0.6,0.1,1.1,0.2,1.7,0.2V73.2C602.3,73.3,601.7,73.4,601.2,73.5z"/>
			<path id="XMLID_402_" class="st9" d="M604.4,73v28.7c0.6,0.1,1.1,0.1,1.7,0.2v-29C605.5,72.9,604.9,73,604.4,73z"/>
			<path id="XMLID_396_" class="st9" d="M607.9,72.7v29.4c0.6,0,1.1,0.1,1.7,0.1V72.6C609.1,72.6,608.5,72.7,607.9,72.7z"/>
			<path id="XMLID_198_" class="st9" d="M611.1,72.6v29.7c0.6,0,1.1,0,1.7,0V72.5C612.3,72.5,611.7,72.5,611.1,72.6z"/>
			<path id="XMLID_196_" class="st9" d="M614.7,72.5v29.7c0.6,0,1.1,0,1.7,0V72.5C615.9,72.5,615.3,72.5,614.7,72.5z"/>
			<path id="XMLID_195_" class="st9" d="M619.6,72.7h-0.1C619.5,72.7,619.6,72.7,619.6,72.7L619.6,72.7z"/>
			<path id="XMLID_184_" class="st9" d="M619.5,72.7h-1.6v29.5c0.6,0,1.1-0.1,1.7-0.1V72.7C619.6,72.7,619.5,72.7,619.5,72.7z"/>
			<path id="XMLID_183_" class="st9" d="M621.5,72.8V102c0.6,0,1.1-0.1,1.7-0.2V73C622.6,72.9,622.1,72.9,621.5,72.8z"/>
			<path id="XMLID_182_" class="st9" d="M625.1,73.2v28.4c0.6-0.1,1.1-0.2,1.7-0.2V73.5C626.2,73.4,625.7,73.3,625.1,73.2z"/>
			<path id="XMLID_181_" class="st9" d="M628.7,73.8V101c0.6-0.1,1.1-0.2,1.7-0.3V74.1C629.8,74,629.2,73.9,628.7,73.8z"/>
			<path id="XMLID_179_" class="st9" d="M631.9,74.5v25.9c0.6-0.1,1.1-0.3,1.7-0.4v-25C633,74.8,632.4,74.6,631.9,74.5z"/>
			<path id="XMLID_168_" class="st9" d="M635.4,75.5v23.8c0.6-0.2,1.2-0.4,1.7-0.6V76.1C636.6,75.9,636,75.7,635.4,75.5z"/>
			<path id="XMLID_165_" class="st9" d="M639,76.9v20.9c0.6-0.3,1.2-0.6,1.7-0.9v-19C640.2,77.5,639.6,77.2,639,76.9z"/>
			<path id="XMLID_164_" class="st9" d="M644.3,92.2v-9.5c0-1.2-0.6-2.3-1.7-3.3v16.2C643.7,94.4,644.3,93.3,644.3,92.2z"/>
		</g>
		<path id="XMLID_146_" class="st11" d="M644.3,82.6c0,5.6-13.5,10.1-30.3,10.1c-16.7,0-30.3-4.5-30.3-10.1
			c0-5.6,13.5-10.1,30.3-10.1C630.7,72.5,644.3,77,644.3,82.6z"/>
		<g id="XMLID_133_">
			<path id="XMLID_144_" class="st12" d="M639,83.2c0,4.1-11.2,7.4-25,7.4c-13.8,0-25-3.3-25-7.4c0-4.1,11.2-7.4,25-7.4
				C627.9,75.9,639,79.2,639,83.2z"/>
			<path id="XMLID_143_" class="st13" d="M639,81.8c0,4.1-11.2,7.4-25,7.4c-13.8,0-25-3.3-25-7.4c0-4.1,11.2-7.4,25-7.4
				C627.9,74.4,639,77.7,639,81.8z"/>
			<path id="XMLID_141_" class="st10" d="M614,75.8c13,0,23.7,2.9,24.9,6.7c0.1-0.2,0.1-0.5,0.1-0.7c0-4.1-11.2-7.4-25-7.4
				c-13.8,0-25,3.3-25,7.4c0,0.2,0,0.5,0.1,0.7C590.3,78.7,601,75.8,614,75.8z"/>
		</g>
	</g>
</g>
<g id="XMLID_166_">
	<path id="XMLID_4181_" class="st14" d="M622.5,201.2c54.7,9.6,106.8-26.9,116.5-81.6c4.8-27.4-1.9-54.1-16.7-75.2l12.5-8.8
		c1.1-0.8,0.9-2.5-0.4-3L715.3,26l-20-7c-1.1-0.4-2.2,0.4-2.3,1.6l-0.2,21.2L692.6,62c0,1.4,1.5,2.2,2.7,1.4l12.4-8.7
		c12.1,17.3,17.7,39.3,13.7,61.7c-7.9,44.9-50.7,74.9-95.7,67c-21.2-3.7-39.1-15.3-51.2-31.1l-14,11.3
		C575.2,182.8,596.9,196.7,622.5,201.2z"/>
	<path id="XMLID_4180_" class="st14" d="M697.8,19.8c-11.7-8.2-25.3-14.1-40.4-16.7C602.8-6.5,550.6,30,541,84.7
		c-4.8,27.2,1.8,53.8,16.4,74.8l-12.5,8.7c-1.1,0.8-0.9,2.5,0.4,3l19.1,6.7l20,7c1.1,0.4,2.2-0.4,2.3-1.6l0.2-21.2l0.2-20.3
		c0-1.4-1.5-2.2-2.7-1.4l-12.4,8.7c-12-17.3-17.4-39.1-13.5-61.4c7.9-44.9,50.7-74.9,95.7-67c14.7,2.6,27.8,8.9,38.5,17.9l0.2-17.4
		c0,0-0.1-1.4,0.4-1.8c0.4-0.4,1-0.9,1.9-0.5L697.8,19.8z"/>
</g>
<path id="XMLID_552_" class="st0" d="M-1311.2,228.9v199l1280,0v-199c-198.9-76.9-414.6-119-640-119S-1112.3,152-1311.2,228.9z"/>
<path id="XMLID_551_" class="st6" d="M-31.2,206.7c-164.1-63.5-339.7-103.2-522.7-115.2c-9.8-0.6-18.3-7.3-20.9-16.7
	c-11.7-42.2-50.4-73.2-96.4-73.2s-84.7,31-96.4,73.2c-2.6,9.5-11.1,16.1-20.9,16.7c-183,12-358.6,51.7-522.7,115.2v30.5
	c128.1-49.6,263.3-84.7,403.5-103.4c62.8-8.4,125.8,9.5,176.3,47.6c16.7,12.6,37.6,20.1,60.1,20.1s43.4-7.5,60.1-20.1
	c50.6-38.1,113.6-56,176.3-47.6c140.2,18.7,275.4,53.8,403.5,103.4V206.7z"/>
<path id="XMLID_550_" class="st2" d="M-611.1,181.4c-16.7,12.6-37.6,20.1-60.1,20.1c-22.6,0-43.4-7.5-60.1-20.1
	c-50.6-38.1-113.6-56-176.3-47.6c-140.2,18.7-275.4,53.8-403.5,103.4v5.3c128.1-49.6,263.3-84.7,403.5-103.4
	c62.8-8.4,125.8,9.5,176.3,47.6c16.7,12.6,37.6,20.1,60.1,20.1c22.6,0,43.4-7.5,60.1-20.1c50.6-38.1,113.6-56,176.3-47.6
	c140.2,18.7,275.4,53.8,403.5,103.4v-5.3c-128.1-49.6-263.3-84.7-403.5-103.4C-497.5,125.4-560.5,143.3-611.1,181.4z"/>
<circle id="XMLID_549_" class="st7" cx="-671.2" cy="101.8" r="82.6"/>
<path id="XMLID_58_" class="st15" d="M3504.3-12.8c-0.1-1.2-1.8-1.2-1.9,0l-3.8,47.6c0,2.6,2.1,4.7,4.7,4.7c2.6,0,4.7-2.1,4.7-4.7
	L3504.3-12.8z"/>
<path id="XMLID_57_" class="st15" d="M3537.7,1.8c0.8-0.9-0.5-2.1-1.4-1.4l-36.3,31c-1.8,1.8-1.8,4.8,0,6.7c1.8,1.8,4.8,1.8,6.7,0
	L3537.7,1.8z"/>
<g id="XMLID_4949_">
	<circle id="XMLID_5025_" class="st16" cx="-672" cy="118.3" r="34.4"/>
	<path id="XMLID_4975_" class="st1" d="M-611.6,76.4c0-11.1-9-20.2-20.2-20.2c-6.1,0-11.5,2.7-15.2,7c-14.7-8.9-33.4-9.5-48.8-0.9
		c-3.7-3.9-8.9-6.4-14.7-6.4c-11.1,0-20.2,9-20.2,20.2c0,7.9,4.6,14.7,11.2,18c-3.1,13.7-0.2,28.6,9.2,40.6
		c16.5,21.1,47.1,24.8,68.2,8.3c14.9-11.7,21.1-30.4,17.7-47.8C-617,92.2-611.6,84.9-611.6,76.4z M-667.1,116.6
		c-5.2,2.2-11.5,0.8-15.2-3.9c-4.4-5.6-3.4-13.7,2.2-18.1c5.6-4.4,13.7-3.4,18.2,2.2c3.7,4.7,3.6,11.1,0.2,15.7l15.4,25.2
		L-667.1,116.6z"/>
</g>
</svg>
