<svg xmlns="http://www.w3.org/2000/svg" xmlns:xlink="http://www.w3.org/1999/xlink" version="1.1" id="Layer_1" x="0px" y="0px" viewBox="0 0 1280 242.5" style="enable-background:new 0 0 1280 242.5;" xml:space="preserve">
<style type="text/css">
	.st0{fill:#FFFFFF;}
	.st1{fill:#FFBE00;}
	.st2{opacity:0.2;fill:#1A1A1A;}
	.st3{fill:#F4AE00;}
	.st4{opacity:0.1;fill:#1A1A1A;}
	.st5{fill:#EE3F25;}
	.st6{fill:#4AB648;}
	.st7{fill:#FFFFFF;stroke:#999999;stroke-miterlimit:10;}
	.st8{fill:#E5E5E5;}
	.st9{fill:#E49127;}
	.st10{fill:#F09F2D;}
	.st11{fill:#F5C651;}
	.st12{fill:#F7CD71;}
	.st13{fill:#ECB946;}
	.st14{fill:#4AB648;stroke:#FFFFFF;stroke-width:3;stroke-linecap:round;stroke-linejoin:round;stroke-miterlimit:10;}
	.st15{fill:#181919;}
	.st16{fill:#1A1A1A;}
</style>
<path id="XMLID_552_" class="st0" d="M0,228.9v13.6l1280,0v-13.6c-198.9-76.9-414.6-119-640-119S198.9,152,0,228.9z"/>
<path id="XMLID_551_" class="st6" d="M1280,206.7c-164.1-63.5-339.7-103.2-522.7-115.2c-9.8-0.6-18.3-7.3-20.9-16.7  C724.7,32.5,686,1.5,640,1.5s-84.7,31-96.4,73.2c-2.6,9.5-11.1,16.1-20.9,16.7c-183,12-358.6,51.7-522.7,115.2v30.5  c128.1-49.6,263.3-84.7,403.5-103.4c62.8-8.4,125.8,9.5,176.3,47.6c16.7,12.6,37.6,20.1,60.1,20.1s43.4-7.5,60.1-20.1  c50.6-38.1,113.6-56,176.3-47.6c140.2,18.7,275.4,53.8,403.5,103.4V206.7z"/>
<path id="XMLID_550_" class="st2" d="M700.1,181.4c-16.7,12.6-37.6,20.1-60.1,20.1c-22.6,0-43.4-7.5-60.1-20.1  c-50.6-38.1-113.6-56-176.3-47.6C263.3,152.5,128.1,187.6,0,237.2v5.3c128.1-49.6,263.3-84.7,403.5-103.4  c62.8-8.4,125.8,9.5,176.3,47.6c16.7,12.6,37.6,20.1,60.1,20.1c22.6,0,43.4-7.5,60.1-20.1c50.6-38.1,113.6-56,176.3-47.6  c140.2,18.7,275.4,53.8,403.5,103.4v-5.3c-128.1-49.6-263.3-84.7-403.5-103.4C813.7,125.4,750.7,143.3,700.1,181.4z"/>
<circle id="XMLID_549_" class="st7" cx="640" cy="101.8" r="82.6"/>
<g id="XMLID_4949_">
	<circle id="XMLID_5025_" class="st16" cx="639.2" cy="118.3" r="34.4"/>
	<path id="XMLID_4975_" class="st1" d="M699.5,76.4c0-11.1-9-20.2-20.2-20.2c-6.1,0-11.5,2.7-15.2,7c-14.7-8.9-33.4-9.5-48.8-0.9   c-3.7-3.9-8.9-6.4-14.7-6.4c-11.1,0-20.2,9-20.2,20.2c0,7.9,4.6,14.7,11.2,18c-3.1,13.7-0.2,28.6,9.2,40.6   c16.5,21.1,47.1,24.8,68.2,8.3c14.9-11.7,21.1-30.4,17.7-47.8C694.2,92.2,699.5,84.9,699.5,76.4z M644.1,116.6   c-5.2,2.2-11.5,0.8-15.2-3.9c-4.4-5.6-3.4-13.7,2.2-18.1c5.6-4.4,13.7-3.4,18.2,2.2c3.7,4.7,3.6,11.1,0.2,15.7l15.4,25.2   L644.1,116.6z"/>
</g>
</svg>